<svg width="336" height="336" viewBox="0 0 336 336" fill="none" xmlns="http://www.w3.org/2000/svg">
<g filter="url(#filter0_d_87_155)">
<path d="M4 33.4333C4 14.9686 18.9686 0 37.4333 0H297.807C316.272 0 331.241 14.9686 331.241 33.4333V293.807C331.241 312.272 316.272 327.241 297.807 327.241H37.4333C18.9686 327.241 4 312.272 4 293.807V33.4333Z" fill="url(#paint0_linear_87_155)"/>
</g>
<mask id="mask0_87_155" style="mask-type:alpha" maskUnits="userSpaceOnUse" x="4" y="0" width="328" height="328">
<path d="M4 33.4333C4 14.9686 18.9686 0 37.4333 0H297.807C316.272 0 331.241 14.9686 331.241 33.4333V293.807C331.241 312.272 316.272 327.241 297.807 327.241H37.4333C18.9686 327.241 4 312.272 4 293.807V33.4333Z" fill="#D9D9D9"/>
</mask>
<g mask="url(#mask0_87_155)">
<path d="M39.5145 152.722V146.366C39.5145 140.278 40.4736 139.587 47.1104 139.587H66.4456V123.821C66.4456 122.016 67.0019 120.634 69.7641 120.634C72.5262 120.634 73.3511 121.594 73.3511 123.821V139.587H101.107V117.888H48.7601C42.4109 117.888 42.5452 115.545 42.5452 112.223V107.249C42.5452 102.276 43.5043 100.605 49.1821 100.605H163.275C168.377 100.605 170.046 101.853 170.046 106.558V111.397C170.046 116.928 168.397 117.888 163.275 117.888H108.3V121.613H157.751C163.007 121.613 163.697 122.439 163.697 127.566V130.754C163.697 135.17 161.76 135.727 157.751 135.727H108.3V139.606H165.481C171.83 139.606 172.118 142.372 172.118 145.559V152.741C172.118 157.158 170.871 158.54 166.172 158.54H46.6884C41.4326 158.54 39.5145 158.963 39.5145 152.741V152.722ZM39.783 95.0554V90.2163C39.783 86.0684 40.4736 84.8202 44.1948 83.4376C47.9161 82.055 54.975 79.7122 58.0057 77.6383C58.4277 77.3695 58.6962 77.0814 58.9648 76.8126H49.5657C44.3099 76.8126 42.6603 74.8731 42.6603 70.5908V54.2683C42.6603 50.6774 44.0414 47.4897 49.5657 47.4897H71.6631V44.1676H43.2357C40.7421 44.1676 40.0516 43.0538 40.0516 41.2679V34.086C40.0516 31.8777 40.3201 31.0519 43.5043 31.0519H71.6823V28.978C71.6823 26.9041 73.1976 26.6353 75.4035 26.6353C77.6094 26.6353 78.5877 27.749 78.5877 28.978V31.0519H105.385C108.012 31.0519 108.703 31.7432 108.703 34.5085V40.4614C108.703 42.6697 107.878 44.1868 105.25 44.1868H78.5877V47.5089H99.0354C103.869 47.5089 105.116 49.0259 105.116 53.1737V69.8995C105.116 74.8731 103.466 76.8126 98.3449 76.8126H80.947C86.7399 79.1554 93.7988 81.6517 99.1697 82.6119C103.735 83.572 103.581 85.2427 103.581 88.5648V92.5782C103.581 97.6862 101.778 98.8 95.9855 97.1485C91.1517 96.3228 83.5558 93.2695 78.5877 90.7924V97.283C78.5877 98.8 77.7629 100.048 75.0007 100.048C72.2385 100.048 71.6823 98.6656 71.6823 97.283V76.8126H66.1579V80.6916C66.1579 87.6047 64.5083 89.813 61.0556 92.3094C57.7371 94.8058 52.0785 96.8797 46.1322 98.5312C41.7204 99.9138 39.783 99.4913 39.783 95.0746V95.0554ZM50.0069 64.7723H71.6823V60.0676H50.2946C49.0478 60.0676 48.645 60.4901 48.645 61.5846V63.3897C48.645 64.081 48.5107 64.7723 50.0261 64.7723H50.0069ZM78.6069 60.0868V64.7915H97.6735C99.0546 64.7915 99.1889 63.9658 99.1889 63.2745V61.4694C99.1889 60.3557 98.9203 60.0868 97.9421 60.0868H78.6069ZM166.728 53.8651H164.1L164.234 62.5832C164.234 71.839 161.606 75.4492 158.978 77.9264C161.741 79.0401 164.368 80.0003 166.996 80.9604C171.274 82.4775 172.252 83.0343 172.252 87.0478V93.9608C172.252 98.6656 170.871 100.317 166.172 99.0688C156.37 96.5724 147.949 93.404 140.756 89.525C131.222 93.9416 120.461 97.2638 110.238 98.7808C106.094 99.3377 104.982 99.3377 104.847 94.2105V86.1836C104.847 81.4789 105.96 80.7876 110.506 79.8275C114.784 79.0017 118.927 77.7535 123.07 76.3709C120.577 73.6057 119.195 70.2836 118.927 64.1962C117.277 65.4444 115.474 66.4046 113.959 67.2303C109.547 69.3042 107.188 68.8818 107.188 64.0426V54.7868C107.188 49.9476 107.744 48.8339 110.909 46.76C114.227 44.5516 116.99 42.881 119.886 38.7331C120.999 37.2161 121.267 34.5853 121.267 32.3769V30.5719C121.267 27.6722 122.514 26.9809 124.164 26.9809C125.967 26.9809 127.885 27.1153 127.885 30.303V34.0284H166.555C170.967 34.0284 172.348 34.2972 172.348 40.1157V47.4513C172.348 53.1161 171.101 53.8074 166.689 53.8074L166.728 53.8651ZM157.463 53.8651H129.151C128.192 55.2477 127.079 56.4959 125.967 57.744L126.791 58.5698C130.8 62.0263 135.5 65.3484 140.602 68.3825C144.477 66.1742 148.333 63.5433 152.341 60.6437C154.835 58.8386 156.485 57.0527 157.444 53.8651H157.463Z" fill="black"/>
<path d="M167.429 124.301C206.216 124.301 238.919 150.346 249.004 185.902C259.131 182.742 269.9 181.04 281.066 181.04C340.444 181.04 388.579 229.175 388.579 288.552V327.399H173.554V327.398H82.6435V209.086C82.6435 162.261 120.603 124.301 167.429 124.301Z" fill="url(#paint1_linear_87_155)"/>
<path d="M37.6724 193.933C87.7915 193.933 128.421 234.563 128.421 284.682V327.075H-50.6618V303.218H-53.0769V284.682C-53.0769 234.563 -12.4469 193.933 37.6724 193.933Z" fill="url(#paint2_linear_87_155)"/>
<path d="M197.58 138.489C197.159 131.344 199.516 130.657 205.992 130.37C221.033 129.816 253.873 126.932 269.316 122.118C285.047 117.304 286.982 114.419 287.384 105.88C287.806 95.6976 285.449 94.7424 278.417 94.0547C270.006 93.367 257.035 93.2333 243.795 93.921C226.551 94.6087 204.746 95.4302 194.687 96.1179C186.41 96.8056 184.896 95.1627 184.896 87.5978L184.341 77.282C184.341 71.2262 184.073 69.0293 193.308 68.3416C212.2 66.9661 228.62 66.9661 247.531 66.9661C256.364 66.9661 272.363 67.9213 277.747 68.8956C288.515 70.6913 295.949 76.1931 295.949 97.7799C295.949 108.363 296.083 112.222 295.259 123.226C294.014 138.489 289.473 146.054 269.738 151.155C252.072 155.701 229.865 157.21 209.172 157.612C200.071 157.745 198.27 156.924 198.002 149.493L197.58 138.489ZM207.103 55.6761C201.029 55.6761 200.761 53.4792 200.761 49.4866V35.7321C200.761 31.3384 201.719 29.2752 207.103 29.4089C226.551 29.9629 263.108 33.115 280.506 35.5984C285.602 36.1524 286.714 37.929 286.714 41.7879V56.0963C286.714 61.0441 284.644 62.2858 280.506 62.2858C261.748 59.4012 230.019 56.2301 207.103 55.6761Z" fill="black"/>
<path d="M50.9208 301.758C43.3589 301.758 39.5145 297.034 39.5145 290.553V268.329C39.5145 262.26 43.4182 257.48 51.1579 257.48H79.0852C81.7103 257.48 81.9474 257.95 81.9474 260.283V266.522C81.9474 268.329 81.6426 269.09 78.7127 269.09H48.7107C44.6291 269.09 43.6468 270.435 43.6468 273.579V285.594C43.6468 289.151 44.8662 290.148 48.9478 290.148H78.7042C81.5071 290.148 81.9389 290.909 81.9389 293.121V298.72C81.9389 301.231 81.6341 301.75 78.7042 301.75H50.9039L50.9208 301.758Z" fill="black"/>
<path d="M95.351 286.299C95.351 288.81 95.8754 289.666 98.7797 289.666H125.911C128.702 289.666 128.993 291.092 128.993 292.859V298.62C128.993 300.902 128.412 301.758 125.911 301.758H100.99C93.8988 301.758 91.172 299.246 91.172 293.66V259.762C91.172 258.106 91.4624 257.48 93.2615 257.48C94.9476 257.48 95.351 257.94 95.351 259.532V286.291V286.299Z" fill="black"/>
<path d="M140.985 292.614V266.454C140.985 260.393 144.503 257.48 150.896 257.48H175.995C181.858 257.48 185.262 259.697 185.262 266.454V292.436C185.262 298.554 182.274 301.758 175.294 301.758H150.317C143.924 301.758 140.993 299.136 140.993 292.614H140.985ZM177.754 269.189H148.55C145.912 269.189 145.032 270.297 145.032 272.336V287.023C145.032 289.24 145.732 289.879 148.078 289.879H177.868C179.863 289.879 181.207 289.005 181.207 286.732V271.932C181.207 270.241 180.384 269.253 177.746 269.197L177.754 269.189Z" fill="black"/>
<path d="M236.92 290.617C236.92 298.711 233.475 301.758 225.523 301.758H205.225C197.272 301.758 194.487 299.23 194.487 291.135V259.49C194.487 257.998 194.899 257.48 196.506 257.48C197.932 257.48 198.525 257.879 198.525 259.49V284.587C198.525 288.663 200.008 289.699 203.33 289.699H227.781C231.102 289.699 232.824 287.746 232.824 283.957V259.49C232.824 257.943 233.236 257.48 234.901 257.48C236.442 257.48 236.92 257.943 236.92 259.49V290.617Z" fill="black"/>
<path d="M244.3 295.932V263.832C244.3 259.115 246.175 257.48 251.167 257.48H274.362C284.108 257.48 288.577 262.141 288.577 271.754V287.193C288.577 298.554 283.407 301.758 273.367 301.758H250.58C245.645 301.758 244.3 299.953 244.3 295.932ZM278.774 269.189H250.172C248.524 269.189 248.296 269.885 248.296 271.341V287.945C248.296 289.402 248.769 289.871 250.408 289.871H278.888C283.178 289.871 284.589 288.997 284.589 284.045V274.893C284.589 270.637 283.529 269.245 278.774 269.181V269.189Z" fill="black"/>
</g>
<defs>
<filter id="filter0_d_87_155" x="0" y="0" width="335.241" height="335.241" filterUnits="userSpaceOnUse" color-interpolation-filters="sRGB">
<feFlood flood-opacity="0" result="BackgroundImageFix"/>
<feColorMatrix in="SourceAlpha" type="matrix" values="0 0 0 0 0 0 0 0 0 0 0 0 0 0 0 0 0 0 127 0" result="hardAlpha"/>
<feOffset dy="4"/>
<feGaussianBlur stdDeviation="2"/>
<feComposite in2="hardAlpha" operator="out"/>
<feColorMatrix type="matrix" values="0 0 0 0 0 0 0 0 0 0 0 0 0 0 0 0 0 0 0.25 0"/>
<feBlend mode="normal" in2="BackgroundImageFix" result="effect1_dropShadow_87_155"/>
<feBlend mode="normal" in="SourceGraphic" in2="effect1_dropShadow_87_155" result="shape"/>
</filter>
<linearGradient id="paint0_linear_87_155" x1="181.573" y1="-471.201" x2="181.572" y2="242.26" gradientUnits="userSpaceOnUse">
<stop stop-color="#999999"/>
<stop offset="1" stop-color="white"/>
</linearGradient>
<linearGradient id="paint1_linear_87_155" x1="167.429" y1="124.301" x2="167.429" y2="327.399" gradientUnits="userSpaceOnUse">
<stop stop-color="#63CEFF"/>
<stop offset="1" stop-color="white"/>
</linearGradient>
<linearGradient id="paint2_linear_87_155" x1="37.6719" y1="193.933" x2="37.6719" y2="303.219" gradientUnits="userSpaceOnUse">
<stop stop-color="#63CEFF"/>
<stop offset="1" stop-color="white"/>
</linearGradient>
</defs>
</svg>
