<svg width="157" height="55" viewBox="0 0 157 55" fill="none" xmlns="http://www.w3.org/2000/svg">
<rect x="1" y="1" width="154.49" height="52.83" rx="16" fill="black"/>
<rect x="1" y="1" width="154.49" height="52.83" rx="16" stroke="#A6A6A6" stroke-width="2"/>
<path d="M33.3932 28.3851C33.4087 27.2161 33.7267 26.0699 34.3178 25.0532C34.9088 24.0365 35.7537 23.1822 36.7738 22.57C36.1258 21.6664 35.2709 20.9228 34.277 20.3982C33.2831 19.8737 32.1776 19.5826 31.0484 19.5481C28.6394 19.3012 26.3041 20.9554 25.0765 20.9554C23.8252 20.9554 21.9352 19.5726 19.9 19.6135C18.5836 19.655 17.3006 20.0287 16.1761 20.6983C15.0516 21.3678 14.1239 22.3103 13.4834 23.4339C10.7091 28.1235 12.7785 35.0156 15.4361 38.8063C16.7658 40.6625 18.3198 42.7359 20.3532 42.6624C22.343 42.5818 23.0861 41.4237 25.4879 41.4237C27.8675 41.4237 28.5647 42.6624 30.6394 42.6157C32.7745 42.5818 34.1197 40.7512 35.4028 38.8774C36.3581 37.5548 37.0933 36.0931 37.581 34.5463C36.3405 34.0341 35.282 33.1767 34.5373 32.081C33.7926 30.9854 33.3947 29.7 33.3932 28.3851Z" fill="white"/>
<path d="M29.4746 17.0548C30.6388 15.6903 31.2124 13.9366 31.0735 12.166C29.2949 12.3484 27.652 13.1783 26.4721 14.4904C25.8952 15.1313 25.4534 15.877 25.1719 16.6848C24.8903 17.4926 24.7747 18.3466 24.8314 19.1981C25.721 19.207 26.6011 19.0188 27.4054 18.6475C28.2097 18.2763 28.9172 17.7317 29.4746 17.0548Z" fill="white"/>
<path d="M133.847 20.1564C132.238 20.1564 131.239 19.168 131.239 17.5039V16.7053C131.239 15.03 132.333 14.0527 133.774 14.0527C135.254 14.0527 136.298 15.0803 136.298 16.7053V17.3978H132.467V17.6881C132.467 18.537 132.97 19.1624 133.841 19.1624C134.489 19.1624 134.935 18.8553 135.019 18.4867H136.231C136.158 19.168 135.438 20.1564 133.847 20.1564ZM132.467 16.588H135.086V16.5098C135.086 15.6219 134.567 15.03 133.779 15.03C132.992 15.03 132.467 15.6219 132.467 16.5098V16.588Z" fill="white"/>
<path d="M124.627 20.056V12.0312H125.861V15.2143H125.922C126.051 14.7955 126.531 14.064 127.715 14.064C128.865 14.064 129.686 14.7285 129.686 16.0743V20.056H128.452V16.4373C128.452 15.5382 127.955 15.1194 127.251 15.1194C126.364 15.1194 125.861 15.8174 125.861 16.7779V20.056H124.627Z" fill="white"/>
<path d="M120.528 14.1925V12.7183H121.74V14.1925H123.063V15.1642H121.74V18.297C121.74 18.9392 121.98 19.1179 122.644 19.1179C122.812 19.1179 123.035 19.1068 123.13 19.0956V20.0449C123.03 20.0617 122.616 20.0952 122.337 20.0952C120.902 20.0952 120.511 19.5814 120.511 18.3975V15.1642H119.612V14.1925H120.528Z" fill="white"/>
<path d="M110.688 20.056V14.1533H111.906V15.2143H111.967C112.118 14.7508 112.548 14.064 113.743 14.064C114.932 14.064 115.731 14.7229 115.731 16.0687V20.056H114.491V16.4317C114.491 15.5326 114.022 15.1194 113.324 15.1194C112.408 15.1194 111.928 15.823 111.928 16.778V20.056H110.688Z" fill="white"/>
<path d="M106.472 14.0527C108.013 14.0527 109.091 15.0523 109.091 16.7109V17.4759C109.091 19.1903 108.013 20.1564 106.472 20.1564C104.908 20.1564 103.842 19.2015 103.842 17.4815V16.7165C103.842 15.1026 104.925 14.0527 106.472 14.0527ZM106.478 15.0523C105.595 15.0523 105.093 15.7895 105.093 16.7779V17.4369C105.093 18.4253 105.562 19.1568 106.478 19.1568C107.382 19.1568 107.846 18.4309 107.846 17.4369V16.7779C107.846 15.7895 107.36 15.0523 106.478 15.0523Z" fill="white"/>
<path d="M96.6659 14.0751C97.498 14.0751 98.1346 14.4437 98.3635 15.0412H98.425V12.0312H99.6647V20.056H98.4585V19.1122H98.397C98.2184 19.7097 97.5091 20.1341 96.6491 20.1341C95.2921 20.1341 94.4098 19.168 94.4098 17.61V16.5992C94.4098 15.0412 95.3089 14.0751 96.6659 14.0751ZM97.0121 15.0915C96.1856 15.0915 95.6719 15.7058 95.6719 16.7779V17.4257C95.6719 18.5035 96.1912 19.1178 97.0401 19.1178C97.8777 19.1178 98.425 18.5091 98.425 17.5039V16.6104C98.425 15.7002 97.8274 15.0915 97.0121 15.0915Z" fill="white"/>
<path d="M89.9647 20.1453C88.8199 20.1453 88.0325 19.4417 88.0325 18.3416C88.0325 17.2973 88.7585 16.5937 90.1211 16.5937H91.6121V16.0408C91.6121 15.3651 91.1821 15.0468 90.5008 15.0468C89.8307 15.0468 89.5291 15.326 89.4342 15.7169H88.2559C88.3285 14.7285 89.0712 14.064 90.5399 14.064C91.802 14.064 92.8462 14.5889 92.8462 16.0576V20.056H91.6679V19.2909H91.6121C91.3496 19.7432 90.8359 20.1453 89.9647 20.1453ZM90.35 19.1848C91.0537 19.1848 91.6121 18.7046 91.6121 18.0624V17.4257H90.3165C89.5962 17.4257 89.2778 17.7887 89.2778 18.2801C89.2778 18.8944 89.7916 19.1848 90.35 19.1848Z" fill="white"/>
<path d="M84.1346 14.0527C85.6759 14.0527 86.7537 15.0523 86.7537 16.7109V17.4759C86.7537 19.1903 85.6759 20.1564 84.1346 20.1564C82.571 20.1564 81.5044 19.2015 81.5044 17.4815V16.7165C81.5044 15.1026 82.5878 14.0527 84.1346 14.0527ZM84.1402 15.0523C83.2579 15.0523 82.7553 15.7895 82.7553 16.7779V17.4369C82.7553 18.4253 83.2244 19.1568 84.1402 19.1568C85.0449 19.1568 85.5084 18.4309 85.5084 17.4369V16.7779C85.5084 15.7895 85.0225 15.0523 84.1402 15.0523Z" fill="white"/>
<path d="M78.6396 20.056V12.0312H79.8794V20.056H78.6396Z" fill="white"/>
<path d="M71.7206 20.056V14.1533H72.938V15.2143H72.9994C73.1502 14.7508 73.5802 14.064 74.7753 14.064C75.9647 14.064 76.7633 14.7229 76.7633 16.0687V20.056H75.5236V16.4317C75.5236 15.5326 75.0545 15.1194 74.3564 15.1194C73.4406 15.1194 72.9603 15.823 72.9603 16.778V20.056H71.7206Z" fill="white"/>
<path d="M70.492 14.1533L68.9396 20.056H67.6775L66.4434 15.7002H66.4099L65.1981 20.056H63.9304L62.311 14.1533H63.6456L64.595 18.6543H64.6508L65.8403 14.1533H67.0074L68.2304 18.6543H68.2862L69.2523 14.1533H70.492Z" fill="white"/>
<path d="M58.7705 14.0527C60.3118 14.0527 61.3896 15.0523 61.3896 16.7109V17.4759C61.3896 19.1903 60.3118 20.1564 58.7705 20.1564C57.2069 20.1564 56.1403 19.2015 56.1403 17.4815V16.7165C56.1403 15.1026 57.2237 14.0527 58.7705 14.0527ZM58.7761 15.0523C57.8938 15.0523 57.3912 15.7895 57.3912 16.7779V17.4369C57.3912 18.4253 57.8603 19.1568 58.7761 19.1568C59.6808 19.1568 60.1443 18.4309 60.1443 17.4369V16.7779C60.1443 15.7895 59.6584 15.0523 58.7761 15.0523Z" fill="white"/>
<path d="M48.7522 12.4331H51.3824C53.6552 12.4331 54.7609 13.7845 54.7609 16.236C54.7609 18.6876 53.6441 20.0557 51.3824 20.0557H48.7522V12.4331ZM50.0198 13.4997V18.9891H51.2428C52.7506 18.9891 53.4598 18.0789 53.4598 16.2528C53.4598 14.4155 52.745 13.4997 51.2428 13.4997H50.0198Z" fill="white"/>
<path d="M136.373 41.4882C133.212 41.4882 131.202 39.3996 131.202 35.9038V34.7088C131.202 31.414 133.167 29.2808 136.272 29.2808C139.422 29.2808 141.321 31.4922 141.321 34.8204V35.9485H133.648V36.2277C133.648 38.2157 134.72 39.5336 136.406 39.5336C137.668 39.5336 138.528 38.9082 138.83 37.8918H141.187C140.829 39.8017 139.288 41.4882 136.373 41.4882ZM133.648 34.2173H138.897V34.195C138.897 32.5197 137.858 31.2018 136.283 31.2018C134.686 31.2018 133.648 32.5197 133.648 34.195V34.2173Z" fill="white"/>
<path d="M124.126 41.2868V29.4815H126.606V31.0339H126.695C126.996 30.2968 127.879 29.314 129.521 29.314C129.844 29.314 130.124 29.3363 130.358 29.381V31.57C130.146 31.5142 129.71 31.4807 129.297 31.4807C127.309 31.4807 126.639 32.7093 126.639 34.2952V41.2868H124.126Z" fill="white"/>
<path d="M116.794 29.2808C120.189 29.2808 122.032 31.6709 122.032 34.8874V35.8368C122.032 39.1651 120.2 41.4882 116.794 41.4882C113.387 41.4882 111.533 39.1651 111.533 35.8368V34.8874C111.533 31.682 113.398 29.2808 116.794 29.2808ZM116.794 31.2688C114.951 31.2688 114.035 32.7766 114.035 34.921V35.8256C114.035 37.9365 114.94 39.489 116.794 39.489C118.648 39.489 119.541 37.9477 119.541 35.8256V34.921C119.541 32.7654 118.636 31.2688 116.794 31.2688Z" fill="white"/>
<path d="M105.362 29.4817V26.6113H107.797V29.4817H110.098V31.4697H107.797V37.7689C107.797 39.0533 108.277 39.4107 109.606 39.4107C109.818 39.4107 110.019 39.4107 110.165 39.3883V41.287C109.964 41.3205 109.495 41.3652 108.992 41.3652C106.122 41.3652 105.329 40.3377 105.329 37.9699V31.4697H103.698V29.4817H105.362Z" fill="white"/>
<path d="M90.7476 37.0539H93.2271C93.3388 38.3719 94.5003 39.4999 96.6559 39.4999C98.6327 39.4999 99.8054 38.5729 99.8054 37.1321C99.8054 35.9706 99.0236 35.3451 97.393 34.9542L94.8912 34.3288C92.9255 33.8709 91.1609 32.6982 91.1609 30.2187C91.1609 27.3037 93.7073 25.7065 96.667 25.7065C99.6267 25.7065 102.095 27.3037 102.151 30.1517H99.7161C99.6044 28.8561 98.6104 27.7839 96.6335 27.7839C94.8912 27.7839 93.7073 28.6104 93.7073 30.0288C93.7073 31.0228 94.3998 31.7376 95.8182 32.0615L98.3088 32.6758C100.598 33.2342 102.341 34.3176 102.341 36.9088C102.341 39.902 99.9171 41.5884 96.466 41.5884C92.2219 41.5884 90.8035 39.109 90.7476 37.0539Z" fill="white"/>
<path d="M81.0191 41.4549C79.489 41.4549 78.3275 40.7289 77.702 39.6456H77.6127V45.2076H75.1332V29.482H77.5456V31.2132H77.635C78.2828 30.0852 79.489 29.3257 81.075 29.3257C83.7219 29.3257 85.6095 31.3249 85.6095 34.8542V35.904C85.6095 39.411 83.7443 41.4549 81.0191 41.4549ZM80.4495 39.411C82.0243 39.411 83.0965 38.149 83.0965 35.77V34.9435C83.0965 32.654 82.0913 31.3472 80.4048 31.3472C78.6737 31.3472 77.5903 32.7545 77.5903 34.9324V35.77C77.5903 38.0038 78.6849 39.411 80.4495 39.411Z" fill="white"/>
<path d="M68.415 41.4549C66.8848 41.4549 65.7233 40.7289 65.0979 39.6456H65.0085V45.2076H62.5291V29.482H64.9415V31.2132H65.0308C65.6786 30.0852 66.8848 29.3257 68.4708 29.3257C71.1178 29.3257 73.0053 31.3249 73.0053 34.8542V35.904C73.0053 39.411 71.1401 41.4549 68.415 41.4549ZM67.8454 39.411C69.4201 39.411 70.4923 38.149 70.4923 35.77V34.9435C70.4923 32.654 69.4872 31.3472 67.8007 31.3472C66.0695 31.3472 64.9862 32.7545 64.9862 34.9324V35.77C64.9862 38.0038 66.0807 39.411 67.8454 39.411Z" fill="white"/>
<path d="M50.5503 41.2873H47.9704L53.2197 26.042H56.0565L61.2946 41.2873H58.6141L57.2627 37.0655H51.9129L50.5503 41.2873ZM54.6493 28.6778H54.5487L52.4825 35.1221H56.6931L54.6493 28.6778Z" fill="white"/>
</svg>
