<svg width="249" height="207" viewBox="0 0 249 207" fill="none" xmlns="http://www.w3.org/2000/svg">
<rect x="38.2421" y="21.8527" width="173.264" height="145.168" rx="10" fill="#8EC569"/>
<rect x="106.548" y="36.1219" width="97.8477" height="115.286" rx="5" transform="rotate(7.87578 106.548 36.1219)" fill="#B5B5B5"/>
<rect x="106.028" y="35.6763" width="97.8477" height="115.286" rx="5" transform="rotate(7.87578 106.028 35.6763)" fill="#B5B5B5"/>
<rect x="106.172" y="36.0588" width="97.8477" height="115.286" rx="5" transform="rotate(7.87578 106.172 36.0588)" fill="#F5F5F5"/>
<rect x="132.047" y="46.9731" width="43.5955" height="3.87516" rx="1.93758" transform="rotate(7.87578 132.047 46.9731)" fill="#D9D9D9"/>
<rect x="110.551" y="50.3572" width="85.7378" height="3.87516" rx="1.93758" transform="rotate(7.87578 110.551 50.3572)" fill="#D9D9D9"/>
<rect x="103.117" y="104.097" width="85.7378" height="3.87516" rx="1.93758" transform="rotate(7.87578 103.117 104.097)" fill="#D9D9D9"/>
<rect x="107.962" y="69.0702" width="85.7378" height="3.87516" rx="1.93758" transform="rotate(7.87578 107.962 69.0702)" fill="#D9D9D9"/>
<rect x="109.688" y="56.595" width="85.7378" height="3.87516" rx="1.93758" transform="rotate(7.87578 109.688 56.595)" fill="#D9D9D9"/>
<rect x="102.254" y="110.335" width="85.7378" height="3.87516" rx="1.93758" transform="rotate(7.87578 102.254 110.335)" fill="#D9D9D9"/>
<rect x="107.1" y="75.3076" width="64.4245" height="3.87516" rx="1.93758" transform="rotate(7.87578 107.1 75.3076)" fill="#D9D9D9"/>
<rect x="108.825" y="62.8326" width="43.5955" height="3.87516" rx="1.93758" transform="rotate(7.87578 108.825 62.8326)" fill="#D9D9D9"/>
<rect x="101.391" y="116.573" width="43.5955" height="3.87516" rx="1.93758" transform="rotate(7.87578 101.391 116.573)" fill="#D9D9D9"/>
<rect x="141.41" y="134.823" width="43.5955" height="3.87516" rx="1.93758" transform="rotate(7.87578 141.41 134.823)" fill="#D9D9D9"/>
<rect x="140.548" y="141.06" width="43.5955" height="3.87516" rx="1.93758" transform="rotate(7.87578 140.548 141.06)" fill="#D9D9D9"/>
<rect x="160.317" y="150.153" width="22.7665" height="3.87516" rx="1.93758" transform="rotate(7.87578 160.317 150.153)" fill="#D9D9D9"/>
<rect x="105.374" y="87.7834" width="43.5955" height="3.87516" rx="1.93758" transform="rotate(7.87578 105.374 87.7834)" fill="#D9D9D9"/>
<rect x="106.237" y="81.5455" width="85.7378" height="3.87516" rx="1.93758" transform="rotate(7.87578 106.237 81.5455)" fill="#D9D9D9"/>
<rect x="74.6499" y="36.1573" width="97.8477" height="115.286" rx="5" transform="rotate(-2.59781 74.6499 36.1573)" fill="#B5B5B5"/>
<rect x="74.0574" y="35.8136" width="97.8477" height="115.286" rx="5" transform="rotate(-2.59781 74.0574 35.8136)" fill="#B5B5B5"/>
<rect x="74.2686" y="36.1636" width="97.8477" height="115.286" rx="5" transform="rotate(-2.59781 74.2686 36.1636)" fill="#F5F5F5"/>
<rect x="101.696" y="42.1927" width="43.5955" height="3.87516" rx="1.93758" transform="rotate(-2.59781 101.696 42.1927)" fill="#D9D9D9"/>
<rect x="81.1737" y="49.4277" width="85.7378" height="3.87516" rx="1.93758" transform="rotate(-2.59781 81.1737 49.4277)" fill="#D9D9D9"/>
<rect x="83.6328" y="103.624" width="85.7378" height="3.87516" rx="1.93758" transform="rotate(-2.59781 83.6328 103.624)" fill="#D9D9D9"/>
<rect x="82.03" y="68.2996" width="85.7378" height="3.87516" rx="1.93758" transform="rotate(-2.59781 82.03 68.2996)" fill="#D9D9D9"/>
<rect x="81.4592" y="55.7183" width="85.7378" height="3.87516" rx="1.93758" transform="rotate(-2.59781 81.4592 55.7183)" fill="#D9D9D9"/>
<rect x="83.9181" y="109.915" width="85.7378" height="3.87516" rx="1.93758" transform="rotate(-2.59781 83.9181 109.915)" fill="#D9D9D9"/>
<rect x="82.3154" y="74.5896" width="64.4245" height="3.87516" rx="1.93758" transform="rotate(-2.59781 82.3154 74.5896)" fill="#D9D9D9"/>
<rect x="81.7446" y="62.0089" width="43.5955" height="3.87516" rx="1.93758" transform="rotate(-2.59781 81.7446 62.0089)" fill="#D9D9D9"/>
<rect x="84.2035" y="116.205" width="43.5955" height="3.87516" rx="1.93758" transform="rotate(-2.59781 84.2035 116.205)" fill="#D9D9D9"/>
<rect x="126.873" y="126.876" width="43.5955" height="3.87516" rx="1.93758" transform="rotate(-2.59781 126.873 126.876)" fill="#D9D9D9"/>
<rect x="127.159" y="133.167" width="43.5955" height="3.87516" rx="1.93758" transform="rotate(-2.59781 127.159 133.167)" fill="#D9D9D9"/>
<rect x="148.252" y="138.514" width="22.7665" height="3.87516" rx="1.93758" transform="rotate(-2.59781 148.252 138.514)" fill="#D9D9D9"/>
<rect x="82.8862" y="87.1714" width="43.5955" height="3.87516" rx="1.93758" transform="rotate(-2.59781 82.8862 87.1714)" fill="#D9D9D9"/>
<rect x="82.6008" y="80.8807" width="85.7378" height="3.87516" rx="1.93758" transform="rotate(-2.59781 82.6008 80.8807)" fill="#D9D9D9"/>
<rect x="48.9437" y="38.6292" width="97.8477" height="115.286" rx="5" transform="rotate(-11.2411 48.9437 38.6292)" fill="#B5B5B5"/>
<rect x="48.3064" y="38.3784" width="97.8477" height="115.286" rx="5" transform="rotate(-11.2411 48.3064 38.3784)" fill="#B5B5B5"/>
<rect x="48.5676" y="38.6926" width="97.8477" height="115.286" rx="5" transform="rotate(-11.2411 48.5676 38.6926)" fill="#F5F5F5"/>
<rect x="76.5897" y="40.5312" width="43.5955" height="3.87516" rx="1.93758" transform="rotate(-11.2411 76.5897 40.5312)" fill="#D9D9D9"/>
<rect x="57.3879" y="50.7684" width="85.7378" height="3.87516" rx="1.93758" transform="rotate(-11.2411 57.3879 50.7684)" fill="#D9D9D9"/>
<rect x="67.9637" y="103.979" width="85.7378" height="3.87516" rx="1.93758" transform="rotate(-11.2411 67.9637 103.979)" fill="#D9D9D9"/>
<rect x="61.0706" y="69.297" width="85.7378" height="3.87516" rx="1.93758" transform="rotate(-11.2411 61.0706 69.297)" fill="#D9D9D9"/>
<rect x="58.6156" y="56.9446" width="85.7378" height="3.87516" rx="1.93758" transform="rotate(-11.2411 58.6156 56.9446)" fill="#D9D9D9"/>
<rect x="69.1913" y="110.156" width="85.7378" height="3.87516" rx="1.93758" transform="rotate(-11.2411 69.1913 110.156)" fill="#D9D9D9"/>
<rect x="62.2981" y="75.4731" width="64.4245" height="3.87516" rx="1.93758" transform="rotate(-11.2411 62.2981 75.4731)" fill="#D9D9D9"/>
<rect x="59.843" y="63.1207" width="43.5955" height="3.87516" rx="1.93758" transform="rotate(-11.2411 59.843 63.1207)" fill="#D9D9D9"/>
<rect x="70.4188" y="116.332" width="43.5955" height="3.87516" rx="1.93758" transform="rotate(-11.2411 70.4188 116.332)" fill="#D9D9D9"/>
<rect x="114.208" y="120.469" width="43.5955" height="3.87516" rx="1.93758" transform="rotate(-11.2411 114.208 120.469)" fill="#D9D9D9"/>
<rect x="115.435" y="126.646" width="43.5955" height="3.87516" rx="1.93758" transform="rotate(-11.2411 115.435 126.646)" fill="#D9D9D9"/>
<rect x="137.092" y="128.762" width="22.7665" height="3.87516" rx="1.93758" transform="rotate(-11.2411 137.092 128.762)" fill="#D9D9D9"/>
<rect x="64.7533" y="87.8259" width="43.5955" height="3.87516" rx="1.93758" transform="rotate(-11.2411 64.7533 87.8259)" fill="#D9D9D9"/>
<rect x="63.5256" y="81.6497" width="85.7378" height="3.87516" rx="1.93758" transform="rotate(-11.2411 63.5256 81.6497)" fill="#D9D9D9"/>
<path d="M63.349 41.8986C63.8878 41.7886 64.4012 42.1533 64.4406 42.6964C64.5564 45.1631 63.9659 47.5698 62.7227 49.5791C62.5609 49.8367 62.216 49.8969 61.9662 49.7233C61.7165 49.5498 61.6563 49.2049 61.818 48.9473C62.8761 47.231 63.3682 45.2423 63.3543 43.2243C63.3519 43.1126 63.2555 43.0404 63.1477 43.0624L60.081 43.6885C59.9536 43.7145 59.8598 43.8051 59.823 43.9249L58.8487 47.451C58.7655 47.7436 58.4642 47.9174 58.1717 47.8342C57.8791 47.7511 57.7053 47.4497 57.7885 47.1572L58.7358 43.7488C58.9021 43.1637 59.3808 42.7087 59.9785 42.5867L63.349 41.8986ZM72.6663 47.2428C72.2318 47.4642 71.6953 47.1859 71.6267 46.6998L70.6718 40.3729C70.6294 40.0652 70.8381 39.7878 71.136 39.7474C71.4418 39.6952 71.7191 39.9039 71.7595 40.2019L72.6136 45.8349C72.6316 45.9231 72.726 45.9854 72.818 45.9361L76.987 43.8601C77.2649 43.7217 77.5929 43.8283 77.7313 44.1062C77.8676 44.3744 77.7513 44.7043 77.4832 44.8407L72.6663 47.2428ZM84.8347 45.1055C84.614 45.3241 84.2648 45.3137 84.0581 45.1007C83.8415 44.8898 83.8421 44.5427 84.0628 44.3241L89.052 39.4169C89.265 39.2101 89.6101 39.2009 89.8287 39.4216C90.0354 39.6346 90.0369 39.9915 89.8239 40.1983L84.8347 45.1055ZM81.7558 40.7228C81.7978 40.4285 82.0695 40.2097 82.3716 40.2398L84.3572 40.4672C84.6614 40.5072 84.8802 40.7789 84.848 41.0713C84.808 41.3754 84.5363 41.5942 84.2342 41.564L82.2485 41.3366C81.9444 41.2967 81.7256 41.0249 81.7558 40.7228ZM81.5638 38.3329C81.594 38.0307 81.8657 37.812 82.1679 37.8421L84.3419 38.0923C84.6342 38.1245 84.853 38.3962 84.8228 38.6984C84.7828 39.0025 84.5091 39.2115 84.2168 39.1793L82.0448 38.9389C81.7426 38.9088 81.5219 38.6272 81.5638 38.3329ZM86.7797 36.6352C86.7105 36.4963 86.7686 36.3313 86.9076 36.2621C87.0466 36.1929 87.2115 36.2511 87.2807 36.39L87.7691 37.3824C87.8383 37.5214 87.7899 37.6843 87.651 37.7535C87.512 37.8227 87.347 37.7645 87.2798 37.6354L86.7797 36.6352ZM87.5565 36.1908C87.4873 36.0519 87.5454 35.8869 87.6844 35.8177C87.8136 35.7505 87.9786 35.8087 88.0478 35.9477L88.5479 36.9478C88.6151 37.077 88.557 37.242 88.4278 37.3092C88.2888 37.3784 88.1238 37.3202 88.0566 37.191L87.5565 36.1908ZM98.7471 42.112C98.4955 41.9796 98.4159 41.6897 98.5189 41.4441C99.2364 39.9096 99.6208 37.943 99.7176 36.1677C99.744 35.897 99.955 35.6804 100.229 35.6754C100.496 35.6821 100.705 35.9049 100.708 36.1696C100.598 38.1822 100.158 40.2726 99.3876 41.8996C99.2728 42.1373 98.9771 42.2385 98.7471 42.112ZM94.4318 38.0225C94.2819 37.7878 94.363 37.4855 94.588 37.3375C94.8129 37.1895 95.123 37.2588 95.271 37.4838L96.0408 38.7045C96.1888 38.9294 96.1096 39.2416 95.8945 39.3876C95.6577 39.5277 95.3456 39.4486 95.2094 39.2314L94.4318 38.0225ZM95.9025 37.4773C95.7525 37.2426 95.8337 36.9403 96.0488 36.7943C96.2856 36.6541 96.5957 36.7234 96.7319 36.9406L97.5252 38.1769C97.6752 38.4116 97.5941 38.714 97.3691 38.8619C97.1442 39.0099 96.834 38.9406 96.684 38.7058L95.9025 37.4773ZM108.493 40.255C108.187 40.3072 107.91 40.0985 107.869 39.8005L107.188 35.2651C107.176 35.1553 107.07 35.0851 106.962 35.1071L106.403 35.2212C106.109 35.2812 105.815 35.0862 105.755 34.7923C105.693 34.4886 105.889 34.2034 106.183 34.1434L106.791 34.0194C106.908 33.9954 106.969 33.8912 106.957 33.7814L106.821 32.819C106.781 32.5211 106.978 32.2359 107.276 32.1955C107.584 32.1531 107.849 32.354 107.901 32.6598L108.044 33.5594C108.066 33.6671 108.163 33.7393 108.27 33.7173L112.944 32.7631C113.434 32.6631 113.863 33.0654 113.81 33.5559L113.227 38.7475C113.172 39.2282 112.657 39.5068 112.223 39.2791L110.808 38.5474C110.544 38.4072 110.435 38.0723 110.573 37.7991C110.714 37.5358 111.048 37.4266 111.312 37.5667L112.019 37.9326C112.11 37.9754 112.211 37.924 112.223 37.8298L112.643 34.1411C112.653 34.0371 112.566 33.9629 112.468 33.9829L108.432 34.8071C108.324 34.8291 108.254 34.9353 108.266 35.0451L108.947 39.6315C108.989 39.9392 108.791 40.2146 108.493 40.255ZM119.33 34.7968C119.038 34.8667 118.737 34.6933 118.658 34.4034C118.586 34.1016 118.761 33.8107 119.051 33.7311L125.352 32.0977C125.642 32.0181 125.944 32.2012 126.024 32.4912C126.094 32.7831 125.92 33.0839 125.63 33.1635L119.33 34.7968ZM137.418 27.5623C137.279 27.6315 137.114 27.5733 137.047 27.4441L136.547 26.444C136.478 26.305 136.536 26.14 136.675 26.0708C136.804 26.0036 136.969 26.0618 137.038 26.2008L137.538 27.2009C137.606 27.3301 137.547 27.4951 137.418 27.5623ZM132.857 34.6172L132.168 27.5421C132.137 27.2422 132.368 26.9706 132.668 26.94C132.968 26.9094 133.239 27.1397 133.27 27.4396L133.959 34.5148C133.99 34.8147 133.759 35.0863 133.459 35.1169C133.159 35.1475 132.888 34.9172 132.857 34.6172ZM134.094 30.027C134.22 29.7461 134.544 29.6291 134.825 29.7554L138.2 31.2913C138.471 31.4196 138.598 31.7407 138.47 32.0119C138.343 32.2929 138.012 32.4217 137.741 32.2933L134.366 30.7575C134.095 30.6291 133.966 30.2982 134.094 30.027ZM135.77 26.8883C135.701 26.7494 135.759 26.5844 135.898 26.5152C136.037 26.446 136.202 26.5042 136.271 26.6431L136.76 27.6355C136.829 27.7745 136.78 27.9374 136.641 28.0066C136.502 28.0758 136.337 28.0177 136.27 27.8885L135.77 26.8883ZM86.7247 57.2121C86.5117 57.4189 86.1744 57.4163 85.9794 57.2112C85.7727 56.9982 85.7752 56.6609 85.9784 56.4561L87.4162 55.0501C87.4592 55.0107 87.4138 54.9383 87.3648 54.9483L84.8075 55.4704C84.5234 55.5284 84.252 55.3491 84.194 55.0649C84.136 54.7808 84.3154 54.5094 84.5995 54.4514L87.823 53.7933C87.9014 53.7773 87.956 53.6947 87.94 53.6163L87.904 53.44C87.8439 53.146 88.0311 52.8629 88.325 52.8029C88.619 52.7429 88.9021 52.93 88.9621 53.2239L88.9981 53.4003C89.0141 53.4787 89.0967 53.5333 89.1751 53.5173L92.3986 52.8591C92.6827 52.8011 92.9541 52.9805 93.0121 53.2646C93.0701 53.5487 92.8908 53.8201 92.6066 53.8781L90.0494 54.4002C90.0004 54.4102 89.987 54.4946 90.042 54.514L91.9159 55.2439C92.183 55.3527 92.3176 55.662 92.2207 55.9369C92.1119 56.2041 91.8026 56.3387 91.5256 56.2319L88.9957 55.2379C88.8837 55.1893 88.7465 55.2173 88.6625 55.3059L86.7247 57.2121ZM83.8232 53.5485C83.7378 53.2801 83.8817 52.9854 84.1521 52.9098L85.2528 52.5524C85.3586 52.5206 85.4288 52.4144 85.4048 52.2968L85.3367 51.9637C85.3147 51.8559 85.2086 51.7857 85.1008 51.8077L84.2876 51.9737C84.0034 52.0318 83.7419 51.8504 83.6858 51.5761C83.6298 51.3017 83.7994 51.0324 84.0835 50.9744L84.8967 50.8083C85.0045 50.7863 85.0747 50.6801 85.0527 50.5724L85.0467 50.543C85.0247 50.4352 84.9185 50.365 84.8107 50.387L83.8015 50.5931C83.5272 50.6491 83.2558 50.4697 83.1998 50.1954C83.1438 49.921 83.3232 49.6497 83.5975 49.5937L84.6067 49.3876C84.7145 49.3656 84.7846 49.2595 84.7626 49.1517L84.7466 49.0733C84.6886 48.7892 84.8758 48.506 85.1599 48.448C85.444 48.39 85.7272 48.5771 85.7852 48.8613L85.8012 48.9396C85.8232 49.0474 85.9294 49.1176 86.0372 49.0956L87.0464 48.8895C87.3207 48.8335 87.5921 49.0129 87.6481 49.2872C87.7041 49.5616 87.5247 49.8329 87.2504 49.8889L86.2412 50.095C86.1334 50.117 86.0633 50.2232 86.0853 50.3309L86.0913 50.3603C86.1133 50.4681 86.2195 50.5383 86.3272 50.5163L87.1503 50.3482C87.4246 50.2922 87.696 50.4716 87.752 50.7459C87.808 51.0203 87.6286 51.2916 87.3543 51.3476L86.5313 51.5157C86.4235 51.5377 86.3533 51.6439 86.3753 51.7516L86.4213 51.977C86.4433 52.0848 86.5475 52.1451 86.6533 52.1133L87.6209 51.8035C87.8892 51.7181 88.186 51.8719 88.2616 52.1422C88.347 52.4105 88.201 52.6955 87.9327 52.7809L84.4619 53.8774C84.1935 53.9628 83.9086 53.8168 83.8232 53.5485ZM87.6426 48.9107C87.5846 48.6266 87.7718 48.3434 88.0559 48.2854L90.8679 47.7113C91.397 47.6033 91.9103 47.968 91.9889 48.503L92.4765 51.741C92.5267 52.0369 92.318 52.3143 92.02 52.3547C91.7241 52.4049 91.4467 52.1961 91.3965 51.9002L90.9632 48.9778C90.9412 48.87 90.8448 48.7979 90.737 48.8199L90.1785 48.9339C90.061 48.9579 89.979 49.0563 89.9716 49.1701L89.7929 52.0439C89.7823 52.342 89.5224 52.5686 89.2242 52.558C88.9241 52.5377 88.6975 52.2777 88.7179 51.9776L88.8742 49.3941C88.8836 49.2901 88.797 49.2159 88.6991 49.2359L88.268 49.324C87.9838 49.382 87.7007 49.1948 87.6426 48.9107ZM104.822 53.6194C104.534 53.6578 104.27 53.4667 104.232 53.1785L103.42 47.8023C103.408 47.6925 103.301 47.6223 103.194 47.6443L100.813 48.1304C100.705 48.1524 100.613 48.2528 100.618 48.3744L100.613 49.304C100.611 49.5903 100.372 49.8227 100.086 49.8199C99.7997 49.8172 99.5673 49.5788 99.5701 49.2925L99.6004 46.0917C99.6012 45.7956 99.8318 45.575 100.116 45.568C100.402 45.5708 100.635 45.8091 100.632 46.0954L100.625 46.8623C100.628 46.9741 100.724 47.0462 100.822 47.0262L103.272 46.5262C103.81 46.4161 104.324 46.7808 104.402 47.3159L105.263 53.0293C105.299 53.3076 105.11 53.581 104.822 53.6194ZM96.6157 54.4681L96.6334 53.005C96.6304 52.7402 96.8531 52.5315 97.108 52.5304C97.3748 52.5372 97.5914 52.7482 97.5846 53.0149L97.5767 54.476C97.5699 54.7428 97.359 54.9593 97.0922 54.9526C96.8275 54.9556 96.6187 54.7328 96.6157 54.4681ZM95.6638 48.406L96.4151 46.4869C96.5239 46.2197 96.8234 46.0871 97.0885 46.1861C97.3557 46.2949 97.4883 46.5944 97.3795 46.8615L96.6768 48.6686C96.6282 48.7806 96.6718 48.8942 96.776 48.9546L97.1062 49.1219C97.1966 49.1647 97.3101 49.1211 97.3509 49.0209L98.0848 47.1666C98.1916 46.8897 98.4931 46.7669 98.7583 46.8658C99.0254 46.9746 99.158 47.2741 99.0493 47.5413L97.7758 50.8019C97.7408 50.8805 97.8098 50.9685 97.898 50.9505L98.574 50.8125C98.6818 50.7905 98.7422 50.6863 98.7006 50.5825L98.5638 50.2124C98.4706 49.9558 98.5949 49.6651 98.8613 49.5699C99.1158 49.4669 99.3988 49.603 99.5018 49.8576L100.045 51.3184C100.138 51.575 100.014 51.8657 99.7573 51.9589C99.5869 52.0243 99.4063 51.9898 99.2726 51.8844C99.1762 51.8122 99.0622 51.7538 98.9446 51.7778L98.8564 51.7958C98.7487 51.8178 98.6785 51.924 98.7005 52.0318L99.1606 54.2853C99.2186 54.5695 99.0314 54.8526 98.7473 54.9106C98.4632 54.9686 98.18 54.7815 98.122 54.4974L97.6619 52.2438C97.6399 52.1361 97.5337 52.0659 97.4259 52.0879L97.0144 52.1719C96.5931 52.2579 96.2424 51.8396 96.4055 51.4389L96.8365 50.3507C96.8773 50.2505 96.8317 50.1271 96.7295 50.0766L96.1812 49.7905C95.6801 49.5355 95.4541 48.9285 95.6638 48.406ZM99.1413 52.891C99.0305 52.6483 99.147 52.3693 99.3898 52.2585C99.6345 52.1575 99.9115 52.2643 100.022 52.507L100.489 53.5956C100.6 53.8383 100.484 54.1173 100.241 54.228C99.9962 54.329 99.7172 54.2125 99.6085 53.9795L99.1413 52.891ZM100.588 50.2278C100.74 49.9723 101.069 49.8847 101.334 50.0346L102.936 50.9833C103.192 51.1352 103.28 51.4644 103.128 51.7199C102.976 51.9755 102.646 52.0631 102.391 51.9111L100.779 50.9645C100.523 50.8125 100.436 50.4834 100.588 50.2278ZM108.84 49.6555C108.605 49.7035 108.381 49.5553 108.333 49.3202C108.285 49.085 108.433 48.8609 108.668 48.8129L112.019 48.1287C112.087 48.1147 112.126 48.0558 112.112 47.9872C112.098 47.9186 112.037 47.8698 111.969 47.8838L109.098 48.4699C108.863 48.5179 108.639 48.3698 108.591 48.1346C108.545 47.9093 108.691 47.6753 108.926 47.6273L111.797 47.0412C111.865 47.0272 111.904 46.9682 111.89 46.8996C111.876 46.831 111.817 46.792 111.749 46.806L108.917 47.3841C108.682 47.4321 108.458 47.284 108.41 47.0488C108.362 46.8137 108.51 46.5895 108.745 46.5415L111.577 45.9634C111.645 45.9494 111.684 45.8904 111.67 45.8218C111.656 45.7533 111.595 45.7045 111.527 45.7185L108.235 46.3906C108 46.4386 107.775 46.2904 107.727 46.0553C107.681 45.8299 107.828 45.596 108.063 45.548L111.355 44.8759C111.423 44.8618 111.462 44.8029 111.448 44.7343C111.434 44.6657 111.375 44.6267 111.307 44.6407L108.71 45.1708C108.475 45.2188 108.251 45.0707 108.203 44.8355C108.155 44.6004 108.303 44.3762 108.538 44.3282L111.145 43.7961C111.203 43.7841 111.242 43.7251 111.23 43.6663C111.172 43.3822 111.359 43.099 111.644 43.041C111.928 42.983 112.211 43.1701 112.269 43.4543C112.281 43.5131 112.34 43.552 112.399 43.54L114.505 43.11C115.005 43.0079 115.489 43.3276 115.591 43.8273L115.603 43.8861C115.617 43.9547 115.676 43.9937 115.744 43.9797L115.921 43.9437C116.156 43.8957 116.382 44.0536 116.428 44.279C116.476 44.5141 116.328 44.7383 116.093 44.7863L115.916 44.8223C115.848 44.8363 115.811 44.9051 115.825 44.9737L115.837 45.0325C115.939 45.5322 115.619 46.0159 115.119 46.1179L113.023 46.546C112.954 46.56 112.915 46.619 112.929 46.6876C112.943 46.7562 113.002 46.7951 113.071 46.7811L115.941 46.195C116.177 46.147 116.403 46.305 116.449 46.5303C116.497 46.7655 116.349 46.9896 116.113 47.0376L113.243 47.6238C113.174 47.6378 113.137 47.7065 113.151 47.7751C113.165 47.8437 113.224 47.8827 113.293 47.8687L116.644 47.1846C116.879 47.1366 117.103 47.2847 117.151 47.5199C117.199 47.755 117.051 47.9792 116.816 48.0272L108.84 49.6555ZM109.608 51.5195L109.446 50.7258C109.336 50.1869 109.677 49.658 110.226 49.546L115.507 48.4678C116.046 48.3578 116.577 48.7087 116.687 49.2476L116.849 50.0412C116.959 50.5801 116.608 51.111 116.069 51.221L110.788 52.2992C110.24 52.4112 109.718 52.0583 109.608 51.5195ZM110.628 51.4134C110.638 51.4624 110.687 51.5034 110.746 51.4914L115.782 50.4632C115.841 50.4512 115.88 50.3922 115.87 50.3432C115.858 50.2844 115.799 50.2454 115.74 50.2574L110.704 51.2856C110.645 51.2976 110.616 51.3546 110.628 51.4134ZM110.426 50.4238C110.438 50.4826 110.485 50.5138 110.544 50.5018L115.58 49.4736C115.639 49.4616 115.68 49.4124 115.668 49.3536C115.658 49.3046 115.599 49.2656 115.54 49.2776L110.504 50.3058C110.445 50.3178 110.416 50.3748 110.426 50.4238ZM112.709 45.6098C112.723 45.6784 112.782 45.7174 112.851 45.7034L114.712 45.3233C114.781 45.3093 114.82 45.2503 114.806 45.1817C114.792 45.1131 114.731 45.0643 114.662 45.0784L112.801 45.4584C112.732 45.4724 112.695 45.5412 112.709 45.6098ZM112.487 44.5222C112.501 44.5908 112.56 44.6298 112.629 44.6158L114.49 44.2357C114.559 44.2217 114.598 44.1627 114.584 44.0942C114.57 44.0256 114.511 43.9866 114.442 44.0006L112.581 44.3807C112.512 44.3947 112.473 44.4536 112.487 44.5222Z" fill="black"/>
<g filter="url(#filter0_d_48_397)">
<path d="M31.3108 63.8773C30.8402 58.0558 35.4377 53.0715 41.2783 53.0715H118.177C120.97 53.0715 123.635 54.2394 125.529 56.2925L139.822 71.7933C143.507 75.789 148.659 78.113 154.093 78.2306L206.977 79.3745C212.792 79.5003 217.273 84.5439 216.714 90.3337L210.179 157.982C209.684 163.108 205.376 167.02 200.225 167.02H48.8736C43.6632 167.02 39.3259 163.02 38.9061 157.826L31.3108 63.8773Z" fill="#8EC569" fill-opacity="0.6" shape-rendering="crispEdges"/>
</g>
<g filter="url(#filter1_f_48_397)">
<path d="M50.0325 74.7957C49.5669 68.977 54.1633 63.998 60.0006 63.998H118.454C121.264 63.998 123.945 65.1807 125.84 67.2565L135.516 77.8583C139.203 81.8977 144.384 84.251 149.851 84.3705L188.258 85.2098C194.069 85.3368 198.548 90.3736 197.994 96.1593L193.128 147.045C192.638 152.176 188.328 156.094 183.174 156.094H65.7699C60.5564 156.094 56.2176 152.088 55.8018 146.891L50.0325 74.7957Z" fill="#F5FFC4" fill-opacity="0.8"/>
</g>
<path d="M181.387 155.683C180.793 155.642 180.342 155.15 180.383 154.556L180.957 143.435C180.977 143.21 180.793 143.025 180.568 143.025H175.591C175.365 143.025 175.14 143.189 175.099 143.435L174.71 145.299C174.587 145.872 174.014 146.241 173.44 146.118C172.867 145.995 172.498 145.422 172.621 144.848L173.993 138.438C174.116 137.844 174.669 137.496 175.242 137.598C175.816 137.721 176.185 138.294 176.062 138.868L175.734 140.404C175.693 140.629 175.857 140.813 176.062 140.813H181.182C182.309 140.813 183.189 141.756 183.128 142.862L182.513 154.679C182.472 155.253 181.981 155.724 181.387 155.683ZM164.572 154.024L165.207 151.095C165.309 150.563 165.842 150.235 166.354 150.337C166.886 150.46 167.234 150.972 167.111 151.505L166.497 154.433C166.374 154.966 165.862 155.314 165.33 155.191C164.797 155.089 164.469 154.556 164.572 154.024ZM165.145 141.469L167.439 137.926C167.767 137.434 168.422 137.291 168.914 137.598C169.405 137.926 169.549 138.581 169.221 139.073L167.07 142.411C166.927 142.616 166.968 142.862 167.152 143.025L167.746 143.497C167.91 143.619 168.156 143.578 168.279 143.394L170.511 139.974C170.839 139.462 171.494 139.339 171.986 139.646C172.478 139.974 172.621 140.629 172.293 141.121L168.402 147.142C168.299 147.286 168.402 147.49 168.586 147.49H169.999C170.225 147.49 170.388 147.306 170.347 147.081L170.225 146.282C170.143 145.729 170.511 145.196 171.085 145.115C171.638 145.012 172.15 145.401 172.252 145.954L172.744 149.108C172.826 149.661 172.457 150.194 171.904 150.276C171.535 150.337 171.187 150.194 170.962 149.928C170.798 149.743 170.593 149.579 170.347 149.579H170.163C169.938 149.579 169.754 149.764 169.754 149.989V154.7C169.754 155.294 169.262 155.785 168.668 155.785C168.074 155.785 167.583 155.294 167.583 154.7V149.989C167.583 149.764 167.398 149.579 167.173 149.579H166.313C165.432 149.579 164.899 148.596 165.391 147.859L166.702 145.852C166.825 145.668 166.784 145.401 166.599 145.258L165.616 144.459C164.715 143.742 164.51 142.432 165.145 141.469ZM170.286 151.894C170.163 151.361 170.511 150.849 171.044 150.726C171.576 150.624 172.088 150.952 172.211 151.484L172.703 153.86C172.826 154.393 172.478 154.905 171.945 155.027C171.413 155.13 170.9 154.782 170.778 154.27L170.286 151.894ZM174.28 147.142C174.69 146.692 175.386 146.651 175.857 147.06L178.683 149.62C179.134 150.03 179.175 150.726 178.765 151.177C178.356 151.628 177.659 151.669 177.209 151.259L174.362 148.699C173.911 148.289 173.87 147.593 174.28 147.142Z" fill="white"/>
<path d="M143.599 155.478C143.087 155.806 142.411 155.662 142.104 155.171C141.776 154.659 141.92 153.983 142.411 153.655L145.872 151.423C145.975 151.361 145.913 151.197 145.811 151.197H140.465C139.871 151.197 139.4 150.726 139.4 150.132C139.4 149.538 139.871 149.067 140.465 149.067H147.204C147.368 149.067 147.511 148.924 147.511 148.76V148.391C147.511 147.777 148.002 147.285 148.617 147.285C149.231 147.285 149.723 147.777 149.723 148.391V148.76C149.723 148.924 149.866 149.067 150.03 149.067H156.768C157.362 149.067 157.833 149.538 157.833 150.132C157.833 150.726 157.362 151.197 156.768 151.197H151.423C151.32 151.197 151.259 151.361 151.361 151.423L154.823 153.655C155.314 153.983 155.458 154.659 155.15 155.171C154.823 155.662 154.147 155.806 153.635 155.478L148.965 152.447C148.76 152.303 148.474 152.303 148.269 152.447L143.599 155.478ZM139.277 146.937C139.216 146.364 139.626 145.831 140.199 145.79L142.554 145.524C142.78 145.504 142.964 145.319 142.964 145.073V144.377C142.964 144.152 142.78 143.967 142.554 143.967H140.855C140.261 143.967 139.81 143.496 139.81 142.923C139.81 142.349 140.261 141.878 140.855 141.878H142.554C142.78 141.878 142.964 141.694 142.964 141.469V141.407C142.964 141.182 142.78 140.998 142.554 140.998H140.445C139.871 140.998 139.4 140.527 139.4 139.953C139.4 139.38 139.871 138.909 140.445 138.909H142.554C142.78 138.909 142.964 138.724 142.964 138.499V138.335C142.964 137.741 143.456 137.25 144.05 137.25C144.644 137.25 145.135 137.741 145.135 138.335V138.499C145.135 138.724 145.319 138.909 145.545 138.909H147.654C148.228 138.909 148.699 139.38 148.699 139.953C148.699 140.527 148.228 140.998 147.654 140.998H145.545C145.319 140.998 145.135 141.182 145.135 141.407V141.469C145.135 141.694 145.319 141.878 145.545 141.878H147.265C147.839 141.878 148.31 142.349 148.31 142.923C148.31 143.496 147.839 143.967 147.265 143.967H145.545C145.319 143.967 145.135 144.152 145.135 144.377V144.848C145.135 145.073 145.319 145.237 145.545 145.217L147.613 144.992C148.187 144.93 148.719 145.36 148.76 145.934C148.822 146.507 148.412 147.019 147.839 147.081L140.424 147.859C139.851 147.92 139.339 147.511 139.277 146.937ZM148.842 139.195C148.842 138.601 149.334 138.11 149.928 138.11H155.806C156.912 138.11 157.792 139.052 157.731 140.158L157.383 146.855C157.362 147.47 156.83 147.941 156.215 147.9C155.601 147.879 155.13 147.347 155.15 146.732L155.478 140.69C155.478 140.465 155.314 140.281 155.089 140.281H153.922C153.676 140.281 153.471 140.445 153.41 140.67L151.873 146.364C151.73 146.958 151.116 147.306 150.522 147.163C149.928 146.999 149.58 146.384 149.743 145.79L151.116 140.67C151.177 140.465 151.034 140.281 150.829 140.281H149.928C149.334 140.281 148.842 139.789 148.842 139.195Z" fill="white"/>
<path d="M121.703 149.334C120.925 149.334 120.269 148.678 120.269 147.9C120.269 147.122 120.925 146.466 121.703 146.466C122.481 146.466 123.137 147.122 123.137 147.9C123.137 148.678 122.481 149.334 121.703 149.334Z" fill="white"/>
<path d="M104.396 155.601C103.966 155.642 103.577 155.416 103.372 155.068C103.27 154.864 103.065 154.7 102.84 154.72L97.9447 155.253C97.3917 155.294 96.8797 154.904 96.8183 154.331C96.7773 153.778 97.1664 153.266 97.7399 153.205L99.5013 153.02C99.7471 153 99.9109 152.795 99.9109 152.57V149.579C99.9109 149.354 99.7266 149.17 99.5013 149.17H98.8664C97.7399 149.17 96.8183 148.248 96.8183 147.122V142.37C96.8183 141.243 97.7399 140.322 98.8664 140.322H99.5013C99.7266 140.322 99.9109 140.138 99.9109 139.912V138.519C99.9109 137.926 100.402 137.454 100.976 137.454C101.57 137.454 102.041 137.926 102.041 138.519V139.912C102.041 140.138 102.225 140.322 102.451 140.322H103.106C104.232 140.322 105.154 141.243 105.154 142.37V147.122C105.154 148.248 104.232 149.17 103.106 149.17H102.451C102.225 149.17 102.041 149.354 102.041 149.579V152.344C102.041 152.57 102.246 152.733 102.451 152.713L102.635 152.692C102.86 152.672 103.024 152.467 102.983 152.242L102.84 150.788C102.778 150.214 103.188 149.702 103.761 149.641C104.335 149.579 104.847 150.009 104.908 150.583L105.318 154.433C105.379 155.027 104.97 155.539 104.396 155.601ZM86.9668 139.032C86.9668 138.499 87.3969 138.069 87.9294 138.069H95.5894C96.1219 138.069 96.552 138.499 96.552 139.032C96.552 139.564 96.1219 139.994 95.5894 139.994H87.9294C87.3969 139.994 86.9668 139.564 86.9668 139.032ZM87.0897 154.7V148.535C87.0897 147.408 88.0113 146.487 89.1378 146.487H94.381C95.5075 146.487 96.4291 147.408 96.4291 148.535V154.7C96.4291 155.253 95.999 155.683 95.446 155.683C94.893 155.683 94.4629 155.253 94.4629 154.7V151.853C94.4629 151.627 94.2786 151.443 94.0533 151.443H93.9509C92.8039 151.443 91.9028 150.521 91.9028 149.395V148.494C91.9028 148.432 91.8413 148.371 91.7594 148.371C91.6775 148.371 91.6365 148.432 91.6365 148.494V149.395C91.6365 150.521 90.7149 151.443 89.5884 151.443H89.4655C89.2402 151.443 89.0559 151.627 89.0559 151.853V154.7C89.0559 155.253 88.6258 155.683 88.0728 155.683C87.5198 155.683 87.0897 155.253 87.0897 154.7ZM87.6017 143.845V142.616C87.6017 141.489 88.5029 140.568 89.6498 140.568H93.8894C95.0159 140.568 95.9376 141.489 95.9376 142.616V143.845C95.9376 144.992 95.0159 145.893 93.8894 145.893H89.6498C88.5029 145.893 87.6017 144.992 87.6017 143.845ZM89.0559 149.17C89.0559 149.395 89.2197 149.559 89.445 149.559C89.6498 149.559 89.8342 149.395 89.8342 149.17V148.781C89.8342 148.555 89.6498 148.35 89.4041 148.371C89.2197 148.391 89.0559 148.576 89.0559 148.781V149.17ZM89.1788 152.733C89.1788 152.201 89.6089 151.771 90.1414 151.771H93.3774C93.9099 151.771 94.34 152.201 94.34 152.733C94.34 153.266 93.9099 153.696 93.3774 153.696H93.0907C92.9064 153.696 92.763 153.839 92.763 154.003V154.597C92.763 155.15 92.3124 155.601 91.7594 155.601C91.2064 155.601 90.7558 155.15 90.7558 154.597V154.003C90.7558 153.839 90.6125 153.696 90.4486 153.696H90.1414C89.6089 153.696 89.1788 153.266 89.1788 152.733ZM89.6498 143.599C89.6498 143.845 89.8137 144.008 90.0595 144.008H93.4798C93.7051 144.008 93.8894 143.845 93.8894 143.599V142.862C93.8894 142.636 93.7051 142.452 93.4798 142.452H90.0595C89.8137 142.452 89.6498 142.636 89.6498 142.862V143.599ZM93.7051 149.17C93.7051 149.395 93.869 149.559 94.0738 149.559C94.2991 149.559 94.4629 149.395 94.4629 149.17V148.781C94.4629 148.576 94.2991 148.391 94.1147 148.371C93.869 148.35 93.7051 148.555 93.7051 148.781V149.17ZM98.9073 146.712C98.9073 146.937 99.0917 147.122 99.317 147.122H99.6037C99.829 147.122 100.013 146.937 100.013 146.712V142.78C100.013 142.554 99.829 142.37 99.6037 142.37H99.317C99.0917 142.37 98.9073 142.554 98.9073 142.78V146.712ZM101.939 146.712C101.939 146.937 102.123 147.122 102.348 147.122H102.655C102.881 147.122 103.065 146.937 103.065 146.712V142.78C103.065 142.554 102.881 142.37 102.655 142.37H102.348C102.123 142.37 101.939 142.554 101.939 142.78V146.712Z" fill="white"/>
<path d="M63.0653 155.376C62.4713 155.376 61.9593 154.884 61.9593 154.27C61.9593 153.655 62.4713 153.164 63.0653 153.164H64.7243C64.9291 153.164 65.0725 152.959 64.9905 152.775L64.6424 151.853C64.4171 151.279 64.7038 150.645 65.2773 150.419C65.8508 150.194 66.4857 150.481 66.711 151.054L67.3664 152.775C67.4483 153.02 67.6736 153.164 67.9194 153.164H69.2506C69.4759 153.164 69.6603 152.979 69.6603 152.754V150.255C69.6603 150.03 69.4759 149.846 69.2506 149.846H64.5604C63.946 149.846 63.4544 149.354 63.4544 148.74C63.4544 148.125 63.946 147.634 64.5604 147.634H69.2506C69.4759 147.634 69.6603 147.45 69.6603 147.224V145.524C69.6603 145.299 69.4759 145.115 69.2506 145.115H67.0387C66.4242 145.115 65.9327 144.623 65.9327 144.009C65.9327 143.394 66.4242 142.903 67.0387 142.903H74.5348C75.1492 142.903 75.6408 143.394 75.6408 144.009C75.6408 144.623 75.1492 145.115 74.5348 145.115H72.3228C72.0975 145.115 71.9132 145.299 71.9132 145.524V147.224C71.9132 147.45 72.0975 147.634 72.3228 147.634H77.013C77.6275 147.634 78.119 148.125 78.119 148.74C78.119 149.354 77.6275 149.846 77.013 149.846H72.3228C72.0975 149.846 71.9132 150.03 71.9132 150.255V152.754C71.9132 152.979 72.0975 153.164 72.3228 153.164H73.6541C73.8999 153.164 74.1252 153.02 74.2071 152.775L74.8625 151.054C75.0878 150.481 75.7227 150.194 76.2962 150.419C76.8696 150.645 77.1564 151.279 76.9311 151.853L76.5829 152.775C76.501 152.959 76.6444 153.164 76.8492 153.164H78.4877C79.1021 153.164 79.5936 153.655 79.5936 154.27C79.5936 154.884 79.1021 155.376 78.4877 155.376H63.0653ZM61.3449 144.889C60.9967 144.398 61.0991 143.701 61.5907 143.353L69.1277 137.864C70.1108 137.147 71.4626 137.147 72.4457 137.864L79.9828 143.353C80.4743 143.701 80.5767 144.398 80.2286 144.889C79.8599 145.381 79.1635 145.483 78.672 145.135L71.1144 139.646C70.9301 139.503 70.6434 139.503 70.459 139.646L62.9015 145.135C62.4099 145.483 61.7135 145.381 61.3449 144.889Z" fill="white"/>
<defs>
<filter id="filter0_d_48_397" x="27.2777" y="53.0715" width="193.484" height="121.949" filterUnits="userSpaceOnUse" color-interpolation-filters="sRGB">
<feFlood flood-opacity="0" result="BackgroundImageFix"/>
<feColorMatrix in="SourceAlpha" type="matrix" values="0 0 0 0 0 0 0 0 0 0 0 0 0 0 0 0 0 0 127 0" result="hardAlpha"/>
<feOffset dy="4"/>
<feGaussianBlur stdDeviation="2"/>
<feComposite in2="hardAlpha" operator="out"/>
<feColorMatrix type="matrix" values="0 0 0 0 0 0 0 0 0 0 0 0 0 0 0 0 0 0 0.25 0"/>
<feBlend mode="normal" in2="BackgroundImageFix" result="effect1_dropShadow_48_397"/>
<feBlend mode="normal" in="SourceGraphic" in2="effect1_dropShadow_48_397" result="shape"/>
</filter>
<filter id="filter1_f_48_397" x="0" y="13.998" width="248.041" height="192.096" filterUnits="userSpaceOnUse" color-interpolation-filters="sRGB">
<feFlood flood-opacity="0" result="BackgroundImageFix"/>
<feBlend mode="normal" in="SourceGraphic" in2="BackgroundImageFix" result="shape"/>
<feGaussianBlur stdDeviation="25" result="effect1_foregroundBlur_48_397"/>
</filter>
</defs>
</svg>
