<svg width="157" height="55" viewBox="0 0 157 55" fill="none" xmlns="http://www.w3.org/2000/svg">
<rect x="1" y="1" width="154.49" height="52.83" rx="16" fill="black"/>
<rect x="1" y="1" width="154.49" height="52.83" rx="16" stroke="#A6A6A6" stroke-width="2"/>
<path d="M24.6255 26.731L12.2798 40.1301C12.281 40.1325 12.281 40.136 12.2822 40.1384C12.6613 41.5933 13.96 42.6641 15.5022 42.6641C16.1191 42.6641 16.6977 42.4933 17.194 42.1945L17.2334 42.1708L31.1293 33.9712L24.6255 26.731Z" fill="#EA4335"/>
<path d="M37.1148 24.4492L37.1032 24.4409L31.1037 20.8848L24.3448 27.0354L31.1281 33.9697L37.095 30.4492C38.141 29.8705 38.8517 28.7429 38.8517 27.4433C38.8517 26.1508 38.1514 25.0291 37.1148 24.4492Z" fill="#FBBC04"/>
<path d="M12.2797 14.6989C12.2054 14.9787 12.166 15.2728 12.166 15.5763V39.2536C12.166 39.5572 12.2054 39.8512 12.2808 40.1299L25.0497 27.0735L12.2797 14.6989Z" fill="#4285F4"/>
<path d="M24.7166 27.415L31.1057 20.8827L17.226 12.6535C16.7216 12.344 16.1326 12.1661 15.5029 12.1661C13.9607 12.1661 12.6597 13.2393 12.2806 14.6954C12.2806 14.6966 12.2794 14.6977 12.2794 14.6989L24.7166 27.415Z" fill="#34A853"/>
<path d="M99.2463 20.4955H98.0772V11.397H99.5005L103.923 18.4751H103.974L103.923 16.7214V11.397H105.092V20.4955H103.872L99.2463 13.0744H99.1955L99.2463 14.828V20.4955Z" fill="white"/>
<path d="M96.6975 15.946C96.6975 17.293 96.2485 18.4197 95.3505 19.3262C94.4441 20.2411 93.3343 20.6986 92.0212 20.6986C90.6996 20.6986 89.5898 20.2411 88.6918 19.3262C87.7938 18.4197 87.3448 17.293 87.3448 15.946C87.3448 14.599 87.7938 13.4722 88.6918 12.5658C89.5898 11.6508 90.6996 11.1934 92.0212 11.1934C93.3428 11.1934 94.4525 11.6551 95.3505 12.5785C96.2485 13.4849 96.6975 14.6074 96.6975 15.946ZM88.5393 15.946C88.5393 16.9965 88.8697 17.8648 89.5305 18.551C90.1998 19.2372 91.03 19.5803 92.0212 19.5803C93.0124 19.5803 93.8384 19.2372 94.4991 18.551C95.1684 17.8733 95.503 17.0049 95.503 15.946C95.503 14.887 95.1684 14.0187 94.4991 13.3409C93.8384 12.6547 93.0124 12.3116 92.0212 12.3116C91.03 12.3116 90.1998 12.6547 89.5305 13.3409C88.8697 14.0271 88.5393 14.8955 88.5393 15.946Z" fill="white"/>
<path d="M81.4838 12.5152V20.4955H80.3147V12.5152H77.7732V11.397H84.0253V12.5152H81.4838Z" fill="white"/>
<path d="M76.5491 20.4955H75.38V11.397H76.5491V20.4955Z" fill="white"/>
<path d="M68.8258 12.5152V20.4955H67.6567V12.5152H65.1152V11.397H71.3673V12.5152H68.8258Z" fill="white"/>
<path d="M64.1496 11.397V12.5152H60.007V15.3998H63.743V16.4927H60.007V19.3773H64.1496V20.4955H58.8379V11.397H64.1496Z" fill="white"/>
<path d="M57.4174 16.3145C57.4174 17.5852 57.0404 18.5976 56.2864 19.3516C55.4393 20.2496 54.3252 20.6986 52.9444 20.6986C51.6228 20.6986 50.5045 20.2411 49.5896 19.3262C48.6746 18.4112 48.2172 17.2845 48.2172 15.946C48.2172 14.6074 48.6746 13.4807 49.5896 12.5658C50.5045 11.6508 51.6228 11.1934 52.9444 11.1934C53.6136 11.1934 54.2448 11.312 54.8378 11.5492C55.4308 11.7864 55.9179 12.121 56.2991 12.5531L55.4604 13.3918C55.1809 13.0529 54.8166 12.7903 54.3676 12.6039C53.9271 12.409 53.4527 12.3116 52.9444 12.3116C51.9532 12.3116 51.1145 12.6547 50.4283 13.3409C49.7505 14.0356 49.4117 14.904 49.4117 15.946C49.4117 16.988 49.7505 17.8563 50.4283 18.551C51.1145 19.2372 51.9532 19.5803 52.9444 19.5803C53.8508 19.5803 54.6048 19.3262 55.2063 18.8179C55.8078 18.3096 56.1551 17.6106 56.2483 16.7211H52.9444V15.6283H57.3539C57.3962 15.8655 57.4174 16.0942 57.4174 16.3145Z" fill="white"/>
<path d="M120.838 41.9136H122.908V27.9208H120.838V41.9136ZM139.481 32.9612L137.108 39.028H137.037L134.575 32.9612H132.345L136.038 41.4402L133.934 46.1571H136.091L141.783 32.9612H139.481ZM127.743 40.3242C127.064 40.3242 126.119 39.9828 126.119 39.1354C126.119 38.0564 127.296 37.6422 128.313 37.6422C129.223 37.6422 129.652 37.8404 130.204 38.1101C130.044 39.4063 128.938 40.3242 127.743 40.3242ZM127.993 32.6556C126.494 32.6556 124.941 33.3216 124.3 34.798L126.137 35.5715C126.53 34.798 127.261 34.545 128.028 34.545C129.099 34.545 130.187 35.1931 130.204 36.346V36.4893C129.83 36.2733 129.028 35.9498 128.046 35.9498C126.066 35.9498 124.049 37.0479 124.049 39.0996C124.049 40.9723 125.673 42.1789 127.492 42.1789C128.884 42.1789 129.652 41.5487 130.133 40.81H130.204V41.8901H132.202V36.5251C132.202 34.0413 130.365 32.6556 127.993 32.6556ZM115.201 34.6648H112.257V29.8684H115.201C116.748 29.8684 117.627 31.1613 117.627 32.266C117.627 33.3507 116.748 34.6648 115.201 34.6648ZM115.148 27.9208H110.189V41.9136H112.257V36.6124H115.148C117.442 36.6124 119.697 34.9357 119.697 32.266C119.697 29.5964 117.442 27.9208 115.148 27.9208ZM88.1039 40.3264C86.6741 40.3264 85.4772 39.1186 85.4772 37.4598C85.4772 35.783 86.6741 34.5562 88.1039 34.5562C89.5159 34.5562 90.6229 35.783 90.6229 37.4598C90.6229 39.1186 89.5159 40.3264 88.1039 40.3264ZM90.4809 33.7447H90.4088C89.9441 33.1861 89.0512 32.6813 87.9253 32.6813C85.566 32.6813 83.4041 34.7722 83.4041 37.4598C83.4041 40.1283 85.566 42.2024 87.9253 42.2024C89.0512 42.2024 89.9441 41.6976 90.4088 41.12H90.4809V41.8062C90.4809 43.6274 89.5159 44.6012 87.9608 44.6012C86.6918 44.6012 85.9054 43.6811 85.5837 42.9054L83.779 43.6632C84.297 44.9258 85.6736 46.4761 87.9608 46.4761C90.3911 46.4761 92.4465 45.0332 92.4465 41.5174V32.969H90.4809V33.7447ZM93.8763 41.9136H95.9494V27.9196H93.8763V41.9136ZM99.0042 37.2975C98.951 35.4584 100.416 34.5204 101.47 34.5204C102.293 34.5204 102.99 34.9346 103.221 35.53L99.0042 37.2975ZM105.438 35.7103C105.045 34.6469 103.847 32.6813 101.399 32.6813C98.9687 32.6813 96.9499 34.6099 96.9499 37.4419C96.9499 40.1104 98.951 42.2024 101.631 42.2024C103.794 42.2024 105.045 40.8682 105.563 40.0925L103.955 39.0101C103.419 39.8037 102.686 40.3264 101.631 40.3264C100.577 40.3264 99.8261 39.8395 99.3436 38.8847L105.652 36.2509L105.438 35.7103ZM55.181 34.1421V36.1613H59.9695C59.8265 37.2975 59.4515 38.1269 58.8803 38.7034C58.1826 39.4074 57.0922 40.1831 55.181 40.1831C52.2316 40.1831 49.9266 37.7844 49.9266 34.8092C49.9266 31.8329 52.2316 29.4352 55.181 29.4352C56.7716 29.4352 57.933 30.0665 58.7904 30.8781L60.2025 29.4531C59.0045 28.2991 57.415 27.4148 55.181 27.4148C51.1423 27.4148 47.747 30.7337 47.747 34.8092C47.747 38.8847 51.1423 42.2024 55.181 42.2024C57.3606 42.2024 59.0045 41.4805 60.2912 40.1283C61.6145 38.794 62.0249 36.9191 62.0249 35.4036C62.0249 34.9346 61.9894 34.5025 61.9173 34.1421H55.181ZM67.4701 40.3264C66.0403 40.3264 64.8069 39.1366 64.8069 37.4419C64.8069 35.7282 66.0403 34.5562 67.4701 34.5562C68.8988 34.5562 70.1322 35.7282 70.1322 37.4419C70.1322 39.1366 68.8988 40.3264 67.4701 40.3264ZM67.4701 32.6813C64.8601 32.6813 62.7337 34.6827 62.7337 37.4419C62.7337 40.1831 64.8601 42.2024 67.4701 42.2024C70.079 42.2024 72.2054 40.1831 72.2054 37.4419C72.2054 34.6827 70.079 32.6813 67.4701 32.6813ZM77.8003 40.3264C76.3705 40.3264 75.1371 39.1366 75.1371 37.4419C75.1371 35.7282 76.3705 34.5562 77.8003 34.5562C79.2301 34.5562 80.4624 35.7282 80.4624 37.4419C80.4624 39.1366 79.2301 40.3264 77.8003 40.3264ZM77.8003 32.6813C75.1914 32.6813 73.065 34.6827 73.065 37.4419C73.065 40.1831 75.1914 42.2024 77.8003 42.2024C80.4092 42.2024 82.5356 40.1831 82.5356 37.4419C82.5356 34.6827 80.4092 32.6813 77.8003 32.6813Z" fill="white"/>
</svg>
