<svg width="249" height="207" viewBox="0 0 249 207" fill="none" xmlns="http://www.w3.org/2000/svg">
<rect x="38.2421" y="21.8529" width="173.264" height="145.168" rx="10" fill="#FF8F38"/>
<rect x="106.548" y="36.1219" width="97.8477" height="115.286" rx="5" transform="rotate(7.87578 106.548 36.1219)" fill="#B5B5B5"/>
<rect x="106.028" y="35.6761" width="97.8477" height="115.286" rx="5" transform="rotate(7.87578 106.028 35.6761)" fill="#B5B5B5"/>
<rect x="106.172" y="36.0588" width="97.8477" height="115.286" rx="5" transform="rotate(7.87578 106.172 36.0588)" fill="#F5F5F5"/>
<rect x="132.046" y="46.9729" width="43.5955" height="3.87516" rx="1.93758" transform="rotate(7.87578 132.046 46.9729)" fill="#D9D9D9"/>
<rect x="110.551" y="50.3571" width="85.7378" height="3.87516" rx="1.93758" transform="rotate(7.87578 110.551 50.3571)" fill="#D9D9D9"/>
<rect x="103.117" y="104.097" width="85.7378" height="3.87516" rx="1.93758" transform="rotate(7.87578 103.117 104.097)" fill="#D9D9D9"/>
<rect x="107.962" y="69.0699" width="85.7378" height="3.87516" rx="1.93758" transform="rotate(7.87578 107.962 69.0699)" fill="#D9D9D9"/>
<rect x="109.688" y="56.5947" width="85.7378" height="3.87516" rx="1.93758" transform="rotate(7.87578 109.688 56.5947)" fill="#D9D9D9"/>
<rect x="102.254" y="110.335" width="85.7378" height="3.87516" rx="1.93758" transform="rotate(7.87578 102.254 110.335)" fill="#D9D9D9"/>
<rect x="107.1" y="75.3073" width="64.4245" height="3.87516" rx="1.93758" transform="rotate(7.87578 107.1 75.3073)" fill="#D9D9D9"/>
<rect x="108.825" y="62.8323" width="43.5955" height="3.87516" rx="1.93758" transform="rotate(7.87578 108.825 62.8323)" fill="#D9D9D9"/>
<rect x="101.391" y="116.573" width="43.5955" height="3.87516" rx="1.93758" transform="rotate(7.87578 101.391 116.573)" fill="#D9D9D9"/>
<rect x="141.411" y="134.823" width="43.5955" height="3.87516" rx="1.93758" transform="rotate(7.87578 141.411 134.823)" fill="#D9D9D9"/>
<rect x="140.548" y="141.06" width="43.5955" height="3.87516" rx="1.93758" transform="rotate(7.87578 140.548 141.06)" fill="#D9D9D9"/>
<rect x="160.317" y="150.152" width="22.7665" height="3.87516" rx="1.93758" transform="rotate(7.87578 160.317 150.152)" fill="#D9D9D9"/>
<rect x="105.374" y="87.7832" width="43.5955" height="3.87516" rx="1.93758" transform="rotate(7.87578 105.374 87.7832)" fill="#D9D9D9"/>
<rect x="106.237" y="81.5453" width="85.7378" height="3.87516" rx="1.93758" transform="rotate(7.87578 106.237 81.5453)" fill="#D9D9D9"/>
<rect x="74.6499" y="36.1576" width="97.8477" height="115.286" rx="5" transform="rotate(-2.59781 74.6499 36.1576)" fill="#B5B5B5"/>
<rect x="74.0574" y="35.8137" width="97.8477" height="115.286" rx="5" transform="rotate(-2.59781 74.0574 35.8137)" fill="#B5B5B5"/>
<rect x="74.2686" y="36.1638" width="97.8477" height="115.286" rx="5" transform="rotate(-2.59781 74.2686 36.1638)" fill="#F5F5F5"/>
<rect x="101.696" y="42.1927" width="43.5955" height="3.87516" rx="1.93758" transform="rotate(-2.59781 101.696 42.1927)" fill="#D9D9D9"/>
<rect x="81.1738" y="49.4277" width="85.7378" height="3.87516" rx="1.93758" transform="rotate(-2.59781 81.1738 49.4277)" fill="#D9D9D9"/>
<rect x="83.6328" y="103.624" width="85.7378" height="3.87516" rx="1.93758" transform="rotate(-2.59781 83.6328 103.624)" fill="#D9D9D9"/>
<rect x="82.0303" y="68.2998" width="85.7378" height="3.87516" rx="1.93758" transform="rotate(-2.59781 82.0303 68.2998)" fill="#D9D9D9"/>
<rect x="81.4592" y="55.7185" width="85.7378" height="3.87516" rx="1.93758" transform="rotate(-2.59781 81.4592 55.7185)" fill="#D9D9D9"/>
<rect x="83.9181" y="109.915" width="85.7378" height="3.87516" rx="1.93758" transform="rotate(-2.59781 83.9181 109.915)" fill="#D9D9D9"/>
<rect x="82.3156" y="74.5898" width="64.4245" height="3.87516" rx="1.93758" transform="rotate(-2.59781 82.3156 74.5898)" fill="#D9D9D9"/>
<rect x="81.7448" y="62.0092" width="43.5955" height="3.87516" rx="1.93758" transform="rotate(-2.59781 81.7448 62.0092)" fill="#D9D9D9"/>
<rect x="84.2035" y="116.205" width="43.5955" height="3.87516" rx="1.93758" transform="rotate(-2.59781 84.2035 116.205)" fill="#D9D9D9"/>
<rect x="126.874" y="126.876" width="43.5955" height="3.87516" rx="1.93758" transform="rotate(-2.59781 126.874 126.876)" fill="#D9D9D9"/>
<rect x="127.159" y="133.167" width="43.5955" height="3.87516" rx="1.93758" transform="rotate(-2.59781 127.159 133.167)" fill="#D9D9D9"/>
<rect x="148.252" y="138.514" width="22.7665" height="3.87516" rx="1.93758" transform="rotate(-2.59781 148.252 138.514)" fill="#D9D9D9"/>
<rect x="82.8864" y="87.1714" width="43.5955" height="3.87516" rx="1.93758" transform="rotate(-2.59781 82.8864 87.1714)" fill="#D9D9D9"/>
<rect x="82.601" y="80.8807" width="85.7378" height="3.87516" rx="1.93758" transform="rotate(-2.59781 82.601 80.8807)" fill="#D9D9D9"/>
<rect x="48.9438" y="38.6293" width="97.8477" height="115.286" rx="5" transform="rotate(-11.2411 48.9438 38.6293)" fill="#B5B5B5"/>
<rect x="48.3064" y="38.3785" width="97.8477" height="115.286" rx="5" transform="rotate(-11.2411 48.3064 38.3785)" fill="#B5B5B5"/>
<rect x="48.5676" y="38.6929" width="97.8477" height="115.286" rx="5" transform="rotate(-11.2411 48.5676 38.6929)" fill="#F5F5F5"/>
<rect x="76.5897" y="40.5314" width="43.5955" height="3.87516" rx="1.93758" transform="rotate(-11.2411 76.5897 40.5314)" fill="#D9D9D9"/>
<rect x="57.3881" y="50.7684" width="85.7378" height="3.87516" rx="1.93758" transform="rotate(-11.2411 57.3881 50.7684)" fill="#D9D9D9"/>
<rect x="67.9637" y="103.98" width="85.7378" height="3.87516" rx="1.93758" transform="rotate(-11.2411 67.9637 103.98)" fill="#D9D9D9"/>
<rect x="61.0706" y="69.2972" width="85.7378" height="3.87516" rx="1.93758" transform="rotate(-11.2411 61.0706 69.2972)" fill="#D9D9D9"/>
<rect x="58.6156" y="56.9448" width="85.7378" height="3.87516" rx="1.93758" transform="rotate(-11.2411 58.6156 56.9448)" fill="#D9D9D9"/>
<rect x="69.1913" y="110.156" width="85.7378" height="3.87516" rx="1.93758" transform="rotate(-11.2411 69.1913 110.156)" fill="#D9D9D9"/>
<rect x="62.2981" y="75.4731" width="64.4245" height="3.87516" rx="1.93758" transform="rotate(-11.2411 62.2981 75.4731)" fill="#D9D9D9"/>
<rect x="59.843" y="63.121" width="43.5955" height="3.87516" rx="1.93758" transform="rotate(-11.2411 59.843 63.121)" fill="#D9D9D9"/>
<rect x="70.4188" y="116.332" width="43.5955" height="3.87516" rx="1.93758" transform="rotate(-11.2411 70.4188 116.332)" fill="#D9D9D9"/>
<rect x="114.208" y="120.47" width="43.5955" height="3.87516" rx="1.93758" transform="rotate(-11.2411 114.208 120.47)" fill="#D9D9D9"/>
<rect x="115.436" y="126.646" width="43.5955" height="3.87516" rx="1.93758" transform="rotate(-11.2411 115.436 126.646)" fill="#D9D9D9"/>
<rect x="137.092" y="128.762" width="22.7665" height="3.87516" rx="1.93758" transform="rotate(-11.2411 137.092 128.762)" fill="#D9D9D9"/>
<rect x="64.7532" y="87.8262" width="43.5955" height="3.87516" rx="1.93758" transform="rotate(-11.2411 64.7532 87.8262)" fill="#D9D9D9"/>
<rect x="63.5258" y="81.6499" width="85.7378" height="3.87516" rx="1.93758" transform="rotate(-11.2411 63.5258 81.6499)" fill="#D9D9D9"/>
<path d="M70.7427 52.0512C70.3555 52.0507 70.0445 51.7466 70.045 51.3594L70.0327 50.2008C70.0374 50.0277 69.9571 49.859 69.8282 49.7298L69.5643 49.444L69.5613 49.4303L68.8183 48.5336C68.565 48.2311 68.6141 47.8044 68.906 47.5679C69.1841 47.3344 69.591 47.3591 69.8352 47.6206C69.905 47.6769 70.0114 47.639 70.0069 47.554L70.0138 46.8069C70.0079 46.6505 69.8714 46.5516 69.7347 46.5818L69.5296 46.6271C68.9692 46.751 68.4306 46.3252 68.4328 45.7512L68.4062 42.5167C68.4003 42.3603 68.2637 42.2614 68.1149 42.237C67.8477 42.1957 67.602 41.9919 67.5355 41.6912C67.4509 41.3084 67.6958 40.9245 68.0786 40.8399L68.6937 40.704C69.2542 40.5801 69.7928 41.0059 69.7906 41.5799L69.8172 44.8144C69.8231 44.9708 69.9597 45.0696 70.0964 45.0394L70.3014 44.9941C70.8619 44.8702 71.4005 45.296 71.3983 45.87L71.4281 48.9891C71.4233 49.1622 71.5173 49.3278 71.6645 49.41C71.7783 49.4709 71.9028 49.5151 72.0136 49.5623C72.6329 49.7695 73.3253 49.7885 74.1455 49.6073L78.3696 48.6737C78.7387 48.5921 79.1059 48.8264 79.1874 49.1955C79.269 49.5646 79.0347 49.9318 78.6656 50.0134L74.4416 50.9469C73.4437 51.1675 72.5234 51.1558 71.7053 50.8921C71.5702 50.8646 71.4455 50.9495 71.4454 51.0786L71.4451 51.3367C71.4446 51.724 71.1299 52.0516 70.7427 52.0512ZM64.9676 45.6424L66.2444 40.7148C66.3359 40.3504 66.7158 40.1231 67.0968 40.2253C67.4612 40.3168 67.6885 40.6967 67.5833 41.0641L67.1531 42.7506C67.1043 42.9191 67.1026 43.1059 67.1419 43.2836L69.0059 51.7181C69.0905 52.1009 68.8562 52.4681 68.4735 52.5527C68.0907 52.6373 67.7235 52.403 67.6389 52.0202L66.37 46.2788C66.3489 46.1831 66.2335 46.1799 66.1909 46.2467C66.0221 46.456 65.7441 46.5605 65.4708 46.4918C65.0928 46.4033 64.8791 46.0204 64.9676 45.6424ZM70.0975 42.7738C70.0159 42.4047 70.2395 42.0542 70.6086 41.9726L72.5088 41.5527C72.6318 41.5255 72.717 41.392 72.6898 41.2689C72.6626 41.1459 72.5291 41.0607 72.4061 41.0879L71.0117 41.396C70.6426 41.4776 70.2921 41.254 70.2105 40.8849C70.129 40.5158 70.3526 40.1653 70.7217 40.0837L72.075 39.7846C72.2254 39.7514 72.3076 39.6042 72.329 39.4417C72.3673 39.1609 72.5711 38.9151 72.8718 38.8486C73.1726 38.7822 73.4609 38.9192 73.614 39.1577C73.7019 39.296 73.8385 39.3949 73.9888 39.3617L75.1235 39.1109C75.8753 38.9447 76.6264 39.4239 76.7926 40.1758L76.8349 40.3672C76.8711 40.5312 77.0137 40.6574 77.1503 40.7563C77.2701 40.8445 77.3748 40.9934 77.411 41.1575C77.4473 41.3215 77.4152 41.5007 77.3436 41.6312C77.2615 41.7784 77.1853 41.9529 77.2216 42.117L77.2639 42.3083C77.4301 43.0602 76.9509 43.8113 76.199 43.9775L75.0644 44.2282C74.914 44.2615 74.8182 44.4117 74.8514 44.5621L74.8605 44.6031C74.8937 44.7534 75.0439 44.8493 75.1943 44.816L76.9577 44.4263C77.3268 44.3447 77.6773 44.5684 77.7589 44.9375C77.8405 45.3066 77.6169 45.6571 77.2478 45.7386L75.4843 46.1284C75.3339 46.1616 75.2381 46.3118 75.2713 46.4622L75.2804 46.5032C75.3136 46.6536 75.4639 46.7494 75.6142 46.7162L77.8425 46.2237C78.2115 46.1422 78.5621 46.3658 78.6436 46.7349C78.7252 47.104 78.5016 47.4545 78.1325 47.5361L75.9043 48.0285C75.7539 48.0618 75.6717 48.209 75.6639 48.3684C75.659 48.6706 75.434 48.9497 75.1196 49.0192C74.8051 49.0887 74.4834 48.9304 74.3516 48.6584C74.2774 48.5171 74.1408 48.4183 73.9904 48.4515L72.4457 48.7929C72.0903 48.8714 71.7261 48.6508 71.6445 48.2817C71.563 47.9126 71.8003 47.5591 72.1557 47.4805L73.7004 47.1392C73.8508 47.1059 73.9466 46.9557 73.9134 46.8053L73.9043 46.7643C73.8711 46.6139 73.7209 46.5181 73.5705 46.5513L72.5726 46.7719C72.2035 46.8535 71.853 46.6298 71.7714 46.2607C71.6898 45.8916 71.9134 45.5411 72.2825 45.4596L73.2805 45.239C73.4308 45.2058 73.5267 45.0556 73.4934 44.9052L73.4844 44.8642C73.4511 44.7138 73.3009 44.618 73.1506 44.6512L71.7972 44.9503C71.4281 45.0319 71.0776 44.8082 70.996 44.4391C70.9145 44.07 71.1381 43.7195 71.5072 43.638L72.9015 43.3298C73.0246 43.3026 73.1098 43.1691 73.0826 43.046C73.0554 42.923 72.9218 42.8378 72.7988 42.865L70.8987 43.2849C70.5296 43.3665 70.1791 43.1429 70.0975 42.7738ZM74.4496 42.7439C74.4768 42.867 74.6103 42.9521 74.7333 42.925L75.6356 42.7256C75.7586 42.6984 75.8362 42.5952 75.853 42.4768C75.8608 42.3173 75.6832 42.2275 75.5328 42.2608L74.6306 42.4602C74.5076 42.4874 74.4224 42.6209 74.4496 42.7439ZM74.0568 40.9668C74.084 41.0898 74.2175 41.175 74.3406 41.1478L75.2428 40.9484C75.3932 40.9152 75.5164 40.7589 75.4421 40.6176C75.3769 40.5173 75.2631 40.4565 75.1401 40.4837L74.2379 40.6831C74.1148 40.7102 74.0296 40.8438 74.0568 40.9668ZM84.7697 49.0228C84.3839 49.0937 84.0076 48.8185 83.9367 48.4327L82.3624 38.9735C82.2523 38.281 82.7087 37.6209 83.3922 37.4699L87.2471 36.6179C87.3565 36.5937 87.4204 36.4936 87.3962 36.3842L87.363 36.2339C87.2754 35.8374 87.531 35.4368 87.9274 35.3492C88.3238 35.2616 88.7244 35.5172 88.812 35.9136L88.8453 36.064C88.8694 36.1734 88.9696 36.2372 89.0789 36.2131L93.1526 35.3128C93.5491 35.2252 93.933 35.4701 94.0206 35.8665C94.1082 36.263 93.8633 36.6469 93.4668 36.7345L84.0891 38.807C83.9388 38.8402 83.8429 38.9904 83.8625 39.1438L85.3735 48.1868C85.4475 48.5863 85.1722 48.9625 84.7697 49.0228ZM84.4407 42.0843C84.3561 41.7016 84.5903 41.3344 84.9731 41.2498L88.3086 40.5126C88.459 40.4794 88.5548 40.3292 88.5216 40.1788L88.5065 40.1104C88.4733 39.9601 88.323 39.8642 88.1727 39.8975L85.3156 40.5289C84.9328 40.6135 84.5656 40.3792 84.481 39.9964C84.3995 39.6273 84.6307 39.2465 85.0135 39.1619L87.9252 38.5184C88.0893 38.4821 88.2018 38.3425 88.284 38.1953C88.3905 38.0284 88.5607 37.8904 88.7657 37.8451C88.9845 37.7968 89.197 37.8502 89.3502 37.9597C89.4868 38.0585 89.6613 38.1347 89.8254 38.0984L92.0946 37.5969C92.7781 37.4459 93.4458 37.8718 93.5968 38.5553L93.7026 39.0338C93.7358 39.1841 93.886 39.28 94.0364 39.2468L94.0501 39.2437C94.4328 39.1591 94.8 39.3934 94.8846 39.7762C94.9662 40.1453 94.7349 40.5262 94.3522 40.6107L94.3385 40.6138C94.1881 40.647 94.0923 40.7972 94.1255 40.9476L94.2283 41.4124C94.3793 42.0959 93.9534 42.7635 93.2698 42.9146L90.9323 43.4312C90.8502 43.4493 90.7863 43.5495 90.8045 43.6315C90.8286 43.7409 90.9045 43.8245 90.9986 43.861L92.1733 44.3756C92.3175 44.4441 92.4892 44.3775 92.544 44.2364L92.8485 43.5382C93.0114 43.1724 93.4201 43.0104 93.7722 43.1764C94.1213 43.3286 94.2833 43.7373 94.131 44.0864L93.8295 44.7982C93.7747 44.9394 93.8383 45.0974 93.9825 45.1659L94.9022 45.5648C95.268 45.7277 95.43 46.1363 95.2777 46.4854C95.1118 46.8375 94.7031 46.9995 94.3541 46.8473L91.4703 45.6063C91.3732 45.5561 91.2486 45.641 91.2758 45.764L91.4993 46.7756C91.5869 47.1721 91.345 47.5696 90.9349 47.6603C90.5385 47.7479 90.1379 47.4923 90.0503 47.0959L89.9506 46.6448C89.9234 46.5217 89.7823 46.4669 89.6683 46.5351L87.1302 48.4151C86.8217 48.641 86.3783 48.5813 86.1524 48.2728C85.9265 47.9642 85.9863 47.5209 86.3085 47.292L89.339 45.0451C89.4742 44.9435 89.5367 44.772 89.5004 44.6079L89.3796 44.0611C89.3464 43.9107 89.1961 43.8149 89.0458 43.8481L86.1887 44.4796C85.806 44.5641 85.4387 44.3299 85.3542 43.9471C85.2726 43.578 85.5038 43.1971 85.8866 43.1125L88.7437 42.4811C88.894 42.4479 88.9899 42.2977 88.9566 42.1473L88.9446 42.0926C88.9113 41.9422 88.7611 41.8464 88.6107 41.8796L85.2752 42.6168C84.8925 42.7014 84.5222 42.4534 84.4407 42.0843ZM86.2611 44.9367C86.4437 44.5953 86.8751 44.4712 87.2059 44.6705L87.6141 44.8958C87.9449 45.0951 88.0659 45.5128 87.8833 45.8543C87.684 46.1851 87.2526 46.3091 86.9218 46.1098L86.5136 45.8846C86.1858 45.6989 86.0618 45.2675 86.2611 44.9367ZM90.4057 41.827C90.4389 41.9774 90.5891 42.0733 90.7395 42.04L92.4756 41.6563C92.626 41.6231 92.7218 41.4729 92.6886 41.3225L92.6765 41.2678C92.6433 41.1175 92.493 41.0216 92.3427 41.0549L90.6066 41.4385C90.4562 41.4718 90.3604 41.622 90.3936 41.7724L90.4057 41.827ZM89.9706 39.8585C90.0039 40.0089 90.1541 40.1048 90.3045 40.0715L92.0406 39.6878C92.1909 39.6546 92.2868 39.5044 92.2535 39.354L92.2384 39.2857C92.2052 39.1353 92.055 39.0395 91.9046 39.0727L90.1685 39.4564C90.0181 39.4896 89.9223 39.6398 89.9555 39.7902L89.9706 39.8585ZM108.582 43.6886C108.172 43.7792 107.771 43.5236 107.68 43.1135L107.309 41.4321C107.288 41.3364 107.155 41.3226 107.116 41.403L106.005 43.6416C105.825 43.9967 105.386 44.1511 105.031 43.9715C104.662 43.7949 104.522 43.3528 104.698 42.984L105.923 40.5483C105.971 40.4375 105.889 40.3265 105.779 40.3507L103.729 40.8039C103.346 40.8884 102.948 40.6465 102.861 40.2501C102.773 39.8537 103.032 39.4668 103.415 39.3822L106.422 38.7175C106.572 38.6843 106.668 38.534 106.635 38.3837L106.544 37.9736C106.511 37.8232 106.361 37.7274 106.211 37.7606L104.529 38.1322C103.777 38.2984 103.026 37.8192 102.86 37.0673L102.232 34.2239C102.065 33.4721 102.545 32.7209 103.296 32.5548L108.669 31.3675C109.421 31.2013 110.172 31.6805 110.338 32.4324L110.966 35.2758C111.133 36.0276 110.653 36.7787 109.901 36.9449L108.234 37.3135C108.083 37.3467 107.988 37.4969 108.021 37.6473L108.111 38.0574C108.145 38.2078 108.295 38.3036 108.445 38.2704L111.439 37.6087C111.835 37.5211 112.219 37.7661 112.307 38.1625C112.395 38.5589 112.15 38.9428 111.753 39.0304L109.812 39.4594C109.703 39.4836 109.661 39.6217 109.751 39.7023L111.889 41.3949C112.204 41.6549 112.263 42.1151 112.016 42.4277C111.756 42.7432 111.307 42.7852 110.994 42.5388L108.91 40.8919C108.837 40.8219 108.737 40.8871 108.758 40.9828L109.157 42.7873C109.247 43.1974 108.992 43.598 108.582 43.6886ZM99.198 37.8193L100.772 32.8115C100.891 32.4411 101.302 32.2214 101.675 32.354C102.059 32.4698 102.276 32.8664 102.146 33.2535L101.532 35.2101C101.469 35.3817 101.468 35.5684 101.507 35.7461L103.353 44.0986C103.441 44.495 103.196 44.8789 102.799 44.9665C102.403 45.0542 102.019 44.8092 101.931 44.4128L100.629 38.521C100.611 38.4389 100.493 38.4221 100.436 38.4919C100.257 38.7179 99.9485 38.8148 99.6692 38.7188C99.2851 38.6029 99.0684 38.2063 99.198 37.8193ZM104.243 36.4463C104.276 36.5967 104.426 36.6925 104.576 36.6593L109.238 35.6291C109.388 35.5958 109.484 35.4456 109.451 35.2953L108.955 33.0533C108.922 32.903 108.772 32.8071 108.622 32.8404L103.96 33.8706C103.81 33.9038 103.714 34.054 103.747 34.2044L104.243 36.4463ZM122.954 40.3402C122.606 40.1303 122.507 39.6792 122.73 39.3287L124.122 37.1284C124.189 37.042 124.107 36.931 123.998 36.9552L123.082 37.1576C122.33 37.3238 121.579 36.8446 121.413 36.0927L120.978 34.1242C120.812 33.3723 121.291 32.6212 122.043 32.4551L123.41 32.1529C123.533 32.1258 123.621 32.0059 123.591 31.8692C123.564 31.7462 123.43 31.661 123.307 31.6882L122.801 31.7999C122.446 31.8785 122.082 31.6579 122 31.2888C121.921 30.9334 122.156 30.5662 122.511 30.4876L125.573 29.8109C125.942 29.7293 126.296 29.9666 126.374 30.322C126.456 30.6911 126.232 31.0416 125.863 31.1232L125.207 31.2682C125.07 31.2984 124.999 31.4289 125.026 31.552C125.056 31.6887 125.173 31.7632 125.31 31.733L126.773 31.4097C127.524 31.2436 128.275 31.7228 128.442 32.4746L128.877 34.4431C129.043 35.195 128.564 35.9461 127.812 36.1123L126.705 36.357C126.609 36.3781 126.581 36.5132 126.665 36.5665L128.818 37.9402C129.152 38.1532 129.255 38.618 129.042 38.9518C128.818 39.3023 128.367 39.402 128.016 39.1784L125.796 37.7621C125.676 37.6739 125.499 37.7131 125.414 37.8467L123.965 40.1167C123.742 40.4672 123.291 40.5669 122.954 40.3402ZM117.916 40.9661L115.762 31.2193C115.596 30.4674 116.075 29.7163 116.827 29.5502L118.645 29.1484C119.329 28.9973 119.952 29.5477 119.875 30.2386L119.629 32.8881C119.611 33.0642 119.636 33.2449 119.703 33.4166L121.125 37.0597C121.376 37.678 121 38.3776 120.344 38.5226L119.784 38.6465C119.401 38.7311 119.017 38.4861 118.932 38.1034C118.848 37.7206 119.093 37.3367 119.475 37.2521L119.503 37.2461C119.585 37.2279 119.624 37.1475 119.592 37.0685L118.507 34.2975C118.259 33.6928 118.171 33.0382 118.23 32.3945L118.374 30.9718C118.388 30.8397 118.262 30.7241 118.125 30.7543L117.442 30.9054C117.291 30.9386 117.196 31.0888 117.229 31.2392L119.31 40.6579C119.395 41.0407 119.15 41.4246 118.767 41.5092C118.385 41.5938 118.001 41.3489 117.916 40.9661ZM120.141 31.5706C119.85 31.2909 119.849 30.8323 120.129 30.541L122.553 28.0839C123.032 27.5909 123.757 27.4308 124.385 27.679L127.822 28.9555C128.198 29.1017 128.39 29.518 128.244 29.8945C128.112 30.2679 127.682 30.4632 127.308 30.3307L123.977 29.0741C123.822 29.0223 123.644 29.0615 123.512 29.1768L121.16 31.5748C120.877 31.8524 120.419 31.8534 120.141 31.5706ZM122.774 35.5051C122.807 35.6555 122.958 35.7513 123.108 35.7181L124.106 35.4975C124.256 35.4643 124.352 35.3141 124.319 35.1637L124.005 33.742C123.971 33.5916 123.821 33.4958 123.671 33.529L122.673 33.7496C122.522 33.7828 122.427 33.933 122.46 34.0834L122.774 35.5051ZM125.754 34.8465C125.787 34.9968 125.938 35.0927 126.088 35.0595L127.182 34.8178C127.332 34.7845 127.428 34.6343 127.395 34.4839L127.08 33.0622C127.047 32.9119 126.897 32.816 126.747 32.8493L125.653 33.091C125.503 33.1242 125.407 33.2744 125.44 33.4248L125.754 34.8465ZM64.5438 69.9342C63.7919 70.1004 63.0408 69.6212 62.8746 68.8693L62.3429 66.4634C62.1767 65.7115 62.6559 64.9604 63.4078 64.7942L70.817 63.1568C71.5689 62.9906 72.32 63.4698 72.4861 64.2217L73.0179 66.6276C73.184 67.3795 72.7048 68.1306 71.953 68.2968L64.5438 69.9342ZM60.84 64.7882C60.6384 64.46 60.7589 64.0319 61.0871 63.8303L63.0276 62.6846C63.3588 62.4967 63.7976 62.6004 63.9885 62.9454C64.1901 63.2736 64.0696 63.7017 63.7414 63.9033L61.7979 65.0353C61.4697 65.2369 61.0416 65.1165 60.84 64.7882ZM60.1351 61.1445C60.1219 60.7603 60.4396 60.4463 60.8238 60.4331L62.7842 60.4156C63.1714 60.4161 63.4854 60.7338 63.4986 61.118C63.4982 61.5053 63.1804 61.8192 62.7932 61.8188L60.8328 61.8362C60.4456 61.8358 60.1346 61.5317 60.1351 61.1445ZM63.0187 71.662C62.8521 71.2974 63.0166 70.8739 63.3812 70.7073L65.2971 69.8394C65.648 69.6758 66.0715 69.8403 66.2351 70.1913C66.4017 70.5559 66.2372 70.9794 65.8862 71.143L63.9704 72.0109C63.6058 72.1775 63.1823 72.013 63.0187 71.662ZM64.0851 67.3401C64.1003 67.4084 64.167 67.451 64.2354 67.4359L71.1798 65.9012C71.2481 65.8861 71.2907 65.8193 71.2756 65.7509C71.2605 65.6826 71.1938 65.64 71.1254 65.6551L64.181 67.1898C64.1126 67.205 64.07 67.2717 64.0851 67.3401ZM64.4252 68.6843C64.495 68.7406 64.5891 68.7772 64.6848 68.756L71.3285 67.2877C71.4242 67.2666 71.4941 67.1938 71.5337 67.1133C71.5626 67.0496 71.4762 66.9827 71.4078 66.9978L64.4907 68.5265C64.4224 68.5416 64.3722 68.6387 64.4252 68.6843ZM63.8271 65.9777C63.7981 66.0414 63.8846 66.1083 63.953 66.0932L70.8701 64.5645C70.9384 64.5494 70.9886 64.4523 70.9355 64.4067C70.8657 64.3504 70.7716 64.3138 70.6759 64.335L64.0323 65.8033C63.9366 65.8244 63.8666 65.8972 63.8271 65.9777ZM63.9717 61.7017L64.1854 59.4895C64.2268 59.0932 64.581 58.8142 64.9742 58.842C65.2248 58.8726 65.4281 59.0141 65.5311 59.2207C65.6053 59.362 65.7389 59.4472 65.8756 59.417L70.8925 58.3083C71.5623 58.1602 72.1858 58.7106 72.1228 59.3985L72.0182 60.4826C71.9798 60.8925 71.615 61.1882 71.2051 61.1498C70.7951 61.1113 70.4994 60.7465 70.5379 60.3366L70.5777 59.998C70.5809 59.8826 70.4777 59.805 70.382 59.8262L65.7615 60.8473C65.5975 60.8836 65.4713 61.0262 65.4635 61.1856L65.3914 61.8324C65.3636 62.2257 65.0125 62.5183 64.6162 62.4769C64.2199 62.4354 63.9439 62.095 63.9717 61.7017ZM64.736 63.9272C64.5511 63.6096 64.6579 63.1846 64.9891 62.9966L67.2199 61.6721C67.3095 61.6236 67.3461 61.5295 67.3249 61.4338L67.3008 61.3244C67.2162 60.9416 67.4611 60.5577 67.8438 60.4732C68.2266 60.3886 68.5968 60.6365 68.6814 61.0193L68.7026 61.115C68.7237 61.2107 68.8102 61.2776 68.8983 61.2868L71.8287 61.5711C72.1946 61.6049 72.4706 61.9454 72.4367 62.3113C72.4059 62.6909 72.0655 62.9669 71.6859 62.9361L68.6234 62.6379C68.4472 62.6195 68.2559 62.6618 68.1039 62.7527L65.6802 64.1773C65.349 64.3652 64.9376 64.2554 64.736 63.9272ZM70.5275 69.2427C70.528 68.8554 70.8427 68.5278 71.2299 68.5282L73.3331 68.5079C73.734 68.5053 74.0616 68.8201 74.0642 69.2209C74.0637 69.6082 73.749 69.9358 73.3481 69.9384L71.2449 69.9587C70.8577 69.9583 70.5301 69.6435 70.5275 69.2427ZM85.978 66.9464C85.2262 67.1125 84.4751 66.6333 84.3089 65.8815L83.9917 64.4461C83.9615 64.3094 83.8097 64.2713 83.6896 64.3121C83.439 64.4105 83.1277 64.3646 82.923 64.1518C82.6317 63.8721 82.6308 63.4135 82.9105 63.1222L85.3111 60.6848C85.4296 60.5725 85.4451 60.3827 85.3465 60.2611L84.2427 58.7702C84.0199 58.4753 84.0963 58.0427 84.3911 57.8198C84.6997 57.5939 85.1293 57.6566 85.3552 57.9652L86.2528 59.1719C86.3149 59.2585 86.435 59.2177 86.4578 59.1266L86.8741 56.3391C86.9016 56.204 86.7757 56.0884 86.639 56.1186L83.7683 56.7531C83.6179 56.7863 83.5084 56.9395 83.528 57.0929L83.9188 60.548C83.9684 60.9672 83.6764 61.3328 83.2709 61.3794C82.8654 61.426 82.4968 61.1203 82.4502 60.7149L82.0323 57.0077C81.9452 56.224 82.4577 55.4942 83.2369 55.322L87.338 54.4157C88.0078 54.2676 88.6039 54.8241 88.5075 55.4906L87.8388 59.9254C87.8067 60.1046 87.8976 60.2565 88.0448 60.3387L90.6384 61.6294C90.9936 61.809 91.1343 62.251 90.9547 62.6062C90.8177 62.8945 90.5047 63.0354 90.2101 63.0001C90.0917 62.9833 89.9808 63.0651 90.008 63.1882L90.3101 64.5552C90.4762 65.307 89.997 66.0582 89.2452 66.2243L85.978 66.9464ZM78.526 64.9515L79.2069 60.4423C79.2207 60.3102 79.0948 60.1947 78.9718 60.2219L78.3977 60.3487C78.0012 60.4364 77.6006 60.1808 77.513 59.7843C77.4254 59.3879 77.681 58.9873 78.0774 58.8997L78.7609 58.7486C78.9113 58.7154 79.0071 58.5652 78.9739 58.4148L78.557 56.5283C78.4694 56.1319 78.7143 55.748 79.1107 55.6604C79.5072 55.5728 79.8911 55.8177 79.9787 56.2141L80.3956 58.1006C80.4288 58.251 80.5791 58.3468 80.7294 58.3136L81.1395 58.223C81.536 58.1354 81.9366 58.3909 82.0242 58.7874C82.1118 59.1838 81.8562 59.5844 81.4598 59.672L81.0497 59.7626C80.8993 59.7959 80.8035 59.9461 80.8367 60.0965L80.8729 60.2605C80.9122 60.4382 81.0062 60.6038 81.1245 60.7498L82.3878 62.1194C82.632 62.3809 82.6102 62.8015 82.3351 63.0487C82.1815 63.1973 81.9491 63.2487 81.7533 63.2059C81.6455 63.1724 81.5346 63.2543 81.5588 63.3636L82.4137 67.2323C82.5014 67.6287 82.2564 68.0126 81.86 68.1002C81.4636 68.1878 81.0797 67.9429 80.992 67.5465L80.1763 63.8555C80.1642 63.8009 80.0792 63.8053 80.0746 63.8493L79.8757 65.155C79.8312 65.5376 79.471 65.7893 79.1021 65.7418C78.7301 65.6806 78.4678 65.3371 78.526 64.9515ZM85.6641 65.2665C85.6974 65.4169 85.8476 65.5127 85.9979 65.4795L88.6089 64.9025C88.7593 64.8692 88.8552 64.719 88.8219 64.5686L88.5017 63.1196C88.4684 62.9692 88.3182 62.8734 88.1679 62.9066L85.5569 63.4837C85.4065 63.5169 85.3106 63.6671 85.3439 63.8175L85.6641 65.2665ZM86.3774 61.6822C86.3181 61.7383 86.3697 61.8416 86.4517 61.8235L87.0942 61.6815C87.1762 61.6633 87.193 61.5449 87.1096 61.4917L86.9958 61.4308C86.8379 61.3653 86.6572 61.3909 86.5416 61.5168L86.3774 61.6822ZM98.3129 61.7112C98.3462 61.8616 98.4964 61.9574 98.6467 61.9242L98.9201 61.8637C99.0705 61.8305 99.1664 61.6803 99.1331 61.5299L98.4443 58.4131C98.4111 58.2628 98.2608 58.1669 98.1105 58.2002L97.8371 58.2606C97.6867 58.2938 97.5909 58.444 97.6241 58.5944L98.3129 61.7112ZM95.1452 59.1853L96.1043 54.4425C96.1348 54.3211 96.0226 54.2025 95.8996 54.2297L94.8606 54.4593C94.4642 54.5469 94.0803 54.302 93.9927 53.9056C93.9051 53.5091 94.15 53.1252 94.5464 53.0376L98.1007 52.2521C98.4971 52.1645 98.881 52.4094 98.9686 52.8059C99.0562 53.2023 98.8113 53.5862 98.4149 53.6738L97.9501 53.7765C97.8134 53.8067 97.7085 53.916 97.6704 54.0678L97.1404 56.6653C97.1129 56.8004 97.2358 56.9023 97.3588 56.8751L98.097 56.712C98.8489 56.5458 99.6 57.025 99.7661 57.7769L100.6 61.5498C100.766 62.3017 100.287 63.0528 99.5351 63.219L98.6602 63.4123C97.9083 63.5785 97.1572 63.0993 96.9911 62.3474L96.4865 60.0645C96.4593 59.9415 96.3212 59.9003 96.2072 59.9685C96.0659 60.0428 95.8882 60.082 95.7091 60.05C95.3174 59.9645 95.0597 59.5769 95.1452 59.1853ZM100.073 57.9959L101.402 53.7593C101.449 53.6485 101.337 53.5299 101.214 53.5571L100.858 53.6357C100.735 53.6628 100.661 53.7797 100.688 53.9027L100.781 54.3265C100.863 54.6956 100.618 55.0795 100.249 55.1611C99.8663 55.2456 99.496 54.9977 99.4145 54.6286L99.2695 53.9724C99.1093 53.2479 99.5642 52.5165 100.302 52.3534L101.697 52.0452C101.861 52.009 102.004 51.877 102.056 51.7222L102.238 51.1226C102.368 50.7355 102.778 50.5158 103.152 50.6484C103.475 50.749 103.667 51.0362 103.666 51.352C103.665 51.4811 103.761 51.589 103.884 51.5618L104.923 51.3322C105.661 51.1691 106.396 51.6376 106.556 52.3622L106.701 53.0183C106.782 53.3874 106.537 53.7713 106.168 53.8529C105.785 53.9375 105.415 53.6895 105.334 53.3204L105.24 52.8967C105.213 52.7736 105.082 52.7021 104.959 52.7293L103.401 53.0737C103.237 53.11 103.108 53.2389 103.042 53.3967L102.384 55.4779C102.353 55.5993 102.465 55.7179 102.575 55.6937L102.889 55.6242C103.053 55.588 103.196 55.456 103.245 55.2875L103.635 54.0686C103.751 53.6846 104.164 53.4785 104.548 53.5944C104.932 53.7102 105.138 54.1235 105.022 54.5076L104.881 54.969C104.844 55.0631 104.94 55.1711 105.035 55.1499L106.389 54.8508C106.772 54.7662 107.139 55.0005 107.223 55.3833C107.305 55.7524 107.074 56.1332 106.691 56.2178L105.556 56.4686C105.406 56.5018 105.31 56.652 105.343 56.8024L105.352 56.8434C105.386 56.9938 105.536 57.0896 105.686 57.0564L106.629 56.8479C106.998 56.7664 107.382 57.0113 107.464 57.3804C107.549 57.7631 107.301 58.1334 106.932 58.215L105.988 58.4234C105.838 58.4566 105.742 58.6069 105.775 58.7572L105.787 58.8119C105.821 58.9623 105.971 59.0581 106.121 59.0249L107.064 58.8164C107.434 58.7349 107.814 58.9661 107.899 59.3489C107.984 59.7316 107.736 60.1019 107.367 60.1834L106.423 60.3919C106.273 60.4251 106.177 60.5754 106.21 60.7257L106.222 60.7804C106.256 60.9308 106.406 61.0266 106.556 60.9934L107.691 60.7426C108.074 60.658 108.441 60.8923 108.525 61.2751C108.61 61.6579 108.376 62.0251 107.993 62.1097L103.578 63.0855C102.826 63.2517 102.075 62.7724 101.908 62.0206L101.259 59.0815C101.229 58.9448 101.074 58.893 100.951 58.9202C100.817 58.9641 100.671 58.9533 100.547 58.9091C100.163 58.7932 99.9431 58.383 100.073 57.9959ZM103.242 61.439C103.276 61.5894 103.426 61.6852 103.576 61.652L104.615 61.4224C104.765 61.3892 104.861 61.2389 104.828 61.0886L104.816 61.0339C104.783 60.8835 104.633 60.7877 104.482 60.8209L103.443 61.0505C103.293 61.0838 103.197 61.234 103.23 61.3843L103.242 61.439ZM102.807 59.4705C102.841 59.6209 102.991 59.7167 103.141 59.6835L104.18 59.4539C104.33 59.4207 104.426 59.2704 104.393 59.1201L104.381 59.0654C104.348 58.915 104.197 58.8192 104.047 58.8524L103.008 59.082C102.858 59.1153 102.762 59.2655 102.795 59.4158L102.807 59.4705ZM102.372 57.502C102.405 57.6524 102.556 57.7482 102.706 57.715L103.745 57.4854C103.895 57.4522 103.991 57.3019 103.958 57.1516L103.949 57.1106C103.916 56.9602 103.765 56.8644 103.615 56.8976L102.576 57.1272C102.426 57.1604 102.33 57.3106 102.363 57.461L102.372 57.502ZM117.82 55.3212C117.425 55.222 117.195 54.8284 117.294 54.4337L117.646 53.1085C117.673 52.9734 117.583 52.8214 117.437 52.8106L116.749 52.7475C116.353 52.7061 116.06 52.355 116.098 51.945C116.14 51.5487 116.491 51.2561 116.887 51.2975L117.809 51.3806C117.958 51.4051 118.107 51.3005 118.155 51.132L118.63 49.3209C118.66 49.1995 118.548 49.0809 118.425 49.1081L116.361 49.5643C115.978 49.6489 115.594 49.404 115.51 49.0212C115.425 48.6384 115.67 48.2545 116.053 48.1699L121.534 46.9585C122.273 46.7953 122.999 47.2942 123.135 48.0385L123.919 52.7544C123.98 53.1568 123.704 53.5331 123.305 53.607C122.902 53.6673 122.513 53.3951 122.452 52.9926L121.725 48.6655C121.706 48.5121 121.556 48.4163 121.405 48.4495L120.558 48.6368C120.394 48.6731 120.264 48.802 120.216 48.9705L119.622 51.281C119.581 51.4191 119.686 51.568 119.831 51.5788L121.017 51.6895C121.414 51.731 121.709 52.0958 121.668 52.4921C121.626 52.8884 121.275 53.181 120.879 53.1396L119.459 53.0088C119.297 52.9874 119.148 53.092 119.11 53.2438L118.707 54.7953C118.608 55.19 118.214 55.4203 117.82 55.3212ZM111.336 51.9365C111.252 51.5537 111.497 51.1698 111.88 51.0852L114.873 50.4236C115.256 50.339 115.64 50.5839 115.725 50.9667C115.809 51.3494 115.564 51.7333 115.181 51.8179L112.188 52.4796C111.805 52.5641 111.421 52.3192 111.336 51.9365ZM113.203 59.5388L112.973 58.4999C112.807 57.748 113.273 56.9999 114.038 56.8307L115.337 56.5437C116.102 56.3745 116.84 56.8568 117.006 57.6086L117.236 58.6475C117.402 59.3994 116.936 60.1475 116.171 60.3167L114.872 60.6037C114.107 60.7729 113.369 60.2906 113.203 59.5388ZM112.497 55.8237C112.412 55.4409 112.657 55.057 113.04 54.9724L115.459 54.4377C115.842 54.3531 116.226 54.598 116.311 54.9808C116.395 55.3635 116.15 55.7474 115.767 55.832L113.348 56.3668C112.965 56.4514 112.581 56.2064 112.497 55.8237ZM112.059 53.8415C111.974 53.4587 112.219 53.0748 112.602 52.9903L115.021 52.4555C115.404 52.3709 115.788 52.6158 115.873 52.9986C115.96 53.395 115.712 53.7653 115.329 53.8499L112.91 54.3846C112.527 54.4692 112.146 54.2379 112.059 53.8415ZM111.188 49.9045C111.104 49.5217 111.349 49.1378 111.732 49.0533L114.151 48.5185C114.534 48.4339 114.918 48.6788 115.002 49.0616C115.087 49.4444 114.842 49.8283 114.459 49.9129L112.04 50.4476C111.657 50.5322 111.273 50.2873 111.188 49.9045ZM114.51 58.9633C114.543 59.1136 114.693 59.2095 114.843 59.1762L115.595 59.0101C115.746 58.9768 115.841 58.8266 115.808 58.6763L115.699 58.1841C115.666 58.0338 115.516 57.9379 115.366 57.9712L114.614 58.1373C114.463 58.1705 114.368 58.3208 114.401 58.4711L114.51 58.9633ZM117.478 58.8376L117.568 57.1689C117.596 56.7756 117.931 56.4723 118.324 56.5001C118.717 56.5279 119.02 56.8623 118.993 57.2556L118.903 58.9243C118.875 59.3176 118.54 59.6209 118.147 59.5931C117.754 59.5653 117.451 59.2309 117.478 58.8376ZM119.491 58.2781L118.962 55.8859C118.875 55.4894 119.12 55.1055 119.516 55.0179C119.913 54.9303 120.296 55.1752 120.384 55.5717L120.834 57.6085C120.867 57.7589 121.018 57.8547 121.168 57.8215L122.986 57.4197C123.383 57.3321 123.783 57.5876 123.871 57.9841C123.958 58.3805 123.703 58.7811 123.306 58.8687L121.16 59.343C120.408 59.5092 119.657 59.03 119.491 58.2781ZM120.665 55.2227C120.471 54.8641 120.606 54.433 120.954 54.2558C121.298 54.0648 121.73 54.199 121.92 54.5439L122.508 55.647C122.699 55.9919 122.565 56.423 122.22 56.614C121.875 56.8049 121.444 56.6708 121.253 56.3258L120.665 55.2227ZM123.19 55.6827C123.013 55.3348 123.133 54.9067 123.478 54.7158C123.826 54.5385 124.268 54.6559 124.445 55.0039L125.418 56.8105C125.609 57.1555 125.475 57.5866 125.13 57.7775C124.785 57.9684 124.354 57.8343 124.163 57.4894L123.19 55.6827ZM129.963 52.9816C129.635 53.0541 129.318 52.8517 129.245 52.5237C129.173 52.1956 129.375 51.8784 129.703 51.8059L134.378 50.7727C134.474 50.7515 134.527 50.6681 134.506 50.5724C134.485 50.4767 134.398 50.4098 134.303 50.4309L130.297 51.3161C129.969 51.3886 129.652 51.1863 129.58 50.8582C129.51 50.5438 129.709 50.213 130.037 50.1405L134.043 49.2553C134.139 49.2342 134.192 49.1507 134.171 49.055C134.149 48.9593 134.066 48.9061 133.97 48.9272L130.02 49.8003C129.692 49.8728 129.374 49.6705 129.302 49.3424C129.229 49.0143 129.432 48.6972 129.76 48.6247L133.711 47.7516C133.806 47.7304 133.859 47.647 133.838 47.5513C133.817 47.4556 133.731 47.3887 133.635 47.4098L129.042 48.4249C128.714 48.4975 128.397 48.2951 128.324 47.967C128.255 47.6526 128.454 47.3218 128.782 47.2493L133.375 46.2342C133.471 46.2131 133.524 46.1296 133.503 46.0339C133.482 45.9382 133.398 45.885 133.303 45.9061L129.68 46.7067C129.352 46.7792 129.035 46.5769 128.962 46.2488C128.89 45.9207 129.092 45.6036 129.42 45.5311L133.057 44.7275C133.139 44.7093 133.192 44.6259 133.174 44.5439C133.086 44.1474 133.342 43.7468 133.738 43.6592C134.134 43.5716 134.535 43.8272 134.623 44.2236C134.641 44.3056 134.724 44.3589 134.806 44.3408L137.745 43.6912C138.443 43.5371 139.127 43.9737 139.281 44.6709L139.299 44.7529C139.32 44.8486 139.404 44.9019 139.499 44.8807L139.745 44.8263C140.074 44.7538 140.394 44.9698 140.463 45.2843C140.536 45.6123 140.333 45.9295 140.005 46.002L139.759 46.0564C139.664 46.0775 139.613 46.1746 139.634 46.2703L139.653 46.3523C139.807 47.0495 139.37 47.7339 138.673 47.8879L135.747 48.5345C135.652 48.5556 135.599 48.6391 135.62 48.7348C135.641 48.8305 135.724 48.8837 135.82 48.8626L139.825 47.9774C140.153 47.9048 140.474 48.1208 140.543 48.4353C140.616 48.7633 140.413 49.0805 140.085 49.153L136.08 50.0382C135.984 50.0593 135.934 50.1565 135.955 50.2522C135.976 50.3478 136.06 50.4011 136.155 50.3799L140.83 49.3467C141.159 49.2742 141.476 49.4765 141.548 49.8046C141.621 50.1327 141.418 50.4498 141.09 50.5223L129.963 52.9816ZM131.08 55.5734L130.836 54.4662C130.67 53.7143 131.135 52.9662 131.901 52.797L139.269 51.1686C140.021 51.0025 140.772 51.4817 140.938 52.2335L141.183 53.3408C141.349 54.0927 140.87 54.8438 140.118 55.0099L132.75 56.6383C131.984 56.8075 131.247 56.3253 131.08 55.5734ZM132.505 55.402C132.52 55.4703 132.59 55.5266 132.672 55.5085L139.698 53.9556C139.78 53.9375 139.834 53.854 139.819 53.7857C139.8 53.7036 139.717 53.6504 139.635 53.6685L132.609 55.2214C132.526 55.2395 132.487 55.32 132.505 55.402ZM132.2 54.0213C132.218 54.1033 132.285 54.1459 132.367 54.1278L139.393 52.5749C139.475 52.5568 139.532 52.487 139.513 52.405C139.498 52.3366 139.415 52.2834 139.333 52.3015L132.306 53.8544C132.224 53.8725 132.185 53.9529 132.2 54.0213ZM135.287 47.2311C135.308 47.3267 135.392 47.38 135.488 47.3588L138.085 46.7848C138.181 46.7637 138.234 46.6802 138.213 46.5845C138.192 46.4888 138.105 46.4219 138.009 46.4431L135.412 47.0171C135.316 47.0382 135.266 47.1354 135.287 47.2311ZM134.952 45.7137C134.973 45.8094 135.057 45.8626 135.152 45.8415L137.75 45.2674C137.845 45.2463 137.899 45.1628 137.877 45.0671C137.856 44.9714 137.773 44.9182 137.677 44.9394L135.08 45.5134C134.984 45.5345 134.931 45.618 134.952 45.7137Z" fill="black"/>
<g filter="url(#filter0_d_48_392)">
<path d="M31.3108 63.8775C30.8402 58.0559 35.4377 53.0717 41.2783 53.0717H118.177C120.97 53.0717 123.635 54.2395 125.529 56.2926L139.822 71.7934C143.507 75.7891 148.659 78.1131 154.093 78.2307L206.977 79.3746C212.792 79.5004 217.273 84.544 216.714 90.3338L210.179 157.982C209.684 163.108 205.376 167.02 200.225 167.02H48.8736C43.6632 167.02 39.3259 163.02 38.9061 157.826L31.3108 63.8775Z" fill="#FF8F38" fill-opacity="0.6" shape-rendering="crispEdges"/>
</g>
<g filter="url(#filter1_f_48_392)">
<path d="M50.0325 74.7957C49.5669 68.977 54.1633 63.998 60.0006 63.998H118.454C121.264 63.998 123.945 65.1807 125.84 67.2565L135.516 77.8583C139.203 81.8977 144.384 84.251 149.851 84.3705L188.258 85.2098C194.069 85.3368 198.548 90.3736 197.994 96.1593L193.128 147.045C192.638 152.176 188.328 156.094 183.174 156.094H65.7699C60.5564 156.094 56.2176 152.088 55.8018 146.891L50.0325 74.7957Z" fill="#FFEEC4" fill-opacity="0.8"/>
</g>
<path d="M172.052 154.096C171.459 154.096 170.946 153.604 170.946 152.99C170.946 152.375 171.459 151.884 172.052 151.884H173.711C173.916 151.884 174.06 151.679 173.978 151.495L173.63 150.573C173.404 149.999 173.691 149.365 174.264 149.139C174.838 148.914 175.473 149.201 175.698 149.774L176.354 151.495C176.435 151.74 176.661 151.884 176.907 151.884H178.238C178.463 151.884 178.647 151.699 178.647 151.474V148.975C178.647 148.75 178.463 148.566 178.238 148.566H173.548C172.933 148.566 172.442 148.074 172.442 147.46C172.442 146.845 172.933 146.354 173.548 146.354H178.238C178.463 146.354 178.647 146.169 178.647 145.944V144.244C178.647 144.019 178.463 143.835 178.238 143.835H176.026C175.411 143.835 174.92 143.343 174.92 142.729C174.92 142.114 175.411 141.623 176.026 141.623H183.522C184.136 141.623 184.628 142.114 184.628 142.729C184.628 143.343 184.136 143.835 183.522 143.835H181.31C181.085 143.835 180.9 144.019 180.9 144.244V145.944C180.9 146.169 181.085 146.354 181.31 146.354H186C186.615 146.354 187.106 146.845 187.106 147.46C187.106 148.074 186.615 148.566 186 148.566H181.31C181.085 148.566 180.9 148.75 180.9 148.975V151.474C180.9 151.699 181.085 151.884 181.31 151.884H182.641C182.887 151.884 183.112 151.74 183.194 151.495L183.85 149.774C184.075 149.201 184.71 148.914 185.283 149.139C185.857 149.365 186.144 149.999 185.918 150.573L185.57 151.495C185.488 151.679 185.632 151.884 185.836 151.884H187.475C188.089 151.884 188.581 152.375 188.581 152.99C188.581 153.604 188.089 154.096 187.475 154.096H172.052ZM170.332 143.609C169.984 143.118 170.086 142.421 170.578 142.073L178.115 136.584C179.098 135.867 180.45 135.867 181.433 136.584L188.97 142.073C189.462 142.421 189.564 143.118 189.216 143.609C188.847 144.101 188.151 144.203 187.659 143.855L180.102 138.366C179.917 138.223 179.631 138.223 179.446 138.366L171.889 143.855C171.397 144.203 170.701 144.101 170.332 143.609Z" fill="white"/>
<path d="M155.914 154.403C155.279 154.403 154.787 153.891 154.787 153.276V152.252C154.787 152.027 154.603 151.843 154.377 151.843H146.39C145.775 151.843 145.304 151.351 145.304 150.757C145.304 150.163 145.775 149.672 146.39 149.672H148.54C148.766 149.672 148.95 149.487 148.95 149.262V144.674C148.95 143.548 149.872 142.626 150.998 142.626H154.377C154.603 142.626 154.787 142.442 154.787 142.216V140.537C154.787 140.312 154.603 140.127 154.377 140.127H149.585C149.339 140.127 149.134 140.291 149.073 140.517L148.09 144.162C147.926 144.756 147.311 145.125 146.718 144.961C146.103 144.797 145.755 144.183 145.919 143.568L147.639 137.158C147.803 136.564 148.417 136.195 149.011 136.359C149.626 136.523 149.974 137.137 149.81 137.731C149.79 137.854 149.872 137.956 149.974 137.956H162.222C162.816 137.956 163.307 138.448 163.307 139.042C163.307 139.636 162.816 140.127 162.222 140.127H157.45C157.224 140.127 157.04 140.312 157.04 140.537V142.216C157.04 142.442 157.224 142.626 157.45 142.626H161.423C162.017 142.626 162.509 143.118 162.509 143.712C162.509 144.306 162.017 144.797 161.423 144.797H157.45C157.224 144.797 157.04 144.981 157.04 145.207V149.262C157.04 149.487 157.224 149.672 157.45 149.672H162.386C162.98 149.672 163.471 150.163 163.471 150.757C163.471 151.351 162.98 151.843 162.386 151.843H157.45C157.224 151.843 157.04 152.027 157.04 152.252V153.276C157.04 153.891 156.528 154.403 155.914 154.403ZM151.203 149.262C151.203 149.487 151.387 149.672 151.613 149.672H154.377C154.603 149.672 154.787 149.487 154.787 149.262V145.207C154.787 144.981 154.603 144.797 154.377 144.797H151.613C151.387 144.797 151.203 144.981 151.203 145.207V149.262Z" fill="white"/>
<path d="M127.463 148.054C126.685 148.054 126.029 147.398 126.029 146.62C126.029 145.842 126.685 145.186 127.463 145.186C128.241 145.186 128.897 145.842 128.897 146.62C128.897 147.398 128.241 148.054 127.463 148.054Z" fill="white"/>
<path d="M100.285 154.157C99.8545 153.747 99.8545 153.072 100.285 152.641L102.968 149.938C103.091 149.836 103.009 149.651 102.845 149.651H101.472C100.346 149.651 99.4244 148.73 99.4244 147.603V144.654C99.4244 143.527 100.346 142.606 101.472 142.606H103.521C103.705 142.606 103.869 142.462 103.869 142.258C103.869 142.073 103.705 141.909 103.521 141.909H102.763C102.23 141.909 101.78 141.479 101.78 140.926C101.78 140.394 102.23 139.943 102.763 139.943H107.351C107.904 139.943 108.334 140.394 108.334 140.926C108.334 141.479 107.904 141.909 107.351 141.909H106.368C106.163 141.909 106.019 142.073 106.019 142.258C106.019 142.462 106.163 142.606 106.368 142.606H108.559C109.685 142.606 110.607 143.527 110.607 144.654V147.603C110.607 148.73 109.685 149.651 108.559 149.651H106.9C106.757 149.651 106.675 149.836 106.777 149.938L109.419 152.58C109.829 152.99 109.829 153.686 109.419 154.096C108.989 154.526 108.313 154.526 107.883 154.096L105.159 151.372C105.016 151.208 104.749 151.208 104.586 151.372L101.8 154.157C101.37 154.587 100.694 154.587 100.285 154.157ZM92.8909 153.461V138.858C92.8909 137.731 93.8125 136.81 94.939 136.81H97.663C98.6871 136.81 99.4039 137.793 99.0762 138.755L97.8883 142.462C97.8064 142.708 97.7859 142.974 97.8268 143.241L98.7075 148.893C98.8714 149.856 98.1136 150.737 97.1305 150.737H96.2908C95.7173 150.737 95.2462 150.266 95.2462 149.692C95.2462 149.119 95.7173 148.648 96.2908 148.648H96.3317C96.4546 148.648 96.5365 148.545 96.516 148.422L95.8402 144.121C95.6763 143.179 95.7582 142.217 96.045 141.315L96.7004 139.329C96.7618 139.144 96.6185 138.94 96.4136 138.94H95.3896C95.1643 138.94 94.98 139.124 94.98 139.349V153.461C94.98 154.034 94.5089 154.505 93.9354 154.505C93.3619 154.505 92.8909 154.034 92.8909 153.461ZM99.0352 140.742C98.7075 140.25 98.8509 139.595 99.3425 139.267L103.582 136.523C104.422 135.97 105.507 135.97 106.327 136.523L110.832 139.431C111.324 139.759 111.467 140.414 111.14 140.906C110.832 141.397 110.157 141.541 109.665 141.233L105.302 138.387C105.098 138.264 104.831 138.264 104.606 138.387L100.489 141.07C99.9979 141.377 99.3425 141.233 99.0352 140.742ZM101.554 147.193C101.554 147.419 101.739 147.603 101.964 147.603H103.459C103.684 147.603 103.869 147.419 103.869 147.193V145.063C103.869 144.838 103.684 144.654 103.459 144.654H101.964C101.739 144.654 101.554 144.838 101.554 145.063V147.193ZM106.019 147.193C106.019 147.419 106.204 147.603 106.429 147.603H108.067C108.293 147.603 108.477 147.419 108.477 147.193V145.063C108.477 144.838 108.293 144.654 108.067 144.654H106.429C106.204 144.654 106.019 144.838 106.019 145.063V147.193Z" fill="white"/>
<path d="M78.6976 154.403C78.0831 154.403 77.5916 153.911 77.5916 153.297V150.778C77.5916 150.634 77.4072 150.573 77.3253 150.675L75.0314 153.522C74.6628 153.973 73.9869 154.055 73.5363 153.686C73.0652 153.317 73.0038 152.641 73.3724 152.17L75.8916 149.078C75.994 148.934 75.9121 148.75 75.7483 148.75H72.6761C72.1026 148.75 71.6111 148.279 71.6111 147.685C71.6111 147.091 72.1026 146.62 72.6761 146.62H77.1819C77.4072 146.62 77.5916 146.436 77.5916 146.21V145.596C77.5916 145.371 77.4072 145.186 77.1819 145.186H74.6628C73.5363 145.186 72.6146 144.265 72.6146 143.138V138.878C72.6146 137.752 73.5363 136.83 74.6628 136.83H82.7119C83.8383 136.83 84.76 137.752 84.76 138.878V143.138C84.76 144.265 83.8383 145.186 82.7119 145.186H80.2132C79.9879 145.186 79.8035 145.371 79.8035 145.596V146.21C79.8035 146.436 79.9879 146.62 80.2132 146.62H84.6986C85.2925 146.62 85.7636 147.091 85.7636 147.685C85.7636 148.279 85.2925 148.75 84.6986 148.75H81.7902C81.6264 148.75 81.524 148.934 81.6264 149.078L84.1456 152.17C84.5142 152.641 84.4528 153.317 84.0022 153.686C83.5311 154.055 82.8757 153.973 82.5071 153.522L80.0493 150.511C79.9674 150.389 79.8035 150.45 79.8035 150.593V153.297C79.8035 153.911 79.312 154.403 78.6976 154.403ZM67.1462 143.056L70.9761 136.4C71.2629 135.908 71.9183 135.724 72.4098 136.031C72.9219 136.318 73.1062 136.953 72.799 137.465L71.3038 140.066C71.1605 140.291 71.099 140.558 71.099 140.824V153.338C71.099 153.932 70.628 154.403 70.034 154.403C69.44 154.403 68.969 153.932 68.969 153.338V144.51C68.969 144.388 68.8051 144.326 68.7027 144.408C68.375 144.674 67.904 144.715 67.5353 144.49C67.0233 144.203 66.8389 143.568 67.1462 143.056ZM74.7856 142.688C74.7856 142.913 74.97 143.097 75.1953 143.097H82.1794C82.4047 143.097 82.589 142.913 82.589 142.688V139.329C82.589 139.103 82.4047 138.919 82.1794 138.919H75.1953C74.97 138.919 74.7856 139.103 74.7856 139.329V142.688Z" fill="white"/>
<defs>
<filter id="filter0_d_48_392" x="27.2777" y="53.0717" width="193.484" height="121.949" filterUnits="userSpaceOnUse" color-interpolation-filters="sRGB">
<feFlood flood-opacity="0" result="BackgroundImageFix"/>
<feColorMatrix in="SourceAlpha" type="matrix" values="0 0 0 0 0 0 0 0 0 0 0 0 0 0 0 0 0 0 127 0" result="hardAlpha"/>
<feOffset dy="4"/>
<feGaussianBlur stdDeviation="2"/>
<feComposite in2="hardAlpha" operator="out"/>
<feColorMatrix type="matrix" values="0 0 0 0 0 0 0 0 0 0 0 0 0 0 0 0 0 0 0.25 0"/>
<feBlend mode="normal" in2="BackgroundImageFix" result="effect1_dropShadow_48_392"/>
<feBlend mode="normal" in="SourceGraphic" in2="effect1_dropShadow_48_392" result="shape"/>
</filter>
<filter id="filter1_f_48_392" x="0" y="13.998" width="248.041" height="192.096" filterUnits="userSpaceOnUse" color-interpolation-filters="sRGB">
<feFlood flood-opacity="0" result="BackgroundImageFix"/>
<feBlend mode="normal" in="SourceGraphic" in2="BackgroundImageFix" result="shape"/>
<feGaussianBlur stdDeviation="25" result="effect1_foregroundBlur_48_392"/>
</filter>
</defs>
</svg>
