<svg width="278" height="220" viewBox="0 0 278 220" fill="none" xmlns="http://www.w3.org/2000/svg">
<path d="M0 136.686V129.795C0 123.196 1.03971 122.447 8.23451 122.447H29.1951V105.356C29.1951 103.399 29.7981 101.9 32.7925 101.9C35.7869 101.9 36.681 102.941 36.681 105.356V122.447H66.7703V98.9234H10.0228C3.13993 98.9234 3.28549 96.3837 3.28549 92.7823V87.3907C3.28549 81.999 4.3252 80.1879 10.4803 80.1879H134.164C139.696 80.1879 141.505 81.541 141.505 86.6413V91.8872C141.505 97.8826 139.716 98.9234 134.164 98.9234H74.5681V102.962H128.176C133.873 102.962 134.622 103.857 134.622 109.415V112.871C134.622 117.659 132.522 118.263 128.176 118.263H74.5681V122.468H136.556C143.439 122.468 143.75 125.465 143.75 128.921V136.707C143.75 141.495 142.399 142.993 137.304 142.993H7.77704C2.07942 142.993 0 143.451 0 136.707V136.686ZM0.291119 74.1717V68.9258C0.291119 64.4293 1.03971 63.0762 5.07379 61.5773C9.10787 60.0785 16.7601 57.5388 20.0456 55.2905C20.5031 54.9991 20.7942 54.6868 21.0853 54.3954H10.8962C5.19856 54.3954 3.41025 52.2928 3.41025 47.6506V29.956C3.41025 26.0632 4.90744 22.6075 10.8962 22.6075H34.8511V19.0061H4.03408C1.33083 19.0061 0.582238 17.7987 0.582238 15.8627V8.07708C0.582238 5.6831 0.873357 4.78796 4.3252 4.78796H34.8719V2.5397C34.8719 0.291441 36.5147 0 38.906 0C41.2973 0 42.3578 1.2074 42.3578 2.5397V4.78796H71.4074C74.2562 4.78796 75.0048 5.53738 75.0048 8.53506V14.9884C75.0048 17.3824 74.1106 19.0269 71.2618 19.0269H42.3578V22.6283H64.5245C69.7646 22.6283 71.1163 24.2729 71.1163 28.7694V46.9012C71.1163 52.2928 69.3279 54.3954 63.7759 54.3954H44.9155C51.1954 56.9351 58.8477 59.6413 64.67 60.6822C69.6191 61.723 69.4527 63.5341 69.4527 67.1355V71.4863C69.4527 77.0237 67.4981 78.2311 61.2182 76.4408C55.9781 75.5457 47.7435 72.2357 42.3578 69.5503V76.5865C42.3578 78.2311 41.4637 79.5842 38.4693 79.5842C35.4749 79.5842 34.8719 78.0854 34.8719 76.5865V54.3954H28.8832V58.6005C28.8832 66.0947 27.0949 68.4886 23.3519 71.1949C19.7545 73.9011 13.6202 76.1494 7.17401 77.9397C2.39134 79.4385 0.291119 78.9805 0.291119 74.1926V74.1717ZM11.3744 41.343H34.8719V36.2428H11.6864C10.3347 36.2428 9.89805 36.7007 9.89805 37.8873V39.8441C9.89805 40.5936 9.75249 41.343 11.3952 41.343H11.3744ZM42.3786 36.2636V41.3638H63.0481C64.5453 41.3638 64.6908 40.4687 64.6908 39.7192V37.7624C64.6908 36.555 64.3997 36.2636 63.3392 36.2636H42.3786ZM137.907 29.5188H135.058L135.204 38.9698C135.204 49.0037 132.355 52.9174 129.506 55.6028C132.501 56.8102 135.35 57.851 138.198 58.8919C142.836 60.5365 143.896 61.1402 143.896 65.491V72.9852C143.896 78.0854 142.399 79.8757 137.304 78.5225C126.678 75.8163 117.55 72.3815 109.752 68.1764C99.4172 72.9643 87.7516 76.5657 76.6683 78.2103C72.1768 78.814 70.9707 78.814 70.8251 73.2558V64.5542C70.8251 59.454 72.0312 58.7045 76.9594 57.6637C81.5965 56.7685 86.0881 55.4154 90.5796 53.9166C87.8764 50.9189 86.3792 47.3175 86.0881 40.7185C84.2998 42.0716 82.3451 43.1125 80.7024 44.0076C75.9197 46.2559 73.362 45.7979 73.362 40.5519V30.518C73.362 25.2721 73.9651 24.0647 77.3961 21.8164C80.9935 19.4225 83.9879 17.6114 87.1278 13.1148C88.3339 11.4703 88.625 8.61833 88.625 6.22435V4.26753C88.625 1.12413 89.9766 0.37471 91.7649 0.37471C93.7196 0.37471 95.799 0.52043 95.799 3.97609V8.01463H137.72C142.503 8.01463 144 8.30607 144 14.6137V22.5659C144 28.7069 142.648 29.4564 137.866 29.4564L137.907 29.5188ZM127.864 29.5188H97.1714C96.1317 31.0176 94.9256 32.3708 93.7196 33.7239L94.6137 34.619C98.9597 38.3661 104.054 41.9675 109.586 45.2566C113.786 42.8626 117.966 40.0107 122.312 36.8673C125.015 34.9105 126.803 32.9745 127.843 29.5188H127.864Z" fill="black"/>
<path d="M171.354 121.256C170.897 113.511 173.451 112.766 180.472 112.455C196.777 111.854 232.378 108.727 249.12 103.509C266.173 98.2899 268.27 95.1628 268.707 85.9058C269.164 74.8677 266.609 73.8323 258.986 73.0867C249.867 72.3412 235.806 72.1962 221.453 72.9418C202.759 73.6873 179.122 74.5778 168.217 75.3233C159.244 76.0689 157.603 74.2879 157.603 66.087L157.001 54.904C157.001 48.3392 156.71 45.9576 166.722 45.2121C187.202 43.721 205.002 43.721 225.503 43.721C235.079 43.721 252.422 44.7565 258.259 45.8126C269.932 47.7593 277.991 53.7236 277.991 77.125C277.991 88.598 278.137 92.7812 277.243 104.71C275.893 121.256 270.971 129.457 249.577 134.987C230.426 139.915 206.352 141.552 183.92 141.986C174.054 142.131 172.101 141.241 171.811 133.185L171.354 121.256ZM181.677 31.4818C175.092 31.4818 174.802 29.1003 174.802 24.772V9.86138C174.802 5.09825 175.84 2.86165 181.677 3.00661C202.759 3.60718 242.39 7.02421 261.25 9.71641C266.775 10.317 267.98 12.2429 267.98 16.4262V31.9374C267.98 37.3011 265.736 38.6472 261.25 38.6472C240.915 35.5201 206.519 32.0824 181.677 31.4818Z" fill="black"/>
<path d="M12.3652 220C4.16763 220 0 214.879 0 207.853V183.761C0 177.182 4.23189 172 12.6222 172H42.8972C45.743 172 46 172.509 46 175.039V181.802C46 183.761 45.6695 184.586 42.4933 184.586H9.96927C5.5446 184.586 4.47975 186.044 4.47975 189.452V202.478C4.47975 206.333 5.80164 207.414 10.2263 207.414H42.4841C45.5226 207.414 45.9908 208.239 45.9908 210.637V216.706C45.9908 219.429 45.6603 219.991 42.4841 219.991H12.3468L12.3652 220Z" fill="black"/>
<path d="M60.5303 203.241C60.5303 205.964 61.0988 206.892 64.2472 206.892H93.6591C96.6851 206.892 97 208.438 97 210.354V216.598C97 219.072 96.3703 220 93.6591 220H66.6436C58.9561 220 56 217.277 56 211.221V174.474C56 172.679 56.3148 172 58.2651 172C60.093 172 60.5303 172.498 60.5303 174.225V203.233V203.241Z" fill="black"/>
<path d="M110 210.088V181.728C110 175.158 113.814 172 120.744 172H147.953C154.31 172 158 174.404 158 181.728V209.895C158 216.526 154.76 220 147.194 220H120.117C113.187 220 110.009 217.158 110.009 210.088H110ZM149.86 184.693H118.202C115.341 184.693 114.388 185.895 114.388 188.105V204.026C114.388 206.43 115.147 207.123 117.69 207.123H149.984C152.147 207.123 153.603 206.175 153.603 203.711V187.667C153.603 185.833 152.712 184.763 149.851 184.702L149.86 184.693Z" fill="black"/>
<path d="M214 207.922C214 216.697 210.266 220 201.645 220H179.641C171.02 220 168 217.259 168 208.484V174.179C168 172.562 168.447 172 170.189 172C171.734 172 172.378 172.432 172.378 174.179V201.386C172.378 205.804 173.986 206.928 177.586 206.928H204.092C207.693 206.928 209.56 204.81 209.56 200.703V174.179C209.56 172.501 210.007 172 211.811 172C213.482 172 214 172.501 214 174.179V207.922Z" fill="black"/>
<path d="M222 213.684V178.886C222 173.772 224.034 172 229.444 172H254.589C265.155 172 270 177.053 270 187.474V204.211C270 216.526 264.395 220 253.511 220H228.808C223.459 220 222 218.044 222 213.684ZM259.373 184.693H228.366C226.58 184.693 226.332 185.447 226.332 187.026V205.026C226.332 206.605 226.845 207.114 228.622 207.114H259.496C264.147 207.114 265.677 206.167 265.677 200.798V190.877C265.677 186.263 264.527 184.754 259.373 184.684V184.693Z" fill="black"/>
</svg>
