<svg width="825" height="381" viewBox="0 0 825 381" fill="none" xmlns="http://www.w3.org/2000/svg">
<path d="M446.846 0C525.446 0 591.72 52.7791 612.158 124.83C632.678 118.428 654.501 114.979 677.13 114.979C797.456 114.979 895 212.522 895 332.849V411.569H275.033V171.813C275.033 76.9236 351.956 0.000211512 446.846 0Z" fill="url(#paint0_linear_124_3047)"/>
<path d="M183.899 141.109C285.464 141.109 367.799 223.444 367.799 325.009V354.08H367.8V410.916H4.89453V362.573H0V325.009C0.000130454 223.444 82.3347 141.11 183.899 141.109Z" fill="url(#paint1_linear_124_3047)"/>
<defs>
<linearGradient id="paint0_linear_124_3047" x1="446.847" y1="0" x2="446.847" y2="411.569" gradientUnits="userSpaceOnUse">
<stop stop-color="#63CEFF"/>
<stop offset="1" stop-color="white"/>
</linearGradient>
<linearGradient id="paint1_linear_124_3047" x1="183.9" y1="141.109" x2="183.9" y2="362.573" gradientUnits="userSpaceOnUse">
<stop stop-color="#63CEFF"/>
<stop offset="1" stop-color="white"/>
</linearGradient>
</defs>
</svg>
