<svg width="249" height="207" viewBox="0 0 249 207" fill="none" xmlns="http://www.w3.org/2000/svg">
<rect x="38.2417" y="21.8528" width="173.264" height="145.168" rx="10" fill="black"/>
<rect x="106.548" y="36.1222" width="97.8477" height="115.286" rx="5" transform="rotate(7.87578 106.548 36.1222)" fill="#B5B5B5"/>
<rect x="106.028" y="35.6765" width="97.8477" height="115.286" rx="5" transform="rotate(7.87578 106.028 35.6765)" fill="#B5B5B5"/>
<rect x="106.172" y="36.0592" width="97.8477" height="115.286" rx="5" transform="rotate(7.87578 106.172 36.0592)" fill="#F5F5F5"/>
<rect x="132.046" y="46.9734" width="43.5955" height="3.87516" rx="1.93758" transform="rotate(7.87578 132.046 46.9734)" fill="#D9D9D9"/>
<rect x="110.551" y="50.3574" width="85.7378" height="3.87516" rx="1.93758" transform="rotate(7.87578 110.551 50.3574)" fill="#D9D9D9"/>
<rect x="103.117" y="104.098" width="85.7378" height="3.87516" rx="1.93758" transform="rotate(7.87578 103.117 104.098)" fill="#D9D9D9"/>
<rect x="107.962" y="69.0704" width="85.7378" height="3.87516" rx="1.93758" transform="rotate(7.87578 107.962 69.0704)" fill="#D9D9D9"/>
<rect x="109.688" y="56.5952" width="85.7378" height="3.87516" rx="1.93758" transform="rotate(7.87578 109.688 56.5952)" fill="#D9D9D9"/>
<rect x="102.254" y="110.335" width="85.7378" height="3.87516" rx="1.93758" transform="rotate(7.87578 102.254 110.335)" fill="#D9D9D9"/>
<rect x="107.1" y="75.3079" width="64.4245" height="3.87516" rx="1.93758" transform="rotate(7.87578 107.1 75.3079)" fill="#D9D9D9"/>
<rect x="108.825" y="62.8329" width="43.5955" height="3.87516" rx="1.93758" transform="rotate(7.87578 108.825 62.8329)" fill="#D9D9D9"/>
<rect x="101.391" y="116.573" width="43.5955" height="3.87516" rx="1.93758" transform="rotate(7.87578 101.391 116.573)" fill="#D9D9D9"/>
<rect x="141.41" y="134.823" width="43.5955" height="3.87516" rx="1.93758" transform="rotate(7.87578 141.41 134.823)" fill="#D9D9D9"/>
<rect x="140.548" y="141.061" width="43.5955" height="3.87516" rx="1.93758" transform="rotate(7.87578 140.548 141.061)" fill="#D9D9D9"/>
<rect x="160.317" y="150.153" width="22.7665" height="3.87516" rx="1.93758" transform="rotate(7.87578 160.317 150.153)" fill="#D9D9D9"/>
<rect x="105.374" y="87.7837" width="43.5955" height="3.87516" rx="1.93758" transform="rotate(7.87578 105.374 87.7837)" fill="#D9D9D9"/>
<rect x="106.237" y="81.5458" width="85.7378" height="3.87516" rx="1.93758" transform="rotate(7.87578 106.237 81.5458)" fill="#D9D9D9"/>
<rect x="74.6497" y="36.1576" width="97.8477" height="115.286" rx="5" transform="rotate(-2.59781 74.6497 36.1576)" fill="#B5B5B5"/>
<rect x="74.0571" y="35.8137" width="97.8477" height="115.286" rx="5" transform="rotate(-2.59781 74.0571 35.8137)" fill="#B5B5B5"/>
<rect x="74.2681" y="36.1637" width="97.8477" height="115.286" rx="5" transform="rotate(-2.59781 74.2681 36.1637)" fill="#F5F5F5"/>
<rect x="101.696" y="42.1929" width="43.5955" height="3.87516" rx="1.93758" transform="rotate(-2.59781 101.696 42.1929)" fill="#D9D9D9"/>
<rect x="81.1738" y="49.4279" width="85.7378" height="3.87516" rx="1.93758" transform="rotate(-2.59781 81.1738 49.4279)" fill="#D9D9D9"/>
<rect x="83.6323" y="103.624" width="85.7378" height="3.87516" rx="1.93758" transform="rotate(-2.59781 83.6323 103.624)" fill="#D9D9D9"/>
<rect x="82.03" y="68.2998" width="85.7378" height="3.87516" rx="1.93758" transform="rotate(-2.59781 82.03 68.2998)" fill="#D9D9D9"/>
<rect x="81.459" y="55.7183" width="85.7378" height="3.87516" rx="1.93758" transform="rotate(-2.59781 81.459 55.7183)" fill="#D9D9D9"/>
<rect x="83.9177" y="109.915" width="85.7378" height="3.87516" rx="1.93758" transform="rotate(-2.59781 83.9177 109.915)" fill="#D9D9D9"/>
<rect x="82.3152" y="74.5898" width="64.4245" height="3.87516" rx="1.93758" transform="rotate(-2.59781 82.3152 74.5898)" fill="#D9D9D9"/>
<rect x="81.7444" y="62.009" width="43.5955" height="3.87516" rx="1.93758" transform="rotate(-2.59781 81.7444 62.009)" fill="#D9D9D9"/>
<rect x="84.2034" y="116.205" width="43.5955" height="3.87516" rx="1.93758" transform="rotate(-2.59781 84.2034 116.205)" fill="#D9D9D9"/>
<rect x="126.873" y="126.876" width="43.5955" height="3.87516" rx="1.93758" transform="rotate(-2.59781 126.873 126.876)" fill="#D9D9D9"/>
<rect x="127.158" y="133.167" width="43.5955" height="3.87516" rx="1.93758" transform="rotate(-2.59781 127.158 133.167)" fill="#D9D9D9"/>
<rect x="148.251" y="138.514" width="22.7665" height="3.87516" rx="1.93758" transform="rotate(-2.59781 148.251 138.514)" fill="#D9D9D9"/>
<rect x="82.886" y="87.1715" width="43.5955" height="3.87516" rx="1.93758" transform="rotate(-2.59781 82.886 87.1715)" fill="#D9D9D9"/>
<rect x="82.6008" y="80.8809" width="85.7378" height="3.87516" rx="1.93758" transform="rotate(-2.59781 82.6008 80.8809)" fill="#D9D9D9"/>
<rect x="48.9438" y="38.6294" width="97.8477" height="115.286" rx="5" transform="rotate(-11.2411 48.9438 38.6294)" fill="#B5B5B5"/>
<rect x="48.3062" y="38.3785" width="97.8477" height="115.286" rx="5" transform="rotate(-11.2411 48.3062 38.3785)" fill="#B5B5B5"/>
<rect x="48.5676" y="38.6929" width="97.8477" height="115.286" rx="5" transform="rotate(-11.2411 48.5676 38.6929)" fill="#F5F5F5"/>
<rect x="76.5896" y="40.5315" width="43.5955" height="3.87516" rx="1.93758" transform="rotate(-11.2411 76.5896 40.5315)" fill="#D9D9D9"/>
<rect x="57.3879" y="50.7686" width="85.7378" height="3.87516" rx="1.93758" transform="rotate(-11.2411 57.3879 50.7686)" fill="#D9D9D9"/>
<rect x="67.9636" y="103.98" width="85.7378" height="3.87516" rx="1.93758" transform="rotate(-11.2411 67.9636 103.98)" fill="#D9D9D9"/>
<rect x="61.0706" y="69.2972" width="85.7378" height="3.87516" rx="1.93758" transform="rotate(-11.2411 61.0706 69.2972)" fill="#D9D9D9"/>
<rect x="58.6152" y="56.9448" width="85.7378" height="3.87516" rx="1.93758" transform="rotate(-11.2411 58.6152 56.9448)" fill="#D9D9D9"/>
<rect x="69.1912" y="110.156" width="85.7378" height="3.87516" rx="1.93758" transform="rotate(-11.2411 69.1912 110.156)" fill="#D9D9D9"/>
<rect x="62.2981" y="75.4734" width="64.4245" height="3.87516" rx="1.93758" transform="rotate(-11.2411 62.2981 75.4734)" fill="#D9D9D9"/>
<rect x="59.843" y="63.1211" width="43.5955" height="3.87516" rx="1.93758" transform="rotate(-11.2411 59.843 63.1211)" fill="#D9D9D9"/>
<rect x="70.4189" y="116.332" width="43.5955" height="3.87516" rx="1.93758" transform="rotate(-11.2411 70.4189 116.332)" fill="#D9D9D9"/>
<rect x="114.208" y="120.469" width="43.5955" height="3.87516" rx="1.93758" transform="rotate(-11.2411 114.208 120.469)" fill="#D9D9D9"/>
<rect x="115.435" y="126.646" width="43.5955" height="3.87516" rx="1.93758" transform="rotate(-11.2411 115.435 126.646)" fill="#D9D9D9"/>
<rect x="137.092" y="128.762" width="22.7665" height="3.87516" rx="1.93758" transform="rotate(-11.2411 137.092 128.762)" fill="#D9D9D9"/>
<rect x="64.7532" y="87.8263" width="43.5955" height="3.87516" rx="1.93758" transform="rotate(-11.2411 64.7532 87.8263)" fill="#D9D9D9"/>
<rect x="63.5256" y="81.6499" width="85.7378" height="3.87516" rx="1.93758" transform="rotate(-11.2411 63.5256 81.6499)" fill="#D9D9D9"/>
<g filter="url(#filter0_d_48_391)">
<path d="M31.3106 63.8776C30.84 58.056 35.4375 53.0718 41.2781 53.0718H118.177C120.97 53.0718 123.635 54.2396 125.528 56.2927L139.822 71.7936C143.507 75.7892 148.659 78.1133 154.093 78.2308L206.976 79.3747C212.792 79.5005 217.273 84.5441 216.714 90.334L210.179 157.982C209.683 163.109 205.375 167.021 200.225 167.021H48.8733C43.6629 167.021 39.3257 163.02 38.9058 157.826L31.3106 63.8776Z" fill="black" fill-opacity="0.6" shape-rendering="crispEdges"/>
</g>
<g filter="url(#filter1_f_48_391)">
<path d="M50.0325 74.796C49.5669 68.9772 54.1633 63.9983 60.0006 63.9983H118.454C121.264 63.9983 123.945 65.181 125.84 67.2568L135.516 77.8585C139.203 81.8979 144.384 84.2512 149.851 84.3707L188.258 85.21C194.069 85.337 198.548 90.3739 197.994 96.1595L193.128 147.046C192.638 152.176 188.328 156.094 183.174 156.094H65.7699C60.5564 156.094 56.2176 152.088 55.8018 146.892L50.0325 74.796Z" fill="#B0B0B0" fill-opacity="0.8"/>
</g>
<path d="M74.3127 155.333C72.9927 155.333 71.9127 154.253 71.9127 152.933V138.245C71.9127 136.925 72.9927 135.845 74.3127 135.845H84.9447C86.2647 135.845 87.3447 136.925 87.3447 138.245V152.933C87.3447 154.253 86.2647 155.333 84.9447 155.333H74.3127ZM65.5527 142.685L69.8007 135.317C70.1607 134.693 70.9527 134.477 71.5527 134.837C72.1767 135.197 72.3927 135.989 72.0327 136.589L70.7367 138.845C70.5687 139.109 70.4967 139.421 70.4967 139.733V154.613C70.4967 155.309 69.9447 155.861 69.2487 155.861C68.5527 155.861 68.0007 155.309 68.0007 154.613V144.053C68.0007 143.933 67.8327 143.885 67.7607 144.005C67.4007 144.581 66.6327 144.773 66.0327 144.437C65.4087 144.077 65.1927 143.285 65.5527 142.685ZM74.4087 152.357C74.4087 152.621 74.6247 152.837 74.8887 152.837H84.3687C84.6327 152.837 84.8487 152.621 84.8487 152.357V138.821C84.8487 138.557 84.6327 138.341 84.3687 138.341H74.8887C74.6247 138.341 74.4087 138.557 74.4087 138.821V152.357ZM74.7687 142.685C74.7687 142.013 75.2967 141.485 75.9687 141.485H78.0087C78.2247 141.485 78.4167 141.293 78.4167 141.077V140.333C78.4167 139.637 78.9927 139.061 79.6887 139.061C80.3847 139.061 80.9607 139.637 80.9607 140.333V141.077C80.9607 141.293 81.1527 141.485 81.3687 141.485H83.4087C84.0807 141.485 84.6087 142.013 84.6087 142.685C84.6087 143.357 84.0807 143.885 83.4087 143.885H81.4407C81.1767 143.885 80.9607 144.101 80.9607 144.365V145.109C80.9607 145.373 81.1767 145.589 81.4407 145.589H81.7287C83.0487 145.589 84.1287 146.669 84.1287 147.989V149.309C84.1287 150.629 83.0487 151.709 81.7287 151.709H77.6487C76.3287 151.709 75.2487 150.629 75.2487 149.309V147.989C75.2487 146.669 76.3287 145.589 77.6487 145.589H77.9367C78.2007 145.589 78.4167 145.373 78.4167 145.109V144.365C78.4167 144.101 78.2007 143.885 77.9367 143.885H75.9687C75.2967 143.885 74.7687 143.357 74.7687 142.685ZM77.7447 148.925C77.7447 149.189 77.9607 149.405 78.2247 149.405H81.1527C81.4167 149.405 81.6327 149.189 81.6327 148.925V148.373C81.6327 148.109 81.4167 147.893 81.1527 147.893H78.2247C77.9607 147.893 77.7447 148.109 77.7447 148.373V148.925ZM116.001 155.141C115.473 155.645 114.657 155.645 114.129 155.141L106.953 147.965C106.761 147.773 106.473 147.773 106.281 147.965L99.1047 155.141C98.5767 155.645 97.7607 155.645 97.2327 155.141C96.7287 154.613 96.7287 153.773 97.2327 153.269L104.961 145.541C105.177 145.325 105.297 145.037 105.297 144.725V136.373C105.297 135.653 105.897 135.053 106.617 135.053C107.337 135.053 107.937 135.653 107.937 136.373V144.725C107.937 145.037 108.057 145.325 108.273 145.541L116.001 153.269C116.505 153.773 116.505 154.613 116.001 155.141ZM132.777 144.605C132.129 144.605 131.601 144.077 131.601 143.429C131.601 142.781 132.129 142.253 132.777 142.253H137.481C137.721 142.253 137.913 142.061 137.961 141.821C137.985 141.557 137.745 141.341 137.481 141.341H134.217C133.569 141.341 133.041 140.813 133.041 140.165C133.041 139.517 133.569 138.989 134.217 138.989H137.505C137.745 138.989 137.961 138.773 137.961 138.533C137.961 138.293 137.745 138.077 137.505 138.077H132.777C132.129 138.077 131.601 137.549 131.601 136.901C131.601 136.253 132.129 135.725 132.777 135.725H137.481C137.745 135.725 137.937 135.509 137.961 135.245C138.033 134.597 138.585 134.117 139.257 134.117C139.905 134.117 140.457 134.597 140.529 135.245C140.577 135.509 140.769 135.725 141.033 135.725H145.737C146.385 135.725 146.913 136.253 146.913 136.901C146.913 137.549 146.385 138.077 145.737 138.077H141.009C140.745 138.077 140.553 138.293 140.553 138.533C140.553 138.773 140.745 138.989 141.009 138.989H145.425C146.073 138.989 146.601 139.517 146.601 140.165C146.601 140.813 146.073 141.341 145.425 141.341H141.033C140.745 141.341 140.529 141.557 140.553 141.821C140.577 142.061 140.769 142.253 141.033 142.253H146.001C146.649 142.253 147.177 142.781 147.177 143.429C147.177 144.077 146.649 144.605 146.001 144.605H132.777ZM124.665 144.005L125.649 139.421C125.769 138.797 126.393 138.389 127.017 138.533C127.641 138.653 128.025 139.277 127.905 139.901L126.921 144.485C126.801 145.085 126.177 145.493 125.553 145.349C124.929 145.229 124.545 144.605 124.665 144.005ZM128.001 154.733V135.389C128.001 134.693 128.553 134.141 129.249 134.141C129.945 134.141 130.497 134.693 130.497 135.389V154.733C130.497 155.429 129.945 155.981 129.249 155.981C128.553 155.981 128.001 155.429 128.001 154.733ZM130.569 139.589C130.473 138.989 130.881 138.437 131.481 138.341C132.081 138.245 132.657 138.653 132.753 139.253L132.945 140.501C133.041 141.101 132.633 141.677 132.033 141.773C131.409 141.869 130.857 141.461 130.761 140.861L130.569 139.589ZM132.657 154.685V147.725C132.657 146.405 133.737 145.325 135.057 145.325H143.433C144.753 145.325 145.833 146.405 145.833 147.725V154.685C145.833 155.405 145.257 155.981 144.537 155.981C143.817 155.981 143.241 155.405 143.241 154.685V154.157C143.241 153.965 143.073 153.797 142.881 153.797H135.633C135.417 153.797 135.249 153.965 135.249 154.157V154.685C135.249 155.405 134.673 155.981 133.953 155.981C133.257 155.981 132.657 155.405 132.657 154.685ZM135.249 151.085C135.249 151.277 135.417 151.445 135.609 151.445H142.881C143.073 151.445 143.241 151.277 143.241 151.085C143.241 150.893 143.073 150.725 142.881 150.725H135.609C135.417 150.725 135.249 150.893 135.249 151.085ZM135.249 148.037C135.249 148.229 135.417 148.373 135.609 148.373H142.881C143.073 148.373 143.241 148.229 143.241 148.037C143.241 147.845 143.073 147.677 142.881 147.677H135.609C135.417 147.677 135.249 147.845 135.249 148.037ZM176.457 155.309C175.977 155.789 175.209 155.789 174.729 155.309L173.265 153.845C173.097 153.653 172.785 153.677 172.641 153.869L171.249 155.597C170.817 156.125 170.025 156.221 169.497 155.789C168.945 155.333 168.873 154.565 169.305 154.013L170.865 152.093C171.033 151.877 171.009 151.589 170.817 151.397L169.497 150.053C169.017 149.573 169.017 148.805 169.497 148.325C169.953 147.845 170.745 147.845 171.225 148.325L172.137 149.237C172.281 149.381 172.545 149.333 172.617 149.117L173.313 146.933C173.385 146.717 173.217 146.477 173.001 146.477H168.993C168.729 146.477 168.513 146.693 168.513 146.957V154.709C168.513 155.405 167.937 155.981 167.241 155.981C166.545 155.981 165.969 155.405 165.969 154.709V137.741C165.969 136.421 167.049 135.341 168.369 135.341H174.561C175.833 135.341 176.841 136.445 176.697 137.717L176.457 139.973C176.313 141.317 175.185 142.349 173.817 142.349H171.465C170.793 142.349 170.241 141.797 170.241 141.125C170.241 140.453 170.793 139.901 171.465 139.901H173.577C173.841 139.901 174.081 139.685 174.105 139.421L174.225 138.269C174.249 138.005 174.057 137.789 173.793 137.789H168.993C168.729 137.789 168.513 138.005 168.513 138.269V143.549C168.513 143.813 168.729 144.029 168.993 144.029H174.489C175.665 144.029 176.505 145.181 176.145 146.309L174.585 151.085C174.513 151.373 174.585 151.685 174.777 151.901L176.457 153.557C176.937 154.037 176.937 154.829 176.457 155.309ZM155.313 141.389C155.313 140.717 155.865 140.189 156.513 140.189H158.649C158.937 140.189 159.129 139.973 159.129 139.709V139.133C159.129 138.869 158.937 138.653 158.649 138.653H157.137C156.465 138.653 155.937 138.125 155.937 137.453C155.937 136.781 156.465 136.253 157.137 136.253H158.793C158.985 136.253 159.129 136.085 159.129 135.893V135.437C159.129 134.717 159.729 134.141 160.425 134.141C161.145 134.141 161.721 134.717 161.721 135.437V135.893C161.721 136.085 161.889 136.253 162.081 136.253H163.737C164.409 136.253 164.937 136.781 164.937 137.453C164.937 138.125 164.409 138.653 163.737 138.653H162.201C161.937 138.653 161.721 138.869 161.721 139.133V139.709C161.721 139.973 161.937 140.189 162.201 140.189H164.337C165.009 140.189 165.537 140.717 165.537 141.389C165.537 141.749 165.393 142.061 165.153 142.277C164.913 142.493 164.673 142.709 164.601 142.997L163.833 145.853C163.809 145.997 163.905 146.141 164.049 146.141H164.337C165.009 146.141 165.537 146.669 165.537 147.341C165.537 148.013 165.009 148.541 164.337 148.541H162.201C161.937 148.541 161.721 148.757 161.721 149.021V149.957C161.721 150.221 161.937 150.437 162.201 150.437H163.905C164.553 150.437 165.105 150.965 165.105 151.637C165.105 152.309 164.553 152.837 163.905 152.837H162.201C161.937 152.837 161.721 153.053 161.721 153.317V154.685C161.721 155.405 161.145 155.981 160.425 155.981C159.729 155.981 159.129 155.405 159.129 154.685V153.317C159.129 153.053 158.937 152.837 158.649 152.837H156.969C156.321 152.837 155.769 152.309 155.769 151.637C155.769 150.965 156.321 150.437 156.969 150.437H158.649C158.937 150.437 159.129 150.221 159.129 149.957V149.021C159.129 148.757 158.937 148.541 158.649 148.541H156.537C155.865 148.541 155.337 148.013 155.337 147.341C155.337 146.669 155.865 146.141 156.537 146.141H156.945C157.113 146.141 157.233 145.997 157.185 145.829L156.441 143.045C156.369 142.757 156.105 142.565 155.865 142.397C155.553 142.181 155.313 141.821 155.313 141.389ZM159.033 143.045L159.729 145.685C159.801 145.949 160.041 146.141 160.329 146.141H160.689C160.977 146.141 161.217 145.949 161.313 145.685L162.009 143.045C162.057 142.829 161.889 142.589 161.649 142.589H159.393C159.129 142.589 158.961 142.829 159.033 143.045Z" fill="white"/>
<path d="M61.7568 52.4348C61.0047 52.6 60.2542 52.1198 60.089 51.3677L59.5603 48.9611C59.3951 48.2091 59.8753 47.4586 60.6273 47.2934L68.0386 45.6652C68.7907 45.5 69.5412 45.9802 69.7064 46.7323L70.2351 49.1389C70.4003 49.8909 69.9201 50.6414 69.1681 50.8066L61.7568 52.4348ZM58.0595 47.2841C57.8584 46.9556 57.9794 46.5277 58.3079 46.3265L60.2498 45.1832C60.5813 44.9957 61.0199 45.1 61.2104 45.4452C61.4115 45.7737 61.2905 46.2016 60.962 46.4028L59.0171 47.5324C58.6886 47.7336 58.2607 47.6126 58.0595 47.2841ZM57.3592 43.6395C57.3465 43.2553 57.6646 42.9417 58.0488 42.929L60.0093 42.914C60.3965 42.9149 60.7101 43.233 60.7228 43.6173C60.7219 44.0045 60.4037 44.318 60.0165 44.3171L58.0561 44.3321C57.6689 44.3311 57.3583 44.0267 57.3592 43.6395ZM60.2295 54.1606C60.0634 53.7958 60.2284 53.3725 60.5933 53.2064L62.5102 52.3409C62.8614 52.1778 63.2846 52.3428 63.4478 52.694C63.6139 53.0588 63.4489 53.4821 63.0977 53.6452L61.1808 54.5107C60.816 54.6768 60.3927 54.5118 60.2295 54.1606ZM61.3015 49.84C61.3165 49.9084 61.3832 49.9511 61.4516 49.9361L68.3979 48.4101C68.4663 48.3951 68.509 48.3283 68.494 48.26C68.4789 48.1916 68.4122 48.1489 68.3438 48.1639L61.3975 49.6899C61.3291 49.7049 61.2864 49.7717 61.3015 49.84ZM61.6399 51.1847C61.7096 51.2411 61.8036 51.2778 61.8994 51.2567L68.5449 49.7968C68.6406 49.7758 68.7106 49.7031 68.7503 49.6227C68.7793 49.559 68.6929 49.492 68.6246 49.507L61.7055 51.027C61.6372 51.042 61.5868 51.139 61.6399 51.1847ZM61.0451 48.4773C61.0161 48.541 61.1025 48.608 61.1709 48.593L68.0899 47.073C68.1582 47.058 68.2086 46.961 68.1555 46.9153C68.0858 46.8589 67.9918 46.8222 67.8961 46.8433L61.2505 48.3032C61.1548 48.3242 61.0848 48.3969 61.0451 48.4773ZM61.1952 44.2015L61.4116 41.9896C61.4536 41.5933 61.8081 41.3148 62.2013 41.3431C62.4518 41.374 62.6549 41.5158 62.7577 41.7225C62.8317 41.8639 62.9651 41.9493 63.1019 41.9192L68.1202 40.8168C68.7902 40.6696 69.413 41.2208 69.3491 41.9086L69.2432 42.9925C69.2042 43.4024 68.8391 43.6977 68.4292 43.6587C68.0193 43.6198 67.724 43.2546 67.763 42.8447L67.8033 42.5062C67.8066 42.3908 67.7036 42.3131 67.6078 42.3341L62.986 43.3494C62.822 43.3855 62.6956 43.5279 62.6876 43.6873L62.6147 44.334C62.5864 44.7272 62.2349 45.0195 61.8387 44.9775C61.4424 44.9356 61.1669 44.5947 61.1952 44.2015ZM61.9566 46.428C61.7721 46.1102 61.8795 45.6852 62.2109 45.4977L64.4433 44.176C64.533 44.1276 64.5697 44.0335 64.5487 43.9378L64.5247 43.8284C64.4406 43.4456 64.686 43.062 65.0688 42.9779C65.4517 42.8938 65.8216 43.1422 65.9057 43.525L65.9268 43.6208C65.9478 43.7165 66.0342 43.7835 66.1222 43.7928L69.0523 44.0809C69.4181 44.1151 69.6937 44.456 69.6594 44.8218C69.6281 45.2014 69.2873 45.4769 68.9077 45.4456L65.8456 45.1436C65.6695 45.125 65.4781 45.167 65.326 45.2578L62.9005 46.6793C62.569 46.8668 62.1578 46.7565 61.9566 46.428ZM67.7414 51.7507C67.7424 51.3635 68.0575 51.0363 68.4447 51.0372L70.5479 51.0195C70.9488 51.0175 71.276 51.3326 71.2781 51.7335C71.2771 52.1207 70.962 52.448 70.5611 52.45L68.4579 52.4677C68.0707 52.4668 67.7435 52.1516 67.7414 51.7507ZM83.1948 49.474C82.4427 49.6392 81.6922 49.159 81.527 48.407L81.2116 46.9712C81.1816 46.8345 81.0298 46.7961 80.9098 46.8369C80.659 46.935 80.3478 46.8886 80.1433 46.6756C79.8524 46.3954 79.852 45.9368 80.1321 45.646L82.5358 43.2115C82.6545 43.0995 82.6701 42.9097 82.5717 42.788L81.4699 41.2956C81.2474 41.0005 81.3243 40.5679 81.6195 40.3454C81.9283 40.1199 82.3579 40.1832 82.5834 40.492L83.4794 41.6999C83.5415 41.7866 83.6615 41.7459 83.6845 41.6548L84.1043 38.8678C84.132 38.7327 84.0062 38.617 83.8695 38.6471L80.9979 39.2779C80.8475 39.3109 80.7378 39.464 80.7572 39.6175L81.1436 43.073C81.1927 43.4922 80.9003 43.8575 80.4947 43.9036C80.0892 43.9497 79.7209 43.6436 79.6748 43.238L79.2617 39.5303C79.1755 38.7465 79.689 38.0174 80.4684 37.8462L84.5706 36.945C85.2406 36.7978 85.836 37.355 85.7388 38.0214L85.0644 42.4554C85.0321 42.6345 85.1228 42.7866 85.2699 42.8689L87.8619 44.1629C88.2168 44.3429 88.357 44.7852 88.1769 45.1401C88.0396 45.4283 87.7264 45.5687 87.4319 45.5331C87.3135 45.5161 87.2025 45.5978 87.2295 45.7209L87.5299 47.0883C87.6951 47.8403 87.215 48.5908 86.4629 48.7561L83.1948 49.474ZM75.7453 47.4697L76.4319 42.9614C76.4459 42.8293 76.3202 42.7136 76.1971 42.7406L75.6228 42.8668C75.2263 42.9539 74.826 42.6978 74.7389 42.3013C74.6518 41.9047 74.9078 41.5045 75.3044 41.4173L75.9881 41.2672C76.1385 41.2341 76.2345 41.084 76.2015 40.9336L75.787 39.0466C75.6998 38.65 75.9452 38.2665 76.3418 38.1793C76.7383 38.0922 77.1219 38.3376 77.209 38.7342L77.6236 40.6212C77.6566 40.7716 77.8067 40.8676 77.9571 40.8346L78.3674 40.7445C78.7639 40.6574 79.1642 40.9134 79.2513 41.31C79.3384 41.7065 79.0823 42.1068 78.6858 42.1939L78.2755 42.284C78.1251 42.3171 78.0291 42.4672 78.0621 42.6176L78.0982 42.7817C78.1372 42.9594 78.231 43.1252 78.3491 43.2712L79.6107 44.6425C79.8545 44.9043 79.8322 45.3248 79.5568 45.5717C79.4031 45.7201 79.1706 45.7712 78.9748 45.7282C78.8671 45.6945 78.756 45.7763 78.7801 45.8857L79.6302 49.7554C79.7173 50.1519 79.4719 50.5355 79.0753 50.6226C78.6788 50.7097 78.2952 50.4643 78.2081 50.0678L77.397 46.3758C77.385 46.3211 77.3 46.3255 77.2953 46.3695L77.0947 47.6749C77.0498 48.0575 76.6893 48.3087 76.3204 48.2607C75.9485 48.1991 75.6866 47.8553 75.7453 47.4697ZM82.883 47.7938C82.9161 47.9442 83.0662 48.0402 83.2166 48.0072L85.8283 47.4334C85.9787 47.4004 86.0748 47.2503 86.0417 47.0999L85.7233 45.6504C85.6903 45.5 85.5402 45.404 85.3897 45.437L82.778 46.0108C82.6276 46.0438 82.5316 46.1939 82.5646 46.3443L82.883 47.7938ZM83.6009 44.2103C83.5415 44.2663 83.5929 44.3697 83.6749 44.3517L84.3176 44.2105C84.3997 44.1925 84.4166 44.0741 84.3333 44.0207L84.2195 43.9597C84.0618 43.894 83.881 43.9194 83.7653 44.0452L83.6009 44.2103ZM98.9398 45.9148C98.5433 46.0019 98.146 45.7595 98.0559 45.3493C97.9688 44.9527 98.2249 44.5525 98.6214 44.4654L98.6898 44.4503C98.7718 44.4323 98.8389 44.3459 98.8208 44.2639L97.7304 39.3002C97.6433 38.9037 97.8857 38.5064 98.2959 38.4163C98.6925 38.3292 99.0928 38.5853 99.1799 38.9818L100.243 43.8224C100.279 43.9865 100.426 44.0688 100.577 44.0358L100.905 43.9637C101.055 43.9307 101.154 43.7942 101.118 43.6301L99.3851 35.7403C99.3521 35.5899 99.202 35.4938 99.0516 35.5269L96.8501 36.0105C96.4399 36.1006 96.0563 35.8552 95.9662 35.445C95.879 35.0485 96.1214 34.6512 96.5317 34.5611L102.576 33.2334C102.986 33.1432 103.372 33.4023 103.459 33.7989C103.55 34.2091 103.304 34.5927 102.894 34.6828L101.048 35.0883C100.898 35.1214 100.802 35.2715 100.835 35.4219L101.432 38.143C101.465 38.2934 101.615 38.3894 101.766 38.3564L103.161 38.05C103.571 37.9599 103.971 38.216 104.061 38.6262C104.151 39.0364 103.895 39.4367 103.485 39.5268L102.09 39.8332C101.94 39.8662 101.844 40.0163 101.877 40.1667L102.568 43.3117C102.604 43.4758 102.751 43.5582 102.901 43.5251L104.829 43.1016C105.226 43.0145 105.626 43.2706 105.713 43.6671C105.803 44.0773 105.544 44.4639 105.148 44.551L98.9398 45.9148ZM91.6195 38.2346C91.5324 37.8381 91.7884 37.4378 92.185 37.3507L95.5214 36.6177C95.918 36.5306 96.3182 36.7867 96.4053 37.1832C96.4955 37.5935 96.2364 37.9801 95.8398 38.0672L92.5034 38.8001C92.1068 38.8872 91.7096 38.6448 91.6195 38.2346ZM93.5191 45.7726L93.3088 44.8154C93.1436 44.0633 93.6237 43.3128 94.3758 43.1476L95.962 42.7992C96.7141 42.634 97.4646 43.1141 97.6298 43.8662L97.84 44.8233C98.0053 45.5754 97.5251 46.3259 96.773 46.4911L95.1869 46.8396C94.4348 47.0048 93.6843 46.5246 93.5191 45.7726ZM92.8081 42.1446C92.718 41.7344 92.9771 41.3478 93.3736 41.2607L96.0811 40.6659C96.4776 40.5788 96.8749 40.8212 96.965 41.2315C97.0521 41.628 96.796 42.0283 96.3995 42.1154L93.692 42.7101C93.2955 42.7973 92.8952 42.5412 92.8081 42.1446ZM92.3695 40.1482C92.2824 39.7517 92.5385 39.3514 92.935 39.2643L95.6425 38.6695C96.039 38.5824 96.4393 38.8385 96.5264 39.2351C96.6165 39.6453 96.3574 40.0319 95.9609 40.119L93.2535 40.7137C92.8569 40.8009 92.4596 40.5585 92.3695 40.1482ZM91.4984 36.1828C91.4113 35.7862 91.6674 35.386 92.0639 35.2989L94.7714 34.7041C95.1679 34.617 95.5682 34.8731 95.6553 35.2696C95.7424 35.6662 95.4863 36.0664 95.0898 36.1535L92.3823 36.7483C91.9858 36.8354 91.5855 36.5793 91.4984 36.1828ZM94.8751 45.1593C94.9081 45.3098 95.0582 45.4058 95.2086 45.3727L96.1385 45.1685C96.2889 45.1354 96.3849 44.9853 96.3519 44.8349L96.2738 44.4794C96.2407 44.329 96.0906 44.233 95.9402 44.266L95.0104 44.4703C94.86 44.5033 94.7639 44.6534 94.797 44.8038L94.8751 45.1593ZM116.41 42.378C115.994 42.4408 115.604 42.168 115.528 41.7548L113.919 32.0172C113.792 31.2424 114.302 30.4996 115.068 30.3314L118.596 29.5564C119.348 29.3912 120.098 29.8713 120.263 30.6234L122.372 40.2225C122.462 40.6327 122.206 41.033 121.796 41.1231C121.386 41.2132 120.986 40.9571 120.895 40.5469L120.442 38.4821C120.409 38.3317 120.259 38.2357 120.108 38.2687L116.895 38.9747C116.731 39.0107 116.635 39.1608 116.668 39.3112L117.022 41.5124C117.096 41.912 116.809 42.3046 116.41 42.378ZM110.19 40.6197L108.697 33.8237C108.532 33.0716 108.998 32.3241 109.764 32.1559L111.528 31.7684C112.28 31.6032 113.03 32.0834 113.196 32.8354L114.688 39.6314C114.854 40.3835 114.373 41.134 113.621 41.2992L111.857 41.6867C111.092 41.8549 110.355 41.3717 110.19 40.6197ZM111.553 39.9761C111.586 40.1265 111.737 40.2225 111.887 40.1895L112.967 39.9522C113.118 39.9191 113.214 39.769 113.181 39.6186L112.724 37.5402C112.691 37.3898 112.541 37.2937 112.39 37.3268L111.31 37.5641C111.16 37.5971 111.064 37.7472 111.097 37.8976L111.553 39.9761ZM110.664 35.9286C110.697 36.079 110.847 36.175 110.998 36.142L112.078 35.9047C112.228 35.8716 112.324 35.7215 112.291 35.5711L111.832 33.479C111.799 33.3286 111.649 33.2326 111.498 33.2656L110.418 33.5029C110.268 33.536 110.172 33.6861 110.205 33.8365L110.664 35.9286ZM116.319 37.2665C116.352 37.4169 116.488 37.5159 116.639 37.4829L119.784 36.792C119.934 36.7589 120.03 36.6088 119.997 36.4584L119.658 34.9132C119.625 34.7628 119.475 34.6668 119.324 34.6998L116.289 35.3667C116.138 35.3998 116.042 35.5499 116.062 35.7033L116.319 37.2665ZM115.726 33.6555C115.746 33.8089 115.896 33.9049 116.046 33.8719L119 33.2231C119.15 33.19 119.246 33.0399 119.213 32.8895L118.871 31.3307C118.838 31.1803 118.688 31.0842 118.537 31.1173L115.693 31.7421C115.543 31.7751 115.447 31.9252 115.466 32.0786L115.726 33.6555ZM127.197 35.5647C126.869 35.6368 126.552 35.4341 126.48 35.1059C126.408 34.7778 126.611 34.4609 126.939 34.3888L131.615 33.3615C131.711 33.3404 131.764 33.257 131.743 33.1613C131.722 33.0656 131.636 32.9986 131.54 33.0196L127.534 33.8998C127.206 33.9718 126.889 33.7691 126.817 33.4409C126.748 33.1264 126.947 32.7959 127.275 32.7238L131.282 31.8437C131.378 31.8226 131.431 31.7392 131.41 31.6435C131.389 31.5478 131.306 31.4945 131.21 31.5155L127.258 32.3836C126.93 32.4557 126.613 32.253 126.541 31.9248C126.469 31.5966 126.672 31.2797 127 31.2076L130.952 30.3395C131.047 30.3185 131.101 30.2351 131.08 30.1394C131.059 30.0437 130.972 29.9766 130.876 29.9977L126.282 31.007C125.954 31.0791 125.637 30.8763 125.565 30.5482C125.496 30.2337 125.695 29.9031 126.024 29.831L130.618 28.8217C130.714 28.8007 130.767 28.7173 130.746 28.6216C130.725 28.5259 130.642 28.4725 130.546 28.4935L126.922 29.2896C126.594 29.3617 126.277 29.1589 126.205 28.8308C126.133 28.5026 126.336 28.1857 126.664 28.1136L130.301 27.3146C130.383 27.2966 130.437 27.2132 130.419 27.1311C130.332 26.7346 130.588 26.3343 130.984 26.2472C131.381 26.1601 131.781 26.4162 131.868 26.8127C131.886 26.8948 131.97 26.9481 132.052 26.9301L134.991 26.2842C135.689 26.131 136.373 26.5685 136.526 27.2659L136.544 27.3479C136.565 27.4436 136.648 27.497 136.744 27.476L136.99 27.4219C137.318 27.3498 137.638 27.5662 137.707 27.8807C137.779 28.2089 137.577 28.5258 137.248 28.5979L137.002 28.6519C136.907 28.673 136.856 28.77 136.877 28.8657L136.895 28.9478C137.049 29.6452 136.611 30.3289 135.914 30.4821L132.987 31.125C132.892 31.146 132.838 31.2294 132.859 31.3251C132.88 31.4208 132.964 31.4742 133.06 31.4531L137.066 30.573C137.394 30.5009 137.714 30.7173 137.783 31.0318C137.855 31.36 137.653 31.6769 137.324 31.749L133.318 32.6291C133.222 32.6501 133.172 32.7472 133.193 32.8429C133.214 32.9386 133.297 32.992 133.393 32.971L138.069 31.9436C138.398 31.8715 138.715 32.0743 138.787 32.4024C138.859 32.7306 138.656 33.0475 138.328 33.1196L127.197 35.5647ZM128.312 38.158L128.068 37.0505C127.903 36.2984 128.37 35.5509 129.135 35.3827L136.506 33.7636C137.258 33.5984 138.008 34.0785 138.173 34.8306L138.417 35.9382C138.582 36.6902 138.102 37.4407 137.35 37.606L129.979 39.225C129.214 39.3933 128.477 38.9101 128.312 38.158ZM129.736 37.9884C129.751 38.0568 129.821 38.1131 129.903 38.0951L136.932 36.5511C137.014 36.5331 137.067 36.4497 137.052 36.3813C137.034 36.2993 136.951 36.2459 136.868 36.2639L129.84 37.8079C129.758 37.826 129.718 37.9063 129.736 37.9884ZM129.433 36.6073C129.451 36.6894 129.518 36.732 129.6 36.714L136.628 35.17C136.71 35.152 136.767 35.0823 136.749 35.0002C136.734 34.9319 136.65 34.8785 136.568 34.8965L129.54 36.4405C129.458 36.4586 129.418 36.5389 129.433 36.6073ZM132.529 29.821C132.55 29.9167 132.633 29.97 132.729 29.949L135.327 29.3783C135.423 29.3573 135.476 29.2739 135.455 29.1781C135.434 29.0824 135.348 29.0154 135.252 29.0364L132.654 29.6072C132.558 29.6282 132.508 29.7253 132.529 29.821ZM132.196 28.3032C132.217 28.3989 132.3 28.4522 132.396 28.4312L134.994 27.8605C135.089 27.8394 135.143 27.7561 135.122 27.6603C135.101 27.5646 135.017 27.5113 134.922 27.5323L132.324 28.103C132.228 28.1241 132.175 28.2074 132.196 28.3032Z" fill="black"/>
<defs>
<filter id="filter0_d_48_391" x="27.2773" y="53.0718" width="193.484" height="121.949" filterUnits="userSpaceOnUse" color-interpolation-filters="sRGB">
<feFlood flood-opacity="0" result="BackgroundImageFix"/>
<feColorMatrix in="SourceAlpha" type="matrix" values="0 0 0 0 0 0 0 0 0 0 0 0 0 0 0 0 0 0 127 0" result="hardAlpha"/>
<feOffset dy="4"/>
<feGaussianBlur stdDeviation="2"/>
<feComposite in2="hardAlpha" operator="out"/>
<feColorMatrix type="matrix" values="0 0 0 0 0 0 0 0 0 0 0 0 0 0 0 0 0 0 0.25 0"/>
<feBlend mode="normal" in2="BackgroundImageFix" result="effect1_dropShadow_48_391"/>
<feBlend mode="normal" in="SourceGraphic" in2="effect1_dropShadow_48_391" result="shape"/>
</filter>
<filter id="filter1_f_48_391" x="0" y="13.9983" width="248.041" height="192.096" filterUnits="userSpaceOnUse" color-interpolation-filters="sRGB">
<feFlood flood-opacity="0" result="BackgroundImageFix"/>
<feBlend mode="normal" in="SourceGraphic" in2="BackgroundImageFix" result="shape"/>
<feGaussianBlur stdDeviation="25" result="effect1_foregroundBlur_48_391"/>
</filter>
</defs>
</svg>
