<svg width="249" height="207" viewBox="0 0 249 207" fill="none" xmlns="http://www.w3.org/2000/svg">
<rect x="38.2418" y="21.8527" width="173.264" height="145.168" rx="10" fill="#F4284A"/>
<rect x="106.548" y="36.1219" width="97.8477" height="115.286" rx="5" transform="rotate(7.87578 106.548 36.1219)" fill="#B5B5B5"/>
<rect x="106.028" y="35.6763" width="97.8477" height="115.286" rx="5" transform="rotate(7.87578 106.028 35.6763)" fill="#B5B5B5"/>
<rect x="106.172" y="36.0588" width="97.8477" height="115.286" rx="5" transform="rotate(7.87578 106.172 36.0588)" fill="#F5F5F5"/>
<rect x="132.046" y="46.9731" width="43.5955" height="3.87516" rx="1.93758" transform="rotate(7.87578 132.046 46.9731)" fill="#D9D9D9"/>
<rect x="110.551" y="50.3572" width="85.7378" height="3.87516" rx="1.93758" transform="rotate(7.87578 110.551 50.3572)" fill="#D9D9D9"/>
<rect x="103.117" y="104.097" width="85.7378" height="3.87516" rx="1.93758" transform="rotate(7.87578 103.117 104.097)" fill="#D9D9D9"/>
<rect x="107.962" y="69.0702" width="85.7378" height="3.87516" rx="1.93758" transform="rotate(7.87578 107.962 69.0702)" fill="#D9D9D9"/>
<rect x="109.688" y="56.595" width="85.7378" height="3.87516" rx="1.93758" transform="rotate(7.87578 109.688 56.595)" fill="#D9D9D9"/>
<rect x="102.254" y="110.335" width="85.7378" height="3.87516" rx="1.93758" transform="rotate(7.87578 102.254 110.335)" fill="#D9D9D9"/>
<rect x="107.1" y="75.3076" width="64.4245" height="3.87516" rx="1.93758" transform="rotate(7.87578 107.1 75.3076)" fill="#D9D9D9"/>
<rect x="108.825" y="62.8326" width="43.5955" height="3.87516" rx="1.93758" transform="rotate(7.87578 108.825 62.8326)" fill="#D9D9D9"/>
<rect x="101.391" y="116.573" width="43.5955" height="3.87516" rx="1.93758" transform="rotate(7.87578 101.391 116.573)" fill="#D9D9D9"/>
<rect x="141.41" y="134.823" width="43.5955" height="3.87516" rx="1.93758" transform="rotate(7.87578 141.41 134.823)" fill="#D9D9D9"/>
<rect x="140.547" y="141.06" width="43.5955" height="3.87516" rx="1.93758" transform="rotate(7.87578 140.547 141.06)" fill="#D9D9D9"/>
<rect x="160.317" y="150.153" width="22.7665" height="3.87516" rx="1.93758" transform="rotate(7.87578 160.317 150.153)" fill="#D9D9D9"/>
<rect x="105.374" y="87.7834" width="43.5955" height="3.87516" rx="1.93758" transform="rotate(7.87578 105.374 87.7834)" fill="#D9D9D9"/>
<rect x="106.237" y="81.5455" width="85.7378" height="3.87516" rx="1.93758" transform="rotate(7.87578 106.237 81.5455)" fill="#D9D9D9"/>
<rect x="74.6497" y="36.1573" width="97.8477" height="115.286" rx="5" transform="rotate(-2.59781 74.6497 36.1573)" fill="#B5B5B5"/>
<rect x="74.0573" y="35.8136" width="97.8477" height="115.286" rx="5" transform="rotate(-2.59781 74.0573 35.8136)" fill="#B5B5B5"/>
<rect x="74.2684" y="36.1636" width="97.8477" height="115.286" rx="5" transform="rotate(-2.59781 74.2684 36.1636)" fill="#F5F5F5"/>
<rect x="101.696" y="42.1927" width="43.5955" height="3.87516" rx="1.93758" transform="rotate(-2.59781 101.696 42.1927)" fill="#D9D9D9"/>
<rect x="81.1736" y="49.4277" width="85.7378" height="3.87516" rx="1.93758" transform="rotate(-2.59781 81.1736 49.4277)" fill="#D9D9D9"/>
<rect x="83.6327" y="103.624" width="85.7378" height="3.87516" rx="1.93758" transform="rotate(-2.59781 83.6327 103.624)" fill="#D9D9D9"/>
<rect x="82.0299" y="68.2996" width="85.7378" height="3.87516" rx="1.93758" transform="rotate(-2.59781 82.0299 68.2996)" fill="#D9D9D9"/>
<rect x="81.459" y="55.7183" width="85.7378" height="3.87516" rx="1.93758" transform="rotate(-2.59781 81.459 55.7183)" fill="#D9D9D9"/>
<rect x="83.9181" y="109.915" width="85.7378" height="3.87516" rx="1.93758" transform="rotate(-2.59781 83.9181 109.915)" fill="#D9D9D9"/>
<rect x="82.3153" y="74.5896" width="64.4245" height="3.87516" rx="1.93758" transform="rotate(-2.59781 82.3153 74.5896)" fill="#D9D9D9"/>
<rect x="81.7445" y="62.0089" width="43.5955" height="3.87516" rx="1.93758" transform="rotate(-2.59781 81.7445 62.0089)" fill="#D9D9D9"/>
<rect x="84.2035" y="116.205" width="43.5955" height="3.87516" rx="1.93758" transform="rotate(-2.59781 84.2035 116.205)" fill="#D9D9D9"/>
<rect x="126.873" y="126.876" width="43.5955" height="3.87516" rx="1.93758" transform="rotate(-2.59781 126.873 126.876)" fill="#D9D9D9"/>
<rect x="127.159" y="133.167" width="43.5955" height="3.87516" rx="1.93758" transform="rotate(-2.59781 127.159 133.167)" fill="#D9D9D9"/>
<rect x="148.252" y="138.514" width="22.7665" height="3.87516" rx="1.93758" transform="rotate(-2.59781 148.252 138.514)" fill="#D9D9D9"/>
<rect x="82.8861" y="87.1714" width="43.5955" height="3.87516" rx="1.93758" transform="rotate(-2.59781 82.8861 87.1714)" fill="#D9D9D9"/>
<rect x="82.6007" y="80.8807" width="85.7378" height="3.87516" rx="1.93758" transform="rotate(-2.59781 82.6007 80.8807)" fill="#D9D9D9"/>
<rect x="48.9437" y="38.6292" width="97.8477" height="115.286" rx="5" transform="rotate(-11.2411 48.9437 38.6292)" fill="#B5B5B5"/>
<rect x="48.3063" y="38.3784" width="97.8477" height="115.286" rx="5" transform="rotate(-11.2411 48.3063 38.3784)" fill="#B5B5B5"/>
<rect x="48.5675" y="38.6926" width="97.8477" height="115.286" rx="5" transform="rotate(-11.2411 48.5675 38.6926)" fill="#F5F5F5"/>
<rect x="76.5896" y="40.5312" width="43.5955" height="3.87516" rx="1.93758" transform="rotate(-11.2411 76.5896 40.5312)" fill="#D9D9D9"/>
<rect x="57.3878" y="50.7684" width="85.7378" height="3.87516" rx="1.93758" transform="rotate(-11.2411 57.3878 50.7684)" fill="#D9D9D9"/>
<rect x="67.9636" y="103.979" width="85.7378" height="3.87516" rx="1.93758" transform="rotate(-11.2411 67.9636 103.979)" fill="#D9D9D9"/>
<rect x="61.0706" y="69.297" width="85.7378" height="3.87516" rx="1.93758" transform="rotate(-11.2411 61.0706 69.297)" fill="#D9D9D9"/>
<rect x="58.6154" y="56.9446" width="85.7378" height="3.87516" rx="1.93758" transform="rotate(-11.2411 58.6154 56.9446)" fill="#D9D9D9"/>
<rect x="69.1912" y="110.156" width="85.7378" height="3.87516" rx="1.93758" transform="rotate(-11.2411 69.1912 110.156)" fill="#D9D9D9"/>
<rect x="62.298" y="75.4731" width="64.4245" height="3.87516" rx="1.93758" transform="rotate(-11.2411 62.298 75.4731)" fill="#D9D9D9"/>
<rect x="59.843" y="63.1207" width="43.5955" height="3.87516" rx="1.93758" transform="rotate(-11.2411 59.843 63.1207)" fill="#D9D9D9"/>
<rect x="70.4187" y="116.332" width="43.5955" height="3.87516" rx="1.93758" transform="rotate(-11.2411 70.4187 116.332)" fill="#D9D9D9"/>
<rect x="114.208" y="120.469" width="43.5955" height="3.87516" rx="1.93758" transform="rotate(-11.2411 114.208 120.469)" fill="#D9D9D9"/>
<rect x="115.435" y="126.646" width="43.5955" height="3.87516" rx="1.93758" transform="rotate(-11.2411 115.435 126.646)" fill="#D9D9D9"/>
<rect x="137.092" y="128.762" width="22.7665" height="3.87516" rx="1.93758" transform="rotate(-11.2411 137.092 128.762)" fill="#D9D9D9"/>
<rect x="64.7529" y="87.8259" width="43.5955" height="3.87516" rx="1.93758" transform="rotate(-11.2411 64.7529 87.8259)" fill="#D9D9D9"/>
<rect x="63.5255" y="81.6497" width="85.7378" height="3.87516" rx="1.93758" transform="rotate(-11.2411 63.5255 81.6497)" fill="#D9D9D9"/>
<path d="M79.5199 49.4655C78.7692 49.6367 78.0149 49.1625 77.8437 48.4117L77.296 46.0094C77.1248 45.2587 77.599 44.5044 78.3497 44.3332L85.7478 42.6463C86.4986 42.4752 87.2528 42.9494 87.424 43.7001L87.9718 46.1024C88.143 46.8532 87.6688 47.6074 86.918 47.7786L79.5199 49.4655ZM75.3929 42.6381C75.0514 42.4001 74.9729 41.9297 75.2141 41.6019L77.0341 39.0043C77.2753 38.6765 77.732 38.6011 78.0703 38.8255C78.3981 39.0666 78.4903 39.5338 78.2491 39.8617L77.8047 40.4943C77.6962 40.6483 77.6653 40.8276 77.7057 41.0051L78.2939 43.5849C78.3842 43.9807 78.1313 44.383 77.7355 44.4733C77.3396 44.5635 76.9373 44.3106 76.8471 43.9148L76.5545 42.6317C76.5296 42.5225 76.3974 42.5096 76.3112 42.5723C76.0619 42.8015 75.6809 42.8309 75.3929 42.6381ZM78.0064 51.2034C77.8374 50.8399 77.999 50.4154 78.3625 50.2463L80.2726 49.3657C80.6224 49.1997 81.047 49.3614 81.2129 49.7113C81.382 50.0748 81.2203 50.4993 80.8704 50.6653L78.9604 51.5459C78.5969 51.715 78.1723 51.5533 78.0064 51.2034ZM79.044 46.8744C79.0596 46.9427 79.1266 46.9848 79.1949 46.9693L86.1289 45.3882C86.1971 45.3727 86.2393 45.3056 86.2237 45.2374C86.2082 45.1691 86.1411 45.127 86.0729 45.1425L79.1388 46.7236C79.0706 46.7391 79.0284 46.8062 79.044 46.8744ZM79.3931 48.2164C79.4632 48.2722 79.5576 48.3081 79.6531 48.2864L86.2869 46.7738C86.3824 46.752 86.4519 46.6787 86.4909 46.598C86.5194 46.5341 86.4325 46.4678 86.3642 46.4833L79.4575 48.0581C79.3892 48.0737 79.3397 48.1712 79.3931 48.2164ZM78.7768 45.5138C78.7483 45.5777 78.8353 45.6441 78.9035 45.6285L85.8102 44.0537C85.8785 44.0381 85.9281 43.9407 85.8747 43.8954C85.8045 43.8396 85.7102 43.8037 85.6146 43.8255L78.9809 45.338C78.8853 45.3598 78.8159 45.4331 78.7768 45.5138ZM78.3273 41.6531C78.2495 41.3119 78.4603 40.9766 78.8015 40.8988L81.859 40.2017C81.9819 40.1737 82.0662 40.0396 82.0382 39.9167C82.0102 39.7939 81.8792 39.7232 81.7563 39.7512L79.99 40.2545C79.6141 40.3689 79.2316 40.1402 79.1203 39.7779C79.0195 39.3988 79.2346 39.0195 79.5969 38.9082L85.3432 37.2821C85.7086 37.1844 86.1016 37.3963 86.1993 37.7618C86.3137 38.1377 86.0881 38.5338 85.7227 38.6315L83.7001 39.2075C83.55 39.2417 83.4688 39.3895 83.503 39.5396C83.5372 39.6898 83.6881 39.7846 83.8246 39.7535L86.8548 39.0626C87.1961 38.9848 87.5313 39.1955 87.6091 39.5368C87.6869 39.878 87.4762 40.2132 87.1349 40.291L84.0501 40.9944C83.9409 41.0193 83.8672 41.1367 83.892 41.2458C83.9169 41.355 84.0343 41.4288 84.1435 41.4039L86.2728 40.9184C86.6141 40.8406 86.9493 41.0513 87.0271 41.3926C87.1049 41.7338 86.8942 42.0691 86.5529 42.1469L80.4106 43.5474C80.0693 43.6252 79.7341 43.4144 79.6563 43.0732C79.5785 42.732 79.7892 42.3967 80.1305 42.3189L82.2598 41.8334C82.369 41.8085 82.4428 41.6912 82.4179 41.582C82.393 41.4728 82.2757 41.399 82.1665 41.4239L79.0816 42.1273C78.7404 42.2051 78.4051 41.9943 78.3273 41.6531ZM85.4989 48.734C85.4968 48.3468 85.8093 48.0171 86.1965 48.0149L88.2995 47.9806C88.7004 47.9753 89.0301 48.2878 89.0353 48.6887C89.0375 49.0759 88.725 49.4056 88.3241 49.4109L86.2211 49.4453C85.8339 49.4474 85.5042 49.1349 85.4989 48.734ZM96.4455 45.6063C95.6948 45.7774 94.9405 45.3032 94.7693 44.5525L94.1593 41.8772C93.9881 41.1264 94.4623 40.3722 95.2131 40.201L102.611 38.5141C103.362 38.3429 104.116 38.8171 104.287 39.5679L104.897 42.2432C105.069 42.9939 104.594 43.7482 103.844 43.9194L96.4455 45.6063ZM92.4552 39.0636C92.1726 38.769 92.199 38.3179 92.483 38.0521L95.5304 35.2321C95.8144 34.9663 96.2761 34.9759 96.545 35.2736C96.8108 35.5576 96.7844 36.0088 96.5004 36.2745L95.2465 37.4507C95.115 37.5669 95.0537 37.7388 95.0942 37.9162L95.4054 39.2812C95.4957 39.677 95.2428 40.0793 94.8469 40.1696C94.4511 40.2598 94.0488 40.0069 93.9585 39.6111L93.8309 39.0515C93.806 38.9423 93.6676 38.902 93.5845 38.9784L93.453 39.0946C93.169 39.3603 92.721 39.3476 92.4552 39.0636ZM94.932 47.3442C94.763 46.9807 94.9246 46.5561 95.2881 46.3871L97.1982 45.5064C97.548 45.3405 97.9726 45.5022 98.1385 45.852C98.3076 46.2156 98.1459 46.6401 97.796 46.806L95.886 47.6867C95.5225 47.8557 95.0979 47.6941 94.932 47.3442ZM95.9385 42.8787C95.9572 42.9606 96.0242 43.0028 96.1061 42.9841L103.013 41.4093C103.095 41.3906 103.137 41.3236 103.118 41.2417C103.103 41.1734 103.032 41.1176 102.951 41.1363L96.0439 42.7111C95.962 42.7298 95.9229 42.8105 95.9385 42.8787ZM96.3031 44.2889C96.3627 44.3615 96.4707 44.3943 96.5663 44.3725L103.2 42.86C103.296 42.8382 103.379 42.7618 103.401 42.6706C103.426 42.593 103.343 42.5403 103.274 42.5559L96.3675 44.1307C96.2993 44.1462 96.2466 44.23 96.3031 44.2889ZM95.6558 41.4498C95.6273 41.5137 95.7111 41.5664 95.7793 41.5509L102.686 39.9761C102.754 39.9605 102.807 39.8767 102.754 39.8314C102.694 39.7589 102.586 39.7261 102.49 39.7478L95.8567 41.2604C95.7611 41.2822 95.678 41.3586 95.6558 41.4498ZM95.9265 38.229C95.7711 37.8624 95.9601 37.4316 96.3267 37.2762L98.5768 36.3755C98.6692 36.34 98.6685 36.211 98.5878 36.1719L98.0428 35.9229C97.676 35.7624 97.505 35.3275 97.6624 34.947C97.8365 34.5771 98.2713 34.4061 98.655 34.5771L100.492 35.3931C100.654 35.4711 100.841 35.4716 100.998 35.407L101.104 35.3684C101.156 35.3423 101.167 35.2679 101.103 35.2394L100.976 35.1824C100.622 35.0188 100.455 34.5976 100.618 34.2444C100.782 33.8911 101.189 33.7264 101.556 33.8869L102.821 34.46C102.996 34.535 103.183 34.5354 103.341 34.4708L103.471 34.4124C103.841 34.2706 104.268 34.4459 104.413 34.8293C104.569 35.196 104.38 35.6268 104.01 35.7685L102.852 36.2335C102.746 36.272 102.75 36.4147 102.844 36.4507L104.22 37.0702C104.59 37.2444 104.761 37.6792 104.59 38.0628C104.43 38.4297 103.995 38.6006 103.611 38.4296L100.923 37.219C100.765 37.1546 100.575 37.1404 100.417 37.2051L96.8657 38.6323C96.4991 38.7877 96.0683 38.5988 95.9265 38.229ZM102.425 44.8748C102.422 44.4876 102.735 44.1578 103.122 44.1557L105.225 44.1213C105.626 44.1161 105.956 44.4286 105.961 44.8295C105.963 45.2167 105.651 45.5464 105.25 45.5517L103.147 45.586C102.759 45.5882 102.43 45.2756 102.425 44.8748ZM113.625 37.1946C113.243 37.2817 112.858 37.0394 112.771 36.6572C112.683 36.275 112.926 35.8894 113.308 35.8023L114.618 35.5035C114.769 35.4693 114.863 35.3184 114.829 35.1683L114.608 34.1992C114.574 34.049 114.423 33.9542 114.273 33.9884L113.495 34.1658C113.113 34.253 112.727 34.0106 112.64 33.6284C112.553 33.2462 112.795 32.8607 113.177 32.7735L113.955 32.5961C114.106 32.5619 114.2 32.4111 114.166 32.2609L113.97 31.401C113.877 30.9915 114.13 30.5892 114.539 30.4958C114.949 30.4025 115.351 30.6554 115.444 31.0648L115.64 31.9248C115.675 32.0749 115.825 32.1698 115.976 32.1355L117.286 31.8367C117.436 31.8025 117.531 31.6517 117.497 31.5015L117.301 30.6416C117.207 30.2321 117.46 29.8298 117.87 29.7364C118.279 29.6431 118.681 29.896 118.775 30.3055L118.971 31.1654C119.005 31.3155 119.156 31.4104 119.306 31.3761L120.03 31.2112C120.412 31.124 120.797 31.3664 120.884 31.7486C120.972 32.1308 120.729 32.5163 120.347 32.6034L119.624 32.7684C119.473 32.8026 119.379 32.9535 119.413 33.1036L119.634 34.0728C119.668 34.2229 119.819 34.3177 119.969 34.2835L121.225 33.9972C121.607 33.91 121.993 34.1524 122.08 34.5346C122.167 34.9168 121.924 35.3023 121.542 35.3895L113.625 37.1946ZM109.428 36.6725L111.333 31.4854C111.477 31.108 111.905 30.9097 112.296 31.0503C112.674 31.194 112.872 31.6227 112.731 32.0137L112.015 33.972C111.953 34.1439 111.939 34.3338 111.98 34.5113L113.869 42.7966C113.959 43.1925 113.706 43.5948 113.31 43.685C112.915 43.7753 112.512 43.5224 112.422 43.1265L111.022 36.9842C111.009 36.9296 110.935 36.9178 110.906 36.9818L110.837 37.1841C110.697 37.5752 110.268 37.7734 109.877 37.6328C109.486 37.4922 109.285 37.0499 109.428 36.6725ZM114.868 41.6355L114.252 38.9329C114.08 38.1822 114.555 37.4279 115.305 37.2567L120.055 36.1736C120.806 36.0024 121.56 36.4766 121.732 37.2274L122.348 39.93C122.519 40.6807 122.045 41.435 121.294 41.6062L116.544 42.6893C115.793 42.8604 115.039 42.3863 114.868 41.6355ZM116.28 41.0264C116.314 41.1765 116.465 41.2714 116.615 41.2371L120.601 40.3284C120.751 40.2941 120.846 40.1433 120.811 39.9931L120.783 39.8703C120.749 39.7201 120.598 39.6253 120.448 39.6595L116.462 40.5683C116.312 40.6025 116.217 40.7534 116.252 40.9036L116.28 41.0264ZM115.816 38.9926C115.85 39.1427 116.001 39.2376 116.151 39.2033L120.137 38.2946C120.287 38.2603 120.382 38.1095 120.348 37.9593L120.32 37.8365C120.285 37.6863 120.135 37.5915 119.984 37.6257L115.999 38.5345C115.849 38.5687 115.754 38.7196 115.788 38.8698L115.816 38.9926ZM116.303 34.8322C116.338 34.9823 116.488 35.0771 116.639 35.0429L117.949 34.7441C118.099 34.7099 118.194 34.559 118.16 34.4089L117.939 33.4398C117.904 33.2896 117.754 33.1948 117.603 33.229L116.293 33.5278C116.143 33.562 116.048 33.7129 116.082 33.863L116.303 34.8322ZM84.2622 68.6267C83.9708 68.9229 83.4986 68.9301 83.2191 68.6492C82.9229 68.3577 82.9158 67.8855 83.1936 67.5924L85.1611 65.5786C85.22 65.5221 85.1542 65.4222 85.0859 65.4378L81.5234 66.2501C81.1275 66.3404 80.742 66.098 80.6517 65.7022C80.5615 65.3063 80.8038 64.9208 81.1997 64.8305L85.6904 63.8066C85.7996 63.7817 85.8734 63.6644 85.8485 63.5552L85.7925 63.3095C85.6991 62.9 85.952 62.4977 86.3615 62.4043C86.771 62.311 87.1733 62.5639 87.2666 62.9733L87.3227 63.219C87.3476 63.3282 87.4649 63.402 87.5741 63.3771L92.0648 62.3532C92.4607 62.2629 92.8462 62.5053 92.9365 62.9011C93.0267 63.2969 92.7843 63.6825 92.3885 63.7727L88.8259 64.585C88.7577 64.6006 88.7416 64.7191 88.8192 64.7445L91.4653 65.7064C91.8426 65.8501 92.0409 66.2787 91.914 66.6666C91.7703 67.044 91.3416 67.2423 90.9506 67.1017L87.3778 65.7911C87.2195 65.7267 87.0285 65.7703 86.9137 65.897L84.2622 68.6267ZM80.0843 63.5915C79.9562 63.2186 80.1483 62.8015 80.5243 62.687L82.0535 62.1517C82.2006 62.1038 82.2954 61.9529 82.2581 61.7892L82.1522 61.3251C82.118 61.1749 81.9671 61.0801 81.817 61.1143L80.6841 61.3726C80.2882 61.4629 79.9164 61.2174 79.8292 60.8352C79.7421 60.453 79.9708 60.0706 80.3666 59.9804L81.4995 59.722C81.6497 59.6878 81.7445 59.537 81.7103 59.3868L81.701 59.3459C81.6667 59.1957 81.5159 59.1009 81.3657 59.1351L79.9598 59.4557C79.5776 59.5428 79.1921 59.3005 79.1049 58.9183C79.0178 58.5361 79.2602 58.1506 79.6423 58.0634L81.0483 57.7428C81.1984 57.7086 81.2932 57.5577 81.259 57.4076L81.2341 57.2984C81.1439 56.9026 81.3968 56.5003 81.7926 56.41C82.1884 56.3198 82.5907 56.5727 82.681 56.9685L82.7059 57.0777C82.7401 57.2278 82.891 57.3227 83.0411 57.2884L84.447 56.9679C84.8292 56.8807 85.2147 57.1231 85.3019 57.5053C85.389 57.8875 85.1467 58.273 84.7645 58.3602L83.3586 58.6807C83.2084 58.715 83.1136 58.8658 83.1478 59.016L83.1572 59.0569C83.1914 59.2071 83.3422 59.3019 83.4924 59.2677L84.639 59.0062C85.0212 58.9191 85.4067 59.1614 85.4938 59.5436C85.581 59.9258 85.3386 60.3113 84.9564 60.3985L83.8098 60.6599C83.6597 60.6942 83.5649 60.845 83.5991 60.9952L83.6707 61.3091C83.7049 61.4592 83.8527 61.5404 83.9997 61.4926L85.3441 61.0281C85.7169 60.9 86.1372 61.1057 86.2516 61.4817C86.3797 61.8545 86.1845 62.258 85.8117 62.3861L80.9888 64.0314C80.6159 64.1595 80.2124 63.9643 80.0843 63.5915ZM85.2823 56.9785C85.192 56.5826 85.4449 56.1803 85.8408 56.0901L89.7582 55.1969C90.4953 55.0288 91.2254 55.5229 91.3525 56.2693L92.1382 60.7856C92.2179 61.1982 91.9346 61.5931 91.5189 61.6592C91.1063 61.7389 90.7114 61.4556 90.6317 61.043L89.932 56.9665C89.8977 56.8164 89.7605 56.7184 89.6104 56.7527L88.8324 56.9301C88.6686 56.9674 88.557 57.1077 88.5502 57.2672L88.3917 61.2952C88.3864 61.7129 88.0299 62.0383 87.6122 62.033C87.1915 62.014 86.8661 61.6575 86.885 61.2367L87.0215 57.6158C87.0313 57.4699 86.9078 57.3689 86.7713 57.4L86.1707 57.537C85.7748 57.6272 85.3725 57.3743 85.2823 56.9785ZM109.477 63.021C109.075 63.084 108.7 62.8249 108.637 62.4228L107.329 54.9239C107.309 54.7706 107.158 54.6758 107.008 54.71L103.691 55.4663C103.541 55.5006 103.415 55.644 103.425 55.814L103.449 57.1153C103.455 57.5161 103.128 57.849 102.728 57.8542C102.327 57.8595 101.994 57.5333 101.989 57.1324L101.929 52.6516C101.921 52.237 102.236 51.921 102.634 51.9021C103.035 51.8968 103.368 52.223 103.373 52.6239L103.388 53.6974C103.395 53.8537 103.532 53.9517 103.669 53.9206L107.081 53.1425C107.832 52.9713 108.562 53.4654 108.689 54.2118L110.075 62.181C110.135 62.5695 109.879 62.9581 109.477 63.021ZM98.0185 64.4706L97.9966 62.4222C97.9839 62.0518 98.289 61.7525 98.6458 61.7429C99.0194 61.7439 99.3293 62.0322 99.3283 62.4058L99.3638 64.451C99.3629 64.8246 99.0745 65.1345 98.701 65.1335C98.3305 65.1462 98.0312 64.8411 98.0185 64.4706ZM96.4929 56.0162L97.4832 53.3062C97.6269 52.9288 98.0419 52.7337 98.4162 52.8638C98.7936 53.0075 98.9887 53.4225 98.845 53.7999L97.9191 56.3515C97.8547 56.5098 97.9194 56.6674 98.0671 56.7486L98.5345 56.9723C98.6624 57.0293 98.82 56.9646 98.8738 56.8231L99.8419 54.2044C99.9825 53.8133 100.401 53.6318 100.775 53.7619C101.152 53.9056 101.347 54.3206 101.204 54.698L99.5253 59.3023C99.4788 59.4134 99.5782 59.5344 99.7011 59.5064L100.643 59.2916C100.793 59.2574 100.874 59.1096 100.813 58.9657L100.609 58.452C100.471 58.0959 100.636 57.685 101.005 57.5433C101.358 57.391 101.759 57.5725 101.911 57.9255L102.718 59.9529C102.856 60.309 102.692 60.7199 102.336 60.8585C102.099 60.9555 101.845 60.9128 101.655 60.7696C101.518 60.6717 101.356 60.5936 101.192 60.631L101.07 60.659C100.919 60.6932 100.825 60.8441 100.859 60.9942L101.575 64.1336C101.665 64.5295 101.412 64.9318 101.016 65.022C100.62 65.1123 100.218 64.8594 100.128 64.4635L99.4119 61.3241C99.3777 61.174 99.2268 61.0791 99.0767 61.1134L98.5034 61.2441C97.9165 61.3779 97.4122 60.8036 97.6277 60.2376L98.1963 58.7007C98.2502 58.5592 98.1824 58.388 98.0378 58.3204L97.2612 57.9375C96.5517 57.5967 96.216 56.7542 96.4929 56.0162ZM101.503 62.1827C101.34 61.8465 101.495 61.4523 101.831 61.2895C102.17 61.1404 102.561 61.2809 102.724 61.6172L103.413 63.1258C103.575 63.4621 103.421 63.8562 103.085 64.019C102.746 64.1682 102.351 64.0139 102.192 63.6914L101.503 62.1827ZM103.443 58.4091C103.647 58.0466 104.105 57.9134 104.481 58.1148L106.754 59.3916C107.117 59.5961 107.25 60.054 107.045 60.4165C106.841 60.779 106.383 60.9121 106.02 60.7076L103.734 59.434C103.371 59.2295 103.238 58.7716 103.443 58.4091ZM114.975 57.3448C114.647 57.4195 114.329 57.2193 114.254 56.8917C114.179 56.5641 114.379 56.2457 114.707 56.171L119.375 55.1066C119.471 55.0848 119.523 55.001 119.502 54.9054C119.48 54.8099 119.393 54.7435 119.297 54.7653L115.298 55.6772C114.971 55.7519 114.652 55.5517 114.577 55.2241C114.506 54.9102 114.703 54.578 115.03 54.5034L119.03 53.5915C119.125 53.5697 119.178 53.4859 119.156 53.3903C119.134 53.2948 119.051 53.2421 118.955 53.2639L115.01 54.1633C114.683 54.238 114.364 54.0378 114.29 53.7102C114.215 53.3826 114.415 53.0641 114.743 52.9894L118.687 52.09C118.783 52.0682 118.836 51.9844 118.814 51.8888C118.792 51.7933 118.705 51.727 118.61 51.7487L114.023 52.7945C113.696 52.8692 113.377 52.669 113.303 52.3414C113.231 52.0274 113.428 51.6953 113.756 51.6206L118.342 50.5749C118.438 50.5531 118.49 50.4693 118.468 50.3737C118.447 50.2782 118.363 50.2255 118.267 50.2473L114.65 51.072C114.323 51.1467 114.004 50.9465 113.929 50.6189C113.855 50.2913 114.055 49.9729 114.382 49.8982L118.013 49.0703C118.095 49.0516 118.148 48.9678 118.129 48.8859C118.039 48.4901 118.292 48.0878 118.688 47.9975C119.084 47.9073 119.486 48.1602 119.576 48.556C119.595 48.6379 119.679 48.6906 119.76 48.6719L122.695 48.0028C123.391 47.8441 124.078 48.2761 124.237 48.9722L124.256 49.0541C124.278 49.1497 124.361 49.2024 124.457 49.1806L124.703 49.1246C125.03 49.0499 125.352 49.2637 125.424 49.5777C125.498 49.9053 125.298 50.2237 124.97 50.2984L124.725 50.3544C124.629 50.3762 124.58 50.4737 124.601 50.5692L124.62 50.6511C124.779 51.3473 124.347 52.0345 123.651 52.1932L120.73 52.8593C120.634 52.8811 120.581 52.9649 120.603 53.0604C120.625 53.156 120.709 53.2086 120.804 53.1869L124.804 52.275C125.131 52.2003 125.453 52.4141 125.524 52.7281C125.599 53.0557 125.399 53.3741 125.071 53.4488L121.072 54.3607C120.976 54.3825 120.927 54.48 120.949 54.5755C120.97 54.6711 121.054 54.7238 121.15 54.702L125.818 53.6376C126.146 53.5629 126.464 53.7631 126.539 54.0907C126.613 54.4183 126.413 54.7368 126.086 54.8114L114.975 57.3448ZM116.11 59.9292L115.858 58.8236C115.686 58.0729 116.147 57.3217 116.911 57.1474L124.268 55.4699C125.019 55.2987 125.773 55.7729 125.945 56.5236L126.197 57.6292C126.368 58.38 125.894 59.1343 125.143 59.3054L117.786 60.983C117.021 61.1572 116.281 60.6799 116.11 59.9292ZM117.533 59.7483C117.549 59.8165 117.619 59.8723 117.701 59.8536L124.717 58.2539C124.798 58.2352 124.851 58.1514 124.836 58.0832C124.817 58.0013 124.733 57.9486 124.651 57.9673L117.635 59.567C117.553 59.5857 117.514 59.6664 117.533 59.7483ZM117.219 58.3696C117.237 58.4515 117.304 58.4937 117.386 58.475L124.402 56.8753C124.484 56.8566 124.54 56.7865 124.521 56.7046C124.506 56.6363 124.422 56.5836 124.34 56.6023L117.324 58.202C117.242 58.2207 117.203 58.3014 117.219 58.3696ZM120.261 51.5589C120.283 51.6545 120.366 51.7072 120.462 51.6854L123.055 51.0941C123.151 51.0723 123.204 50.9885 123.182 50.8929C123.16 50.7974 123.073 50.731 122.978 50.7528L120.384 51.3442C120.289 51.3659 120.239 51.4634 120.261 51.5589ZM119.915 50.0438C119.937 50.1394 120.021 50.1921 120.116 50.1703L122.71 49.5789C122.805 49.5572 122.858 49.4734 122.836 49.3778C122.815 49.2823 122.731 49.2296 122.635 49.2514L120.042 49.8427C119.946 49.8645 119.894 49.9483 119.915 50.0438Z" fill="black"/>
<g filter="url(#filter0_d_48_398)">
<path d="M31.3107 63.8773C30.8401 58.0558 35.4376 53.0715 41.2782 53.0715H118.177C120.97 53.0715 123.635 54.2394 125.528 56.2925L139.822 71.7933C143.507 75.789 148.659 78.113 154.093 78.2306L206.977 79.3745C212.792 79.5003 217.273 84.5439 216.714 90.3337L210.179 157.982C209.684 163.108 205.376 167.02 200.225 167.02H48.8734C43.6631 167.02 39.3258 163.02 38.9059 157.826L31.3107 63.8773Z" fill="#F4284A" fill-opacity="0.6" shape-rendering="crispEdges"/>
</g>
<g filter="url(#filter1_f_48_398)">
<path d="M50.0325 74.7957C49.5669 68.977 54.1633 63.998 60.0006 63.998H118.454C121.264 63.998 123.945 65.1807 125.84 67.2565L135.516 77.8583C139.203 81.8977 144.384 84.251 149.851 84.3705L188.258 85.2098C194.069 85.3368 198.548 90.3736 197.994 96.1593L193.128 147.045C192.638 152.176 188.328 156.094 183.174 156.094H65.7699C60.5564 156.094 56.2176 152.088 55.8018 146.891L50.0325 74.7957Z" fill="#FFC4C6" fill-opacity="0.8"/>
</g>
<path d="M144.602 139.482C144.724 138.868 145.339 138.478 145.933 138.601C146.547 138.745 146.936 139.339 146.814 139.933L144.54 150.562C144.233 152.201 144.745 152.733 146.424 152.426C147.039 152.303 147.674 152.611 147.879 153.204C148.063 153.798 147.735 154.454 147.141 154.577C144.049 155.253 141.611 153.798 142.349 150.132L144.602 139.482ZM153.306 144.705C152.917 144.213 152.999 143.496 153.47 143.107C153.961 142.718 154.678 142.78 155.047 143.271C156.071 144.561 157.832 146.855 158.406 148.105C159.266 150.03 158.549 151.648 157.116 152.938C156.665 153.368 155.948 153.245 155.579 152.754C155.211 152.242 155.334 151.566 155.764 151.115C156.378 150.521 156.767 149.948 156.358 149.047C155.907 148.105 154.371 146.036 153.306 144.705Z" fill="white"/>
<path d="M122.011 154.679C120.475 154.085 119.594 152.324 120.004 150.726C120.434 149.088 122.031 148.269 123.977 148.514C124.469 148.576 124.94 148.699 125.37 148.863C125.554 148.945 125.738 148.801 125.738 148.617L125.615 146.937C125.595 146.712 125.39 146.528 125.165 146.507L117.894 146.139C117.28 146.098 116.809 145.565 116.829 144.951C116.87 144.336 117.402 143.845 118.017 143.886L124.899 144.254C125.124 144.254 125.288 144.07 125.267 143.865C125.206 143.497 125.165 143.148 125.124 142.78C125.083 142.554 124.899 142.37 124.653 142.37L117.894 142.001C117.28 141.981 116.809 141.448 116.829 140.814C116.87 140.199 117.402 139.728 118.017 139.749L124.428 140.097C124.571 140.097 124.694 139.953 124.673 139.81L124.612 139.4C124.509 138.786 124.919 138.212 125.534 138.11C126.148 137.987 126.742 138.417 126.824 139.032C126.865 139.257 126.926 139.544 126.967 139.851C127.008 140.076 127.193 140.24 127.418 140.24L132.088 140.486C132.702 140.527 133.194 141.059 133.153 141.674C133.112 142.309 132.6 142.78 131.965 142.739L127.766 142.513C127.541 142.513 127.377 142.698 127.418 142.903L127.541 143.988C127.582 144.213 127.766 144.398 128.012 144.418L132.088 144.623C132.722 144.664 133.194 145.197 133.153 145.811C133.132 146.425 132.6 146.896 131.965 146.876L128.258 146.671C128.032 146.671 127.868 146.855 127.889 147.06C127.971 148.146 128.053 149.047 127.991 150.132C127.971 150.378 128.073 150.645 128.258 150.829C128.954 151.546 129.486 152.283 129.855 152.856C130.183 153.369 129.998 154.044 129.486 154.372C128.974 154.7 128.339 154.515 127.991 154.044C127.848 153.819 127.664 153.594 127.459 153.328C127.336 153.184 127.09 153.184 126.988 153.348C125.861 154.905 123.895 155.437 122.011 154.679ZM122.195 151.3C122.072 151.75 122.318 152.385 122.85 152.59C123.834 152.979 124.796 152.734 125.308 151.812C125.411 151.607 125.329 151.341 125.124 151.218C124.653 150.972 124.182 150.808 123.69 150.747C123.137 150.685 122.338 150.706 122.195 151.3Z" fill="white"/>
<path d="M96.4912 155.212C95.8973 155.212 95.4057 154.72 95.4057 154.126C95.4057 153.532 95.8973 153.041 96.4912 153.041H100.587C100.813 153.041 100.997 152.856 100.997 152.631V149.968C100.997 149.743 100.813 149.559 100.587 149.559H97.2695C96.6551 149.559 96.184 149.067 96.184 148.473C96.184 147.879 96.6551 147.388 97.2695 147.388H100.587C100.813 147.388 100.997 147.204 100.997 146.978V144.418C100.997 144.193 100.813 144.008 100.587 144.008H96.5936C95.9792 144.008 95.5081 143.517 95.5081 142.923C95.5081 142.329 95.9792 141.837 96.5936 141.837H107.592C108.206 141.837 108.678 142.329 108.678 142.923C108.678 143.517 108.206 144.008 107.592 144.008H103.619C103.373 144.008 103.209 144.193 103.209 144.418V146.978C103.209 147.204 103.373 147.388 103.619 147.388H106.916C107.531 147.388 108.002 147.879 108.002 148.473C108.002 149.067 107.531 149.559 106.916 149.559H103.619C103.373 149.559 103.209 149.743 103.209 149.968V152.631C103.209 152.856 103.373 153.041 103.619 153.041H107.694C108.288 153.041 108.78 153.532 108.78 154.126C108.78 154.72 108.288 155.212 107.694 155.212H96.4912ZM90.0806 144.398L94.6889 138.048C95.0575 137.557 95.7334 137.434 96.225 137.803C96.7165 138.151 96.8189 138.827 96.4707 139.318L94.6274 141.878C94.4636 142.083 94.3817 142.349 94.3817 142.616V154.577C94.3817 155.191 93.8901 155.683 93.2757 155.683C92.6612 155.683 92.1697 155.191 92.1697 154.577V145.524C92.1697 145.442 92.0673 145.401 92.0058 145.463L91.8625 145.688C91.4938 146.179 90.8179 146.282 90.3264 145.934C89.8348 145.565 89.7324 144.889 90.0806 144.398ZM99.1947 138.007C99.502 137.495 100.178 137.311 100.71 137.618L103.578 139.277C104.11 139.585 104.274 140.26 103.987 140.772C103.68 141.305 103.004 141.489 102.472 141.182L99.6044 139.523C99.0719 139.216 98.8875 138.54 99.1947 138.007Z" fill="white"/>
<defs>
<filter id="filter0_d_48_398" x="27.2776" y="53.0715" width="193.484" height="121.949" filterUnits="userSpaceOnUse" color-interpolation-filters="sRGB">
<feFlood flood-opacity="0" result="BackgroundImageFix"/>
<feColorMatrix in="SourceAlpha" type="matrix" values="0 0 0 0 0 0 0 0 0 0 0 0 0 0 0 0 0 0 127 0" result="hardAlpha"/>
<feOffset dy="4"/>
<feGaussianBlur stdDeviation="2"/>
<feComposite in2="hardAlpha" operator="out"/>
<feColorMatrix type="matrix" values="0 0 0 0 0 0 0 0 0 0 0 0 0 0 0 0 0 0 0.25 0"/>
<feBlend mode="normal" in2="BackgroundImageFix" result="effect1_dropShadow_48_398"/>
<feBlend mode="normal" in="SourceGraphic" in2="effect1_dropShadow_48_398" result="shape"/>
</filter>
<filter id="filter1_f_48_398" x="0" y="13.998" width="248.041" height="192.096" filterUnits="userSpaceOnUse" color-interpolation-filters="sRGB">
<feFlood flood-opacity="0" result="BackgroundImageFix"/>
<feBlend mode="normal" in="SourceGraphic" in2="BackgroundImageFix" result="shape"/>
<feGaussianBlur stdDeviation="25" result="effect1_foregroundBlur_48_398"/>
</filter>
</defs>
</svg>
