<svg width="249" height="207" viewBox="0 0 249 207" fill="none" xmlns="http://www.w3.org/2000/svg">
<rect x="38.2419" y="21.8527" width="173.264" height="145.168" rx="10" fill="#FFC4C6"/>
<rect x="106.548" y="36.1219" width="97.8477" height="115.286" rx="5" transform="rotate(7.87578 106.548 36.1219)" fill="#B5B5B5"/>
<rect x="106.028" y="35.6763" width="97.8477" height="115.286" rx="5" transform="rotate(7.87578 106.028 35.6763)" fill="#B5B5B5"/>
<rect x="106.172" y="36.0588" width="97.8477" height="115.286" rx="5" transform="rotate(7.87578 106.172 36.0588)" fill="#F5F5F5"/>
<rect x="132.046" y="46.9731" width="43.5955" height="3.87516" rx="1.93758" transform="rotate(7.87578 132.046 46.9731)" fill="#D9D9D9"/>
<rect x="110.551" y="50.3572" width="85.7378" height="3.87516" rx="1.93758" transform="rotate(7.87578 110.551 50.3572)" fill="#D9D9D9"/>
<rect x="103.117" y="104.097" width="85.7378" height="3.87516" rx="1.93758" transform="rotate(7.87578 103.117 104.097)" fill="#D9D9D9"/>
<rect x="107.962" y="69.0702" width="85.7378" height="3.87516" rx="1.93758" transform="rotate(7.87578 107.962 69.0702)" fill="#D9D9D9"/>
<rect x="109.688" y="56.595" width="85.7378" height="3.87516" rx="1.93758" transform="rotate(7.87578 109.688 56.595)" fill="#D9D9D9"/>
<rect x="102.254" y="110.335" width="85.7378" height="3.87516" rx="1.93758" transform="rotate(7.87578 102.254 110.335)" fill="#D9D9D9"/>
<rect x="107.1" y="75.3076" width="64.4245" height="3.87516" rx="1.93758" transform="rotate(7.87578 107.1 75.3076)" fill="#D9D9D9"/>
<rect x="108.825" y="62.8326" width="43.5955" height="3.87516" rx="1.93758" transform="rotate(7.87578 108.825 62.8326)" fill="#D9D9D9"/>
<rect x="101.391" y="116.573" width="43.5955" height="3.87516" rx="1.93758" transform="rotate(7.87578 101.391 116.573)" fill="#D9D9D9"/>
<rect x="141.411" y="134.823" width="43.5955" height="3.87516" rx="1.93758" transform="rotate(7.87578 141.411 134.823)" fill="#D9D9D9"/>
<rect x="140.548" y="141.06" width="43.5955" height="3.87516" rx="1.93758" transform="rotate(7.87578 140.548 141.06)" fill="#D9D9D9"/>
<rect x="160.317" y="150.153" width="22.7665" height="3.87516" rx="1.93758" transform="rotate(7.87578 160.317 150.153)" fill="#D9D9D9"/>
<rect x="105.374" y="87.7834" width="43.5955" height="3.87516" rx="1.93758" transform="rotate(7.87578 105.374 87.7834)" fill="#D9D9D9"/>
<rect x="106.237" y="81.5455" width="85.7378" height="3.87516" rx="1.93758" transform="rotate(7.87578 106.237 81.5455)" fill="#D9D9D9"/>
<rect x="74.6499" y="36.1573" width="97.8477" height="115.286" rx="5" transform="rotate(-2.59781 74.6499 36.1573)" fill="#B5B5B5"/>
<rect x="74.0574" y="35.8136" width="97.8477" height="115.286" rx="5" transform="rotate(-2.59781 74.0574 35.8136)" fill="#B5B5B5"/>
<rect x="74.2686" y="36.1636" width="97.8477" height="115.286" rx="5" transform="rotate(-2.59781 74.2686 36.1636)" fill="#F5F5F5"/>
<rect x="101.696" y="42.1927" width="43.5955" height="3.87516" rx="1.93758" transform="rotate(-2.59781 101.696 42.1927)" fill="#D9D9D9"/>
<rect x="81.1738" y="49.4277" width="85.7378" height="3.87516" rx="1.93758" transform="rotate(-2.59781 81.1738 49.4277)" fill="#D9D9D9"/>
<rect x="83.6328" y="103.624" width="85.7378" height="3.87516" rx="1.93758" transform="rotate(-2.59781 83.6328 103.624)" fill="#D9D9D9"/>
<rect x="82.03" y="68.2996" width="85.7378" height="3.87516" rx="1.93758" transform="rotate(-2.59781 82.03 68.2996)" fill="#D9D9D9"/>
<rect x="81.459" y="55.7183" width="85.7378" height="3.87516" rx="1.93758" transform="rotate(-2.59781 81.459 55.7183)" fill="#D9D9D9"/>
<rect x="83.9182" y="109.915" width="85.7378" height="3.87516" rx="1.93758" transform="rotate(-2.59781 83.9182 109.915)" fill="#D9D9D9"/>
<rect x="82.3157" y="74.5896" width="64.4245" height="3.87516" rx="1.93758" transform="rotate(-2.59781 82.3157 74.5896)" fill="#D9D9D9"/>
<rect x="81.7446" y="62.0089" width="43.5955" height="3.87516" rx="1.93758" transform="rotate(-2.59781 81.7446 62.0089)" fill="#D9D9D9"/>
<rect x="84.2036" y="116.205" width="43.5955" height="3.87516" rx="1.93758" transform="rotate(-2.59781 84.2036 116.205)" fill="#D9D9D9"/>
<rect x="126.874" y="126.876" width="43.5955" height="3.87516" rx="1.93758" transform="rotate(-2.59781 126.874 126.876)" fill="#D9D9D9"/>
<rect x="127.159" y="133.167" width="43.5955" height="3.87516" rx="1.93758" transform="rotate(-2.59781 127.159 133.167)" fill="#D9D9D9"/>
<rect x="148.252" y="138.514" width="22.7665" height="3.87516" rx="1.93758" transform="rotate(-2.59781 148.252 138.514)" fill="#D9D9D9"/>
<rect x="82.8862" y="87.1714" width="43.5955" height="3.87516" rx="1.93758" transform="rotate(-2.59781 82.8862 87.1714)" fill="#D9D9D9"/>
<rect x="82.6011" y="80.8807" width="85.7378" height="3.87516" rx="1.93758" transform="rotate(-2.59781 82.6011 80.8807)" fill="#D9D9D9"/>
<rect x="48.9438" y="38.6292" width="97.8477" height="115.286" rx="5" transform="rotate(-11.2411 48.9438 38.6292)" fill="#B5B5B5"/>
<rect x="48.3064" y="38.3784" width="97.8477" height="115.286" rx="5" transform="rotate(-11.2411 48.3064 38.3784)" fill="#B5B5B5"/>
<rect x="48.5676" y="38.6926" width="97.8477" height="115.286" rx="5" transform="rotate(-11.2411 48.5676 38.6926)" fill="#F5F5F5"/>
<rect x="76.5898" y="40.5312" width="43.5955" height="3.87516" rx="1.93758" transform="rotate(-11.2411 76.5898 40.5312)" fill="#D9D9D9"/>
<rect x="57.3879" y="50.7684" width="85.7378" height="3.87516" rx="1.93758" transform="rotate(-11.2411 57.3879 50.7684)" fill="#D9D9D9"/>
<rect x="67.9636" y="103.979" width="85.7378" height="3.87516" rx="1.93758" transform="rotate(-11.2411 67.9636 103.979)" fill="#D9D9D9"/>
<rect x="61.0708" y="69.297" width="85.7378" height="3.87516" rx="1.93758" transform="rotate(-11.2411 61.0708 69.297)" fill="#D9D9D9"/>
<rect x="58.6155" y="56.9446" width="85.7378" height="3.87516" rx="1.93758" transform="rotate(-11.2411 58.6155 56.9446)" fill="#D9D9D9"/>
<rect x="69.1914" y="110.156" width="85.7378" height="3.87516" rx="1.93758" transform="rotate(-11.2411 69.1914 110.156)" fill="#D9D9D9"/>
<rect x="62.2981" y="75.4731" width="64.4245" height="3.87516" rx="1.93758" transform="rotate(-11.2411 62.2981 75.4731)" fill="#D9D9D9"/>
<rect x="59.843" y="63.1207" width="43.5955" height="3.87516" rx="1.93758" transform="rotate(-11.2411 59.843 63.1207)" fill="#D9D9D9"/>
<rect x="70.4187" y="116.332" width="43.5955" height="3.87516" rx="1.93758" transform="rotate(-11.2411 70.4187 116.332)" fill="#D9D9D9"/>
<rect x="114.208" y="120.469" width="43.5955" height="3.87516" rx="1.93758" transform="rotate(-11.2411 114.208 120.469)" fill="#D9D9D9"/>
<rect x="115.436" y="126.646" width="43.5955" height="3.87516" rx="1.93758" transform="rotate(-11.2411 115.436 126.646)" fill="#D9D9D9"/>
<rect x="137.092" y="128.762" width="22.7665" height="3.87516" rx="1.93758" transform="rotate(-11.2411 137.092 128.762)" fill="#D9D9D9"/>
<rect x="64.7532" y="87.8259" width="43.5955" height="3.87516" rx="1.93758" transform="rotate(-11.2411 64.7532 87.8259)" fill="#D9D9D9"/>
<rect x="63.5256" y="81.6497" width="85.7378" height="3.87516" rx="1.93758" transform="rotate(-11.2411 63.5256 81.6497)" fill="#D9D9D9"/>
<path d="M69.2818 51.5003C68.9658 51.7774 68.4744 51.7468 68.1973 51.4309C67.9175 51.1012 67.9645 50.6207 68.264 50.3327C70.7999 48.0145 73.0398 45.07 74.2201 41.7514C74.2696 41.6417 74.1598 41.5208 74.0363 41.5454L67.7341 42.801C67.3085 42.8858 66.9106 42.6082 66.8285 42.1963C66.7464 41.7844 67.0076 41.3755 67.4332 41.2907L75.0122 39.7807C75.6713 39.6494 76.2722 40.2291 76.1015 40.877C75.0524 44.9974 72.3369 48.7075 69.2818 51.5003ZM73.5103 47.3602C73.6891 46.9677 74.1422 46.8061 74.5347 46.9848L77.6307 48.4093C78.0095 48.5908 78.1849 49.0413 78.0034 49.42C77.8246 49.8125 77.3742 49.9879 76.9817 49.8091L73.8857 48.3846C73.507 48.2031 73.3316 47.7527 73.5103 47.3602ZM90.5388 47.2794C90.2091 47.5592 89.7176 47.5286 89.4406 47.2127L87.0347 44.4516C86.7576 44.1356 86.7744 43.6469 87.1041 43.3671C87.4201 43.09 87.9115 43.1206 88.1886 43.4365L89.0225 44.3981C89.1158 44.508 89.2998 44.4999 89.3767 44.3846C90.8305 42.5104 91.5325 40.0152 91.8001 38.2774C91.8304 38.1429 91.7069 38.0247 91.5696 38.0521L84.3201 39.4965C83.8945 39.5813 83.4966 39.3037 83.4145 38.8918C83.3325 38.4799 83.5936 38.0709 84.0192 37.9861L92.12 36.3722C92.834 36.2299 93.5145 36.7795 93.4426 37.4934C93.2211 39.9643 92.3099 43.2721 90.378 45.6127C90.2956 45.7005 90.2954 45.8432 90.386 45.9394L90.6082 46.1949C90.8853 46.5109 90.8547 47.0023 90.5388 47.2794ZM107.32 43.8075C106.908 43.8896 106.496 43.6147 106.414 43.2028L105.066 36.4338C105.035 36.2828 104.887 36.1838 104.739 36.2277L101.232 37.1119C100.826 37.2215 100.406 36.9768 100.294 36.5566C100.198 36.1475 100.442 35.7276 100.863 35.6153L104.438 34.7174C104.586 34.6735 104.685 34.5253 104.655 34.3743L104.48 33.4956C104.398 33.0837 104.673 32.672 105.085 32.59C105.511 32.5052 105.908 32.7828 105.99 33.1947L106.149 33.991C106.179 34.1421 106.325 34.2273 106.476 34.1972L109.832 33.343C110.252 33.2307 110.672 33.4754 110.77 33.8983C110.88 34.3047 110.635 34.7246 110.215 34.8369L106.777 35.7075C106.626 35.7376 106.529 35.8995 106.559 36.0505L107.925 42.9019C108.007 43.3138 107.745 43.7227 107.32 43.8075ZM101.73 43.3366L103.249 38.8514C103.398 38.4506 103.826 38.2368 104.224 38.3716C104.636 38.5037 104.852 38.9459 104.718 39.3439L103.185 43.8319C103.05 44.2299 102.622 44.4438 102.21 44.3117C101.812 44.1769 101.595 43.7347 101.73 43.3366ZM109.269 40.1929C108.992 39.877 109.023 39.3855 109.339 39.1085C109.655 38.8314 110.146 38.8619 110.423 39.1779L112.289 41.3044C112.566 41.6203 112.535 42.1118 112.219 42.3889C111.903 42.6659 111.412 42.6354 111.135 42.3194L109.269 40.1929ZM119.03 31.8671C118.967 32.051 118.962 32.2377 118.997 32.4162L120.688 40.9014C120.77 41.3133 120.506 41.7085 120.094 41.7906C119.682 41.8727 119.287 41.6088 119.205 41.1969L118.001 35.1556C117.996 35.1282 117.935 35.1116 117.927 35.1418C117.792 35.5399 117.361 35.74 116.979 35.6161C116.581 35.4813 116.368 35.0528 116.505 34.6685L118.186 29.7084C118.321 29.3104 118.739 29.113 119.134 29.2341C119.532 29.369 119.732 29.8002 119.608 30.1817L119.03 31.8671ZM119.596 32.2684C119.522 31.8977 119.761 31.5217 120.145 31.4451L127.972 29.8858C128.356 29.8092 128.721 30.0649 128.795 30.4356C128.872 30.82 128.63 31.1823 128.245 31.2589L120.419 32.8181C120.035 32.8947 119.672 32.6528 119.596 32.2684ZM121.693 39.7875L121.436 38.4968C121.286 37.7417 121.767 37.0034 122.536 36.8503L127.849 35.7916C128.604 35.6411 129.345 36.1359 129.496 36.8911L129.753 38.1817C129.903 38.9368 129.409 39.6778 128.654 39.8283L123.34 40.8869C122.571 41.0401 121.844 40.5426 121.693 39.7875ZM121.158 35.8828C121.082 35.4983 121.323 35.1361 121.708 35.0595L127.914 33.823C128.298 33.7464 128.661 33.9883 128.737 34.3728C128.811 34.7435 128.572 35.1194 128.187 35.196L121.981 36.4325C121.597 36.5091 121.232 36.2535 121.158 35.8828ZM120.781 33.988C120.707 33.6173 120.946 33.2413 121.33 33.1647L127.536 31.9283C127.921 31.8517 128.286 32.1073 128.36 32.478C128.436 32.8624 128.194 33.2247 127.81 33.3013L121.604 34.5378C121.219 34.6143 120.857 34.3725 120.781 33.988ZM120.031 30.226C119.954 29.8415 120.196 29.4793 120.581 29.4027L126.787 28.1662C127.171 28.0896 127.533 28.3315 127.61 28.7159C127.687 29.1004 127.445 29.4626 127.06 29.5392L120.854 30.7757C120.47 30.8523 120.108 30.6104 120.031 30.226ZM123.149 39.2119C123.179 39.363 123.314 39.4647 123.478 39.4318L127.968 38.5373C128.119 38.5072 128.218 38.359 128.188 38.208L128.04 37.4666C128.01 37.3155 127.862 37.2166 127.711 37.2467L123.221 38.1412C123.056 38.174 122.971 38.3195 123.001 38.4705L123.149 39.2119ZM90.5353 65.8908C90.2358 66.1789 89.7636 66.173 89.492 65.8846C89.2039 65.5851 89.2097 65.1128 89.4955 64.8275L91.5177 62.8686C91.5782 62.8137 91.5151 62.7121 91.4464 62.7258L87.8629 63.4397C87.4647 63.5191 87.086 63.2662 87.0066 62.868C86.9273 62.4699 87.1802 62.0911 87.5784 62.0118L92.0956 61.1118C92.2054 61.0899 92.2824 60.9747 92.2605 60.8648L92.2113 60.6177C92.1292 60.2058 92.3931 59.8106 92.805 59.7285C93.2169 59.6465 93.612 59.9103 93.6941 60.3222L93.7434 60.5694C93.7652 60.6792 93.8805 60.7562 93.9903 60.7343L98.5076 59.8343C98.9057 59.755 99.2844 60.0079 99.3638 60.406C99.4431 60.8042 99.1902 61.1829 98.7921 61.2622L95.2085 61.9762C95.1398 61.9899 95.1205 62.108 95.1974 62.1355L97.816 63.1697C98.1892 63.3238 98.3756 63.7577 98.2381 64.142C98.084 64.5153 97.6501 64.7017 97.2631 64.5504L93.7277 63.142C93.5713 63.0733 93.3791 63.1116 93.2609 63.235L90.5353 65.8908ZM86.4975 60.7425C86.3797 60.3663 86.5832 59.9546 86.9622 59.8506L88.5056 59.3575C88.6539 59.3137 88.7528 59.1655 88.72 59.0007L88.627 58.5339C88.5969 58.3828 88.4487 58.2839 88.2977 58.314L87.1581 58.541C86.7599 58.6204 86.3949 58.3648 86.3183 57.9803C86.2417 57.5959 86.4809 57.2199 86.8791 57.1406L88.0187 56.9135C88.1697 56.8834 88.2686 56.7352 88.2385 56.5842L88.2303 56.543C88.2003 56.392 88.0521 56.293 87.901 56.3231L86.4868 56.6049C86.1024 56.6815 85.7237 56.4286 85.6471 56.0441C85.5705 55.6597 85.8234 55.281 86.2078 55.2044L87.622 54.9226C87.773 54.8925 87.872 54.7444 87.8419 54.5933L87.82 54.4835C87.7407 54.0853 88.0045 53.6901 88.4027 53.6108C88.8009 53.5315 89.1961 53.7953 89.2754 54.1935L89.2973 54.3034C89.3274 54.4544 89.4756 54.5533 89.6266 54.5232L91.0408 54.2415C91.4253 54.1649 91.804 54.4178 91.8806 54.8022C91.9572 55.1867 91.7043 55.5654 91.3198 55.642L89.9056 55.9237C89.7546 55.9538 89.6556 56.102 89.6857 56.253L89.6939 56.2942C89.724 56.4453 89.8722 56.5442 90.0233 56.5141L91.1766 56.2843C91.561 56.2077 91.9397 56.4606 92.0163 56.8451C92.0929 57.2295 91.8401 57.6082 91.4556 57.6848L90.3023 57.9146C90.1513 57.9447 90.0523 58.0929 90.0824 58.2439L90.1453 58.5597C90.1754 58.7107 90.3209 58.796 90.4692 58.7521L91.8258 58.3248C92.202 58.207 92.6165 58.4242 92.7205 58.8032C92.8383 59.1794 92.6321 59.5774 92.2559 59.6952L87.3895 61.2072C87.0133 61.325 86.6153 61.1188 86.4975 60.7425ZM91.8755 54.275C91.7961 53.8769 92.06 53.4817 92.4582 53.4024L96.3987 52.6173C97.1401 52.4695 97.8564 52.9835 97.9629 53.7331L98.624 58.2694C98.6924 58.684 98.3983 59.0709 97.9809 59.1256C97.5663 59.1939 97.1794 58.8998 97.111 58.4852L96.5237 54.391C96.4936 54.24 96.3592 54.1383 96.2081 54.1684L95.4255 54.3243C95.2607 54.3572 95.1453 54.4943 95.1342 54.6536L94.865 58.6757C94.8482 59.0931 94.4828 59.4085 94.0655 59.3918C93.6454 59.3612 93.3299 58.9958 93.3604 58.5758L93.5965 54.96C93.6103 54.8145 93.4896 54.71 93.3523 54.7374L92.7481 54.8578C92.35 54.9371 91.9548 54.6732 91.8755 54.275ZM115.895 60.981C115.491 61.0329 115.123 60.7635 115.072 60.3599L113.971 52.8278C113.954 52.6741 113.806 52.5751 113.655 52.6052L110.319 53.2699C110.168 53.3 110.038 53.44 110.044 53.6102L110.032 54.9116C110.026 55.3125 109.691 55.6362 109.29 55.6304C108.889 55.6246 108.565 55.2894 108.571 54.8886L108.635 50.4078C108.638 49.9932 108.962 49.6859 109.36 49.678C109.761 49.6837 110.085 50.019 110.079 50.4198L110.065 51.4933C110.067 51.6498 110.202 51.7515 110.339 51.7242L113.771 51.0403C114.527 50.8898 115.243 51.4038 115.349 52.1534L116.516 60.1578C116.565 60.5477 116.298 60.9291 115.895 60.981ZM104.401 62.1148L104.435 60.0665C104.433 59.6959 104.746 59.4051 105.103 59.4053C105.476 59.4166 105.778 59.7133 105.767 60.0867L105.746 62.1322C105.735 62.5056 105.438 62.8074 105.065 62.7962C104.694 62.7986 104.403 62.4854 104.401 62.1148ZM103.108 53.6216L104.173 50.9399C104.327 50.5666 104.747 50.383 105.118 50.5232C105.491 50.6773 105.675 51.0975 105.521 51.4708L104.525 53.996C104.456 54.1525 104.516 54.3118 104.662 54.397L105.123 54.6335C105.249 54.694 105.408 54.6337 105.466 54.4937L106.506 51.9026C106.657 51.5155 107.08 51.3456 107.451 51.4859C107.824 51.64 108.008 52.0602 107.854 52.4335L106.049 56.9899C106 57.0997 106.096 57.2233 106.219 57.1987L107.167 57.0099C107.318 56.9798 107.403 56.8344 107.345 56.6888L107.156 56.1698C107.027 55.81 107.203 55.4038 107.577 55.2722C107.934 55.1297 108.329 55.3222 108.472 55.6793L109.223 57.728C109.351 58.0878 109.175 58.494 108.816 58.6228C108.577 58.7132 108.324 58.6636 108.137 58.5152C108.003 58.4136 107.844 58.3311 107.679 58.3639L107.555 58.3885C107.404 58.4186 107.305 58.5668 107.336 58.7178L107.965 61.8758C108.044 62.2739 107.78 62.6691 107.382 62.7484C106.984 62.8278 106.589 62.5639 106.509 62.1657L105.88 59.0078C105.85 58.8568 105.702 58.7578 105.551 58.7879L104.974 58.9028C104.384 59.0204 103.896 58.4325 104.127 57.8726L104.737 56.3519C104.795 56.212 104.732 56.0389 104.589 55.9674L103.823 55.5633C103.124 55.2031 102.811 54.3517 103.108 53.6216ZM107.947 59.9236C107.793 59.583 107.958 59.1933 108.299 59.0398C108.642 58.9 109.029 59.0513 109.183 59.3919L109.83 60.9189C109.983 61.2595 109.818 61.6492 109.478 61.8027C109.134 61.9425 108.745 61.7775 108.594 61.4506L107.947 59.9236ZM109.99 56.2048C110.204 55.848 110.665 55.7275 111.036 55.9392L113.273 57.278C113.629 57.4924 113.75 57.9538 113.535 58.3105C113.321 58.6673 112.86 58.7878 112.503 58.5734L110.253 57.2373C109.896 57.0229 109.775 56.5616 109.99 56.2048Z" fill="black"/>
<g filter="url(#filter0_d_48_395)">
<path d="M31.3108 63.8773C30.8402 58.0558 35.4377 53.0715 41.2783 53.0715H118.177C120.97 53.0715 123.635 54.2394 125.529 56.2925L139.822 71.7933C143.507 75.789 148.659 78.113 154.093 78.2306L206.977 79.3745C212.792 79.5003 217.273 84.5439 216.714 90.3337L210.179 157.982C209.684 163.108 205.376 167.02 200.225 167.02H48.8736C43.6632 167.02 39.3259 163.02 38.9061 157.826L31.3108 63.8773Z" fill="#FFA9AC" fill-opacity="0.6" shape-rendering="crispEdges"/>
</g>
<g filter="url(#filter1_f_48_395)">
<path d="M50.0325 74.7959C49.5669 68.9771 54.1633 63.9982 60.0006 63.9982H118.454C121.264 63.9982 123.945 65.1808 125.84 67.2566L135.516 77.8584C139.203 81.8978 144.384 84.2511 149.851 84.3706L188.258 85.2099C194.069 85.3369 198.548 90.3738 197.994 96.1594L193.128 147.046C192.638 152.176 188.328 156.094 183.174 156.094H65.7699C60.5564 156.094 56.2176 152.088 55.8018 146.891L50.0325 74.7959Z" fill="#FBEFF0" fill-opacity="0.8"/>
</g>
<path d="M167.556 139.748C168.683 139.748 169.563 140.69 169.42 141.796C168.642 146.794 166.471 151.382 163.153 154.904C162.723 155.355 162.006 155.335 161.576 154.884C161.146 154.433 161.166 153.716 161.596 153.266C164.423 150.255 166.225 146.466 167.024 142.411C167.065 142.186 166.901 142.001 166.676 142.001H160.265C159.999 142.001 159.773 142.145 159.651 142.37L156.251 149.047C155.964 149.6 155.288 149.825 154.735 149.538C154.182 149.252 153.957 148.576 154.243 148.023L157.541 141.571C158.114 140.465 159.261 139.748 160.511 139.748H167.556Z" fill="white"/>
<path d="M131.018 155.089C130.486 155.396 129.789 155.212 129.482 154.679C129.175 154.126 129.38 153.45 129.892 153.123C134.193 150.522 138.248 146.937 140.89 142.513C140.992 142.37 140.87 142.165 140.685 142.165H131.284C130.649 142.165 130.158 141.653 130.158 141.039C130.158 140.424 130.649 139.912 131.284 139.912H142.59C143.573 139.912 144.269 140.916 143.839 141.797C141.156 147.408 136.2 151.955 131.018 155.089ZM138.268 150.358C138.637 149.846 139.333 149.743 139.845 150.112L143.88 153.041C144.372 153.409 144.495 154.106 144.126 154.597C143.757 155.109 143.061 155.232 142.549 154.864L138.514 151.935C138.023 151.566 137.9 150.87 138.268 150.358Z" fill="white"/>
<path d="M110.209 154.884C109.697 155.232 109.021 155.069 108.673 154.577C108.325 154.106 108.468 153.471 108.939 153.123C111.888 150.89 114.776 146.507 115.964 142.329C116.026 142.145 115.862 141.94 115.657 141.94H103.921C103.307 141.94 102.795 141.449 102.795 140.814C102.795 140.199 103.307 139.687 103.921 139.687H116.681C117.766 139.687 118.668 140.65 118.442 141.715C118.299 142.37 118.115 143.026 117.889 143.722C116.497 148.003 113.588 152.59 110.209 154.884ZM118.115 137.905C118.033 137.598 118.217 137.291 118.524 137.209C118.831 137.127 119.139 137.311 119.221 137.619L119.794 139.81C119.876 140.117 119.712 140.424 119.405 140.506C119.098 140.588 118.791 140.404 118.709 140.117L118.115 137.905ZM119.856 137.332C119.774 137.025 119.958 136.717 120.265 136.635C120.552 136.554 120.859 136.738 120.941 137.045L121.535 139.257C121.617 139.544 121.433 139.851 121.146 139.933C120.839 140.015 120.531 139.83 120.449 139.544L119.856 137.332Z" fill="white"/>
<path d="M84.5463 155.007C83.9933 154.72 83.768 154.044 84.0547 153.491L89.0522 143.66C89.1341 143.496 89.0112 143.312 88.8269 143.312H82.2934C82.0681 143.312 81.8837 143.496 81.9042 143.722L82.1295 147.859C82.1705 148.473 81.6789 149.006 81.044 149.047C80.4296 149.067 79.9175 148.596 79.8766 147.982L79.6513 143.722C79.6308 143.476 79.4465 143.312 79.2212 143.312H78.6477C78.0333 143.312 77.5212 142.8 77.5212 142.186C77.5212 141.551 78.0333 141.059 78.6477 141.059H79.1597C79.3441 141.059 79.4874 140.895 79.4874 140.711L79.467 140.096C79.4465 139.462 79.8971 138.929 80.532 138.909C81.1464 138.868 81.6584 139.359 81.6994 139.974L81.7404 140.69C81.7609 140.895 81.9247 141.059 82.1295 141.059H89.9738C90.2196 141.059 90.4449 140.916 90.5678 140.69L91.3461 139.175C91.6328 138.622 92.3087 138.397 92.8617 138.683C93.4147 138.97 93.64 139.646 93.3532 140.199L93.0665 140.752C93.005 140.875 93.1074 141.059 93.2713 141.059H93.8038C94.4182 141.059 94.9303 141.551 94.9303 142.186C94.9303 142.8 94.4182 143.312 93.8038 143.312H92.1858C91.9195 143.312 91.6738 143.455 91.5714 143.66L86.0619 154.515C85.7752 155.068 85.0993 155.273 84.5463 155.007Z" fill="white"/>
<defs>
<filter id="filter0_d_48_395" x="27.2776" y="53.0715" width="193.484" height="121.949" filterUnits="userSpaceOnUse" color-interpolation-filters="sRGB">
<feFlood flood-opacity="0" result="BackgroundImageFix"/>
<feColorMatrix in="SourceAlpha" type="matrix" values="0 0 0 0 0 0 0 0 0 0 0 0 0 0 0 0 0 0 127 0" result="hardAlpha"/>
<feOffset dy="4"/>
<feGaussianBlur stdDeviation="2"/>
<feComposite in2="hardAlpha" operator="out"/>
<feColorMatrix type="matrix" values="0 0 0 0 0 0 0 0 0 0 0 0 0 0 0 0 0 0 0.25 0"/>
<feBlend mode="normal" in2="BackgroundImageFix" result="effect1_dropShadow_48_395"/>
<feBlend mode="normal" in="SourceGraphic" in2="effect1_dropShadow_48_395" result="shape"/>
</filter>
<filter id="filter1_f_48_395" x="0" y="13.9982" width="248.041" height="192.096" filterUnits="userSpaceOnUse" color-interpolation-filters="sRGB">
<feFlood flood-opacity="0" result="BackgroundImageFix"/>
<feBlend mode="normal" in="SourceGraphic" in2="BackgroundImageFix" result="shape"/>
<feGaussianBlur stdDeviation="25" result="effect1_foregroundBlur_48_395"/>
</filter>
</defs>
</svg>
