<svg width="249" height="207" viewBox="0 0 249 207" fill="none" xmlns="http://www.w3.org/2000/svg">
<rect x="38.2421" y="21.8529" width="173.264" height="145.168" rx="10" fill="#F6DE19"/>
<rect x="106.548" y="36.1219" width="97.8477" height="115.286" rx="5" transform="rotate(7.87578 106.548 36.1219)" fill="#B5B5B5"/>
<rect x="106.028" y="35.6761" width="97.8477" height="115.286" rx="5" transform="rotate(7.87578 106.028 35.6761)" fill="#B5B5B5"/>
<rect x="106.172" y="36.0588" width="97.8477" height="115.286" rx="5" transform="rotate(7.87578 106.172 36.0588)" fill="#F5F5F5"/>
<rect x="132.047" y="46.9729" width="43.5955" height="3.87516" rx="1.93758" transform="rotate(7.87578 132.047 46.9729)" fill="#D9D9D9"/>
<rect x="110.551" y="50.3571" width="85.7378" height="3.87516" rx="1.93758" transform="rotate(7.87578 110.551 50.3571)" fill="#D9D9D9"/>
<rect x="103.117" y="104.097" width="85.7378" height="3.87516" rx="1.93758" transform="rotate(7.87578 103.117 104.097)" fill="#D9D9D9"/>
<rect x="107.962" y="69.0699" width="85.7378" height="3.87516" rx="1.93758" transform="rotate(7.87578 107.962 69.0699)" fill="#D9D9D9"/>
<rect x="109.688" y="56.5947" width="85.7378" height="3.87516" rx="1.93758" transform="rotate(7.87578 109.688 56.5947)" fill="#D9D9D9"/>
<rect x="102.254" y="110.335" width="85.7378" height="3.87516" rx="1.93758" transform="rotate(7.87578 102.254 110.335)" fill="#D9D9D9"/>
<rect x="107.1" y="75.3073" width="64.4245" height="3.87516" rx="1.93758" transform="rotate(7.87578 107.1 75.3073)" fill="#D9D9D9"/>
<rect x="108.825" y="62.8323" width="43.5955" height="3.87516" rx="1.93758" transform="rotate(7.87578 108.825 62.8323)" fill="#D9D9D9"/>
<rect x="101.391" y="116.573" width="43.5955" height="3.87516" rx="1.93758" transform="rotate(7.87578 101.391 116.573)" fill="#D9D9D9"/>
<rect x="141.41" y="134.823" width="43.5955" height="3.87516" rx="1.93758" transform="rotate(7.87578 141.41 134.823)" fill="#D9D9D9"/>
<rect x="140.548" y="141.06" width="43.5955" height="3.87516" rx="1.93758" transform="rotate(7.87578 140.548 141.06)" fill="#D9D9D9"/>
<rect x="160.317" y="150.152" width="22.7665" height="3.87516" rx="1.93758" transform="rotate(7.87578 160.317 150.152)" fill="#D9D9D9"/>
<rect x="105.374" y="87.7832" width="43.5955" height="3.87516" rx="1.93758" transform="rotate(7.87578 105.374 87.7832)" fill="#D9D9D9"/>
<rect x="106.237" y="81.5453" width="85.7378" height="3.87516" rx="1.93758" transform="rotate(7.87578 106.237 81.5453)" fill="#D9D9D9"/>
<rect x="74.6499" y="36.1576" width="97.8477" height="115.286" rx="5" transform="rotate(-2.59781 74.6499 36.1576)" fill="#B5B5B5"/>
<rect x="74.0574" y="35.8137" width="97.8477" height="115.286" rx="5" transform="rotate(-2.59781 74.0574 35.8137)" fill="#B5B5B5"/>
<rect x="74.2686" y="36.1638" width="97.8477" height="115.286" rx="5" transform="rotate(-2.59781 74.2686 36.1638)" fill="#F5F5F5"/>
<rect x="101.696" y="42.1927" width="43.5955" height="3.87516" rx="1.93758" transform="rotate(-2.59781 101.696 42.1927)" fill="#D9D9D9"/>
<rect x="81.1737" y="49.4277" width="85.7378" height="3.87516" rx="1.93758" transform="rotate(-2.59781 81.1737 49.4277)" fill="#D9D9D9"/>
<rect x="83.6328" y="103.624" width="85.7378" height="3.87516" rx="1.93758" transform="rotate(-2.59781 83.6328 103.624)" fill="#D9D9D9"/>
<rect x="82.03" y="68.2998" width="85.7378" height="3.87516" rx="1.93758" transform="rotate(-2.59781 82.03 68.2998)" fill="#D9D9D9"/>
<rect x="81.4592" y="55.7185" width="85.7378" height="3.87516" rx="1.93758" transform="rotate(-2.59781 81.4592 55.7185)" fill="#D9D9D9"/>
<rect x="83.9181" y="109.915" width="85.7378" height="3.87516" rx="1.93758" transform="rotate(-2.59781 83.9181 109.915)" fill="#D9D9D9"/>
<rect x="82.3154" y="74.5898" width="64.4245" height="3.87516" rx="1.93758" transform="rotate(-2.59781 82.3154 74.5898)" fill="#D9D9D9"/>
<rect x="81.7446" y="62.0092" width="43.5955" height="3.87516" rx="1.93758" transform="rotate(-2.59781 81.7446 62.0092)" fill="#D9D9D9"/>
<rect x="84.2035" y="116.205" width="43.5955" height="3.87516" rx="1.93758" transform="rotate(-2.59781 84.2035 116.205)" fill="#D9D9D9"/>
<rect x="126.873" y="126.876" width="43.5955" height="3.87516" rx="1.93758" transform="rotate(-2.59781 126.873 126.876)" fill="#D9D9D9"/>
<rect x="127.159" y="133.167" width="43.5955" height="3.87516" rx="1.93758" transform="rotate(-2.59781 127.159 133.167)" fill="#D9D9D9"/>
<rect x="148.252" y="138.514" width="22.7665" height="3.87516" rx="1.93758" transform="rotate(-2.59781 148.252 138.514)" fill="#D9D9D9"/>
<rect x="82.8862" y="87.1714" width="43.5955" height="3.87516" rx="1.93758" transform="rotate(-2.59781 82.8862 87.1714)" fill="#D9D9D9"/>
<rect x="82.6008" y="80.8807" width="85.7378" height="3.87516" rx="1.93758" transform="rotate(-2.59781 82.6008 80.8807)" fill="#D9D9D9"/>
<rect x="48.9437" y="38.6293" width="97.8477" height="115.286" rx="5" transform="rotate(-11.2411 48.9437 38.6293)" fill="#B5B5B5"/>
<rect x="48.3064" y="38.3785" width="97.8477" height="115.286" rx="5" transform="rotate(-11.2411 48.3064 38.3785)" fill="#B5B5B5"/>
<rect x="48.5676" y="38.6929" width="97.8477" height="115.286" rx="5" transform="rotate(-11.2411 48.5676 38.6929)" fill="#F5F5F5"/>
<rect x="76.5897" y="40.5314" width="43.5955" height="3.87516" rx="1.93758" transform="rotate(-11.2411 76.5897 40.5314)" fill="#D9D9D9"/>
<rect x="57.3879" y="50.7684" width="85.7378" height="3.87516" rx="1.93758" transform="rotate(-11.2411 57.3879 50.7684)" fill="#D9D9D9"/>
<rect x="67.9637" y="103.98" width="85.7378" height="3.87516" rx="1.93758" transform="rotate(-11.2411 67.9637 103.98)" fill="#D9D9D9"/>
<rect x="61.0706" y="69.2972" width="85.7378" height="3.87516" rx="1.93758" transform="rotate(-11.2411 61.0706 69.2972)" fill="#D9D9D9"/>
<rect x="58.6156" y="56.9448" width="85.7378" height="3.87516" rx="1.93758" transform="rotate(-11.2411 58.6156 56.9448)" fill="#D9D9D9"/>
<rect x="69.1913" y="110.156" width="85.7378" height="3.87516" rx="1.93758" transform="rotate(-11.2411 69.1913 110.156)" fill="#D9D9D9"/>
<rect x="62.2981" y="75.4731" width="64.4245" height="3.87516" rx="1.93758" transform="rotate(-11.2411 62.2981 75.4731)" fill="#D9D9D9"/>
<rect x="59.843" y="63.121" width="43.5955" height="3.87516" rx="1.93758" transform="rotate(-11.2411 59.843 63.121)" fill="#D9D9D9"/>
<rect x="70.4188" y="116.332" width="43.5955" height="3.87516" rx="1.93758" transform="rotate(-11.2411 70.4188 116.332)" fill="#D9D9D9"/>
<rect x="114.208" y="120.47" width="43.5955" height="3.87516" rx="1.93758" transform="rotate(-11.2411 114.208 120.47)" fill="#D9D9D9"/>
<rect x="115.435" y="126.646" width="43.5955" height="3.87516" rx="1.93758" transform="rotate(-11.2411 115.435 126.646)" fill="#D9D9D9"/>
<rect x="137.092" y="128.762" width="22.7665" height="3.87516" rx="1.93758" transform="rotate(-11.2411 137.092 128.762)" fill="#D9D9D9"/>
<rect x="64.7533" y="87.8262" width="43.5955" height="3.87516" rx="1.93758" transform="rotate(-11.2411 64.7533 87.8262)" fill="#D9D9D9"/>
<rect x="63.5256" y="81.6499" width="85.7378" height="3.87516" rx="1.93758" transform="rotate(-11.2411 63.5256 81.6499)" fill="#D9D9D9"/>
<path d="M61.2975 54.5865C60.8974 54.6572 60.5234 54.3789 60.4527 53.9788L59.166 45.8364C59.0441 45.0608 59.546 44.3244 60.3129 44.1615L68.5294 42.4153C69.2826 42.2553 70.0298 42.7405 70.1898 43.4937L70.3412 44.2058C70.5041 44.9727 70.016 45.7062 69.2628 45.8663L61.2243 47.5746C61.0736 47.6066 60.9766 47.756 60.9949 47.9096L61.9188 53.7388C61.9895 54.1389 61.7141 54.5266 61.2975 54.5865ZM57.9388 43.5639C57.8602 43.1942 58.0946 42.8152 58.478 42.7337L69.406 40.4113C69.7894 40.3298 70.1576 40.5808 70.2362 40.9505C70.3177 41.334 70.0804 41.6993 69.697 41.7807L58.769 44.1031C58.3856 44.1846 58.0203 43.9473 57.9388 43.5639ZM61.5879 51.1041L62.2769 47.8804C62.3547 47.5061 62.7306 47.2544 63.105 47.3323C63.3005 47.3766 63.4724 47.5119 63.565 47.6783C63.6352 47.8065 63.7709 47.9064 63.9215 47.8744L66.0441 47.4233C66.2085 47.3884 66.3387 47.2605 66.3752 47.0954L66.3988 47.0045C66.4767 46.6301 66.8526 46.3785 67.2299 46.47C67.4254 46.5144 67.5943 46.6359 67.6869 46.8023C67.7708 46.9276 67.8929 47.0305 68.0435 46.9984L70.3167 46.5153C70.6454 46.4455 70.9638 46.6641 71.0307 46.9791C71.1006 47.3077 70.8957 47.6232 70.567 47.693L68.0884 48.2198C67.9788 48.2431 67.917 48.3564 67.9403 48.4659C67.9636 48.5755 68.0632 48.6402 68.1728 48.6169L70.3912 48.1455C70.7199 48.0756 71.0354 48.2805 71.1052 48.6092C71.175 48.9378 70.9701 49.2533 70.6415 49.3232L68.423 49.7946C68.3135 49.8179 68.2488 49.9175 68.2721 50.0271C68.2953 50.1366 68.3979 50.215 68.5074 50.1918L70.7259 49.7203C71.0545 49.6505 71.37 49.8553 71.4399 50.184C71.5068 50.499 71.3048 50.8282 70.9762 50.898L68.7577 51.3695C68.6482 51.3927 68.5834 51.4924 68.6067 51.6019C68.63 51.7115 68.7296 51.7762 68.8392 51.7529L71.3178 51.2261C71.6465 51.1563 71.9649 51.3749 72.0318 51.6899C72.1017 52.0185 71.8968 52.334 71.5681 52.4038L64.8169 53.8386C64.05 54.0016 63.3194 53.5271 63.1564 52.7602L62.9615 51.8427C62.9382 51.7331 62.8062 51.7182 62.7357 51.7905C62.5643 51.9271 62.3481 51.9873 62.1223 51.9351C61.748 51.8572 61.51 51.4784 61.5879 51.1041ZM60.6892 45.9994C60.7212 46.15 60.8569 46.25 61.0076 46.218L68.6215 44.5999C68.7722 44.5679 68.8692 44.4184 68.8372 44.2678L68.7906 44.0487C68.7586 43.8981 68.6092 43.801 68.4585 43.833L60.8857 45.4424C60.735 45.4744 60.638 45.6238 60.6563 45.7774L60.6892 45.9994ZM64.5806 52.4575C64.6039 52.5671 64.7035 52.6318 64.8131 52.6085L67.0179 52.14C67.1274 52.1167 67.2058 52.0141 67.1825 51.9046C67.1593 51.795 67.0459 51.7332 66.9364 51.7565L64.7316 52.2251C64.6221 52.2483 64.5574 52.348 64.5806 52.4575ZM64.246 50.8827C64.2692 50.9922 64.3718 51.0706 64.4813 51.0474L66.6861 50.5788C66.7957 50.5555 66.8711 50.4393 66.8479 50.3297C66.8246 50.2202 66.7113 50.1584 66.6017 50.1817L64.3969 50.6502C64.2874 50.6735 64.2227 50.7731 64.246 50.8827ZM63.9142 49.3216C63.9375 49.4311 64.0371 49.4958 64.1467 49.4725L66.3514 49.004C66.461 48.9807 66.5394 48.8782 66.5161 48.7686C66.4928 48.6591 66.3766 48.5836 66.267 48.6069L64.0623 49.0754C63.9527 49.0987 63.8909 49.212 63.9142 49.3216ZM78.4161 51.0201C77.9886 51.0966 77.598 50.8075 77.5352 50.3772L75.9872 40.6014C75.8654 39.8258 76.3672 39.0894 77.1341 38.9264L85.3917 37.1715C86.1449 37.0115 86.8921 37.4968 87.0521 38.2499L89.1155 47.9591C89.2057 48.3836 88.9332 48.7851 88.5224 48.8724C88.0979 48.9626 87.6993 48.7038 87.6091 48.2792L87.1901 46.3073C87.158 46.1566 87.0086 46.0596 86.858 46.0916L83.9 46.7202C83.7494 46.7522 83.6523 46.9017 83.6843 47.0523L83.9899 48.4902C84.0772 48.901 83.8076 49.3161 83.3968 49.4034C82.9723 49.4936 82.5709 49.2211 82.4836 48.8103L82.178 47.3724C82.146 47.2218 81.9965 47.1247 81.8459 47.1567L78.9564 47.7708C78.8058 47.8028 78.7087 47.9523 78.7271 48.1058L79.0453 50.1421C79.1189 50.5559 78.8327 50.9602 78.4161 51.0201ZM78.4059 46.0558C78.4242 46.2093 78.5737 46.3064 78.7243 46.2744L81.5316 45.6778C81.6822 45.6458 81.7793 45.4963 81.7473 45.3457L81.398 43.7024C81.366 43.5517 81.2166 43.4547 81.066 43.4867L78.3682 44.06C78.2176 44.092 78.1205 44.2415 78.1388 44.395L78.4059 46.0558ZM77.8177 42.345C77.836 42.4985 77.9854 42.5956 78.1361 42.5636L80.7517 42.0077C80.9023 41.9757 80.9993 41.8263 80.9673 41.6756L80.6152 40.0186C80.5832 39.868 80.4337 39.771 80.2831 39.803L77.7771 40.3355C77.6264 40.3676 77.5294 40.517 77.5477 40.6705L77.8177 42.345ZM83.2536 45.0256C83.2856 45.1762 83.4351 45.2733 83.5857 45.2412L86.5437 44.6126C86.6943 44.5806 86.7914 44.4312 86.7593 44.2805L86.4101 42.6372C86.3781 42.4866 86.2287 42.3895 86.078 42.4216L83.1201 43.0502C82.9694 43.0822 82.8724 43.2316 82.9044 43.3823L83.2536 45.0256ZM82.4737 41.3555C82.5057 41.5062 82.6551 41.6032 82.8058 41.5712L85.7637 40.9426C85.9144 40.9106 86.0114 40.7611 85.9794 40.6105L85.6273 38.9535C85.5953 38.8029 85.4458 38.7058 85.2952 38.7378L82.3372 39.3664C82.1866 39.3984 82.0895 39.5479 82.1216 39.6985L82.4737 41.3555ZM101.882 46.0046C101.471 46.0919 101.073 45.8331 100.985 45.4223L100.627 43.7379C100.607 43.642 100.475 43.6271 100.435 43.7072L99.3057 45.9367C99.1232 46.2903 98.6829 46.4411 98.3293 46.2587C97.9619 46.0791 97.8248 45.6359 98.0044 45.2686L99.2493 42.8428C99.2974 42.7324 99.2164 42.6208 99.1069 42.6441L97.0528 43.0806C96.6693 43.1621 96.2737 42.917 96.1893 42.5198C96.1049 42.1227 96.3667 41.7379 96.7501 41.6564L99.7628 41.0162C99.9135 40.9841 100.011 40.8347 99.9785 40.6841L99.8912 40.2732C99.8592 40.1226 99.7097 40.0256 99.5591 40.0576L97.8747 40.4155C97.1215 40.5756 96.3743 40.0903 96.2143 39.3371L95.609 36.4887C95.4489 35.7356 95.9342 34.9884 96.6873 34.8283L102.069 33.6846C102.822 33.5245 103.57 34.0098 103.73 34.763L104.335 37.6114C104.495 38.3645 104.01 39.1117 103.257 39.2718L101.586 39.6269C101.435 39.6589 101.338 39.8083 101.37 39.9589L101.457 40.3698C101.489 40.5204 101.639 40.6175 101.79 40.5854L104.789 39.9481C105.186 39.8637 105.568 40.1117 105.652 40.5089C105.736 40.906 105.488 41.2879 105.091 41.3723L103.147 41.7856C103.037 41.8088 102.995 41.9466 103.084 42.0279L105.208 43.7378C105.521 44.0004 105.576 44.461 105.327 44.7715C105.064 45.085 104.615 45.1233 104.304 44.8744L102.233 43.2106C102.161 43.1401 102.06 43.2045 102.08 43.3003L102.464 45.108C102.552 45.5188 102.293 45.9173 101.882 46.0046ZM92.5463 40.0594L94.1613 35.0646C94.2832 34.6952 94.6952 34.4788 95.0675 34.6144C95.4506 34.7333 95.664 35.1316 95.5314 35.5176L94.9013 37.4693C94.8375 37.6403 94.8342 37.827 94.8721 38.005L96.6502 46.3722C96.7346 46.7693 96.4866 47.1512 96.0894 47.2356C95.6923 47.32 95.3104 47.072 95.226 46.6749L93.9717 40.7727C93.9542 40.6905 93.836 40.6727 93.7791 40.742C93.5978 40.9666 93.2887 41.0609 93.0102 40.9627C92.6271 40.8437 92.4136 40.4454 92.5463 40.0594ZM97.6018 38.7274C97.6338 38.878 97.7833 38.9751 97.9339 38.9431L102.604 37.9507C102.754 37.9187 102.851 37.7692 102.819 37.6186L102.342 35.3727C102.31 35.2221 102.161 35.125 102.01 35.1571L97.3402 36.1494C97.1896 36.1815 97.0925 36.3309 97.1246 36.4815L97.6018 38.7274ZM116.281 42.7729C115.935 42.5601 115.839 42.1082 116.065 41.7595L117.475 39.5706C117.543 39.4847 117.462 39.3731 117.352 39.3964L116.435 39.5914C115.682 39.7514 114.934 39.2662 114.774 38.513L114.355 36.541C114.195 35.7878 114.681 35.0406 115.434 34.8806L116.803 34.5895C116.926 34.5634 117.016 34.4442 116.986 34.3073C116.96 34.184 116.827 34.0978 116.704 34.1239L116.197 34.2316C115.841 34.3073 115.479 34.0837 115.4 33.714C115.325 33.3579 115.562 32.9927 115.918 32.917L118.986 32.2651C119.355 32.1865 119.707 32.4267 119.783 32.7827C119.861 33.1525 119.635 33.5012 119.265 33.5797L118.608 33.7194C118.471 33.7485 118.398 33.8785 118.424 34.0017C118.453 34.1386 118.57 34.2141 118.707 34.185L120.172 33.8736C120.925 33.7136 121.672 34.1988 121.832 34.952L122.251 36.924C122.411 37.6772 121.926 38.4244 121.173 38.5844L120.064 38.8202C119.968 38.8405 119.939 38.9754 120.022 39.0293L122.164 40.4205C122.496 40.6362 122.595 41.1018 122.38 41.4338C122.153 41.7825 121.701 41.8786 121.353 41.6521L119.144 40.2178C119.025 40.1287 118.847 40.1665 118.761 40.2993L117.294 42.5575C117.068 42.9062 116.616 43.0023 116.281 42.7729ZM111.238 43.3579L109.163 33.5939C109.003 32.8407 109.488 32.0935 110.242 31.9335L112.063 31.5464C112.748 31.4009 113.367 31.9564 113.284 32.6466L113.017 35.294C112.997 35.47 113.021 35.6509 113.086 35.8231L114.478 39.4776C114.725 40.0979 114.343 40.7944 113.686 40.9341L113.124 41.0534C112.741 41.1349 112.359 40.8869 112.278 40.5035C112.196 40.12 112.444 39.7381 112.828 39.6566L112.855 39.6508C112.937 39.6334 112.977 39.5532 112.946 39.474L111.883 36.6943C111.64 36.0876 111.558 35.4323 111.621 34.789L111.777 33.3676C111.792 33.2356 111.667 33.119 111.53 33.1481L110.846 33.2937C110.695 33.3257 110.598 33.4751 110.63 33.6257L112.635 43.061C112.717 43.4445 112.469 43.8264 112.085 43.9079C111.702 43.9893 111.32 43.7413 111.238 43.3579ZM113.539 33.9807C113.25 33.6986 113.253 33.24 113.535 32.9511L115.98 30.5136C116.463 30.0246 117.189 29.8703 117.815 30.1237L121.241 31.428C121.616 31.5773 121.805 31.9951 121.656 32.3703C121.52 32.7426 121.089 32.9345 120.716 32.799L117.395 31.5154C117.241 31.4623 117.063 31.5001 116.929 31.6143L114.558 33.9932C114.273 34.2685 113.815 34.2657 113.539 33.9807ZM116.14 37.9364C116.172 38.0871 116.322 38.1841 116.472 38.1521L117.472 37.9397C117.623 37.9076 117.72 37.7582 117.688 37.6076L117.385 36.1834C117.353 36.0327 117.204 35.9357 117.053 35.9677L116.053 36.1801C115.903 36.2122 115.806 36.3616 115.838 36.5122L116.14 37.9364ZM119.126 37.302C119.158 37.4526 119.307 37.5497 119.458 37.5177L120.553 37.2849C120.704 37.2528 120.801 37.1034 120.769 36.9528L120.466 35.5286C120.434 35.3779 120.285 35.2809 120.134 35.3129L119.039 35.5457C118.888 35.5777 118.791 35.7272 118.823 35.8778L119.126 37.302ZM133.773 39.0125C133.373 39.0832 132.999 38.8049 132.945 38.4156L131.552 29.6375C131.43 28.8619 131.932 28.1255 132.699 27.9625L133.603 27.7704C133.74 27.7413 133.826 27.6085 133.797 27.4716L133.683 26.9375C133.599 26.5403 133.858 26.1418 134.255 26.0574C134.666 25.9701 135.05 26.2319 135.135 26.629L135.248 27.1631C135.277 27.3 135.424 27.3834 135.561 27.3543L136.985 27.0516C137.711 26.8974 138.395 27.4246 138.437 28.16L138.517 29.7461C138.533 30.1578 138.221 30.5102 137.809 30.5262C137.398 30.5421 137.059 30.2276 137.029 29.8189L136.982 28.8556C136.98 28.7129 136.842 28.5992 136.691 28.6312L135.883 28.8029C135.732 28.835 135.635 28.9844 135.667 29.135L136.049 30.929C136.081 31.0796 136.23 31.1767 136.381 31.1446L137.435 30.9206C138.092 30.7809 138.701 31.3529 138.585 32.0216L138.095 35.1028C138.072 35.265 138.165 35.4314 138.308 35.5011L139.951 36.2255C140.329 36.3884 140.493 36.8258 140.331 37.2039C140.168 37.5821 139.717 37.7495 139.352 37.5836L137.583 36.8003C137.439 36.7307 137.261 36.7685 137.161 36.9043L135.981 38.3572C135.719 38.6707 135.258 38.7256 134.931 38.4659C134.617 38.2034 134.563 37.7427 134.822 37.4156L135.799 36.2204C135.902 36.0984 135.878 35.9174 135.756 35.8146L134.494 34.7945C134.181 34.5319 134.126 34.0713 134.385 33.7442C134.648 33.4308 135.112 33.3895 135.422 33.6384L136.456 34.4634C136.545 34.5447 136.693 34.499 136.708 34.3671L136.964 32.8099C136.978 32.6779 136.867 32.5584 136.73 32.5875L133.868 33.1957C133.718 33.2277 133.62 33.3772 133.639 33.5307L134.37 38.1844C134.441 38.5844 134.176 38.9555 133.773 39.0125ZM127.3 36.6382L128.971 31.5027C129.016 31.3786 128.905 31.2591 128.782 31.2853L127.139 31.6345C126.742 31.7189 126.346 31.4738 126.259 31.063C126.174 30.6658 126.433 30.2673 126.83 30.1829L127.487 30.0433C127.638 30.0112 127.735 29.8618 127.703 29.7112L127.398 28.2733C127.313 27.8761 127.572 27.4776 127.969 27.3932C128.366 27.3088 128.765 27.5677 128.849 27.9648L129.155 29.4027C129.187 29.5533 129.336 29.6504 129.487 29.6184L129.925 29.5252C130.541 29.3943 131.051 29.973 130.863 30.5711L129.748 34.014C129.695 34.1684 129.771 34.324 129.912 34.38L129.942 34.3879C130.083 34.4439 130.239 34.3678 130.281 34.23L130.482 33.629C130.604 33.2596 130.989 33.0491 131.358 33.171C131.728 33.2928 131.927 33.6941 131.805 34.0635L131.588 34.7251C131.549 34.8766 131.625 35.0322 131.766 35.0881L131.923 35.1549C132.295 35.2905 132.487 35.722 132.338 36.0972C132.202 36.4695 131.771 36.6614 131.396 36.5122L130.756 36.2617C130.631 36.2166 130.523 36.3112 130.549 36.4345L131.093 38.9953C131.18 39.4061 130.919 39.7909 130.522 39.8753C130.124 39.9597 129.729 39.7146 129.642 39.3038L129.059 36.5649C129.042 36.4828 128.943 36.4894 128.914 36.5529L128.731 37.1071C128.601 37.5068 128.176 37.726 127.79 37.5934C127.39 37.4636 127.171 37.0379 127.3 36.6382ZM133.323 31.5081C133.342 31.6616 133.491 31.7587 133.642 31.7267L134.381 31.5695C134.546 31.5346 134.629 31.3881 134.597 31.2375L134.216 29.4435C134.184 29.2929 134.048 29.1929 133.884 29.2278L133.267 29.3588C133.103 29.3937 133.006 29.5432 133.038 29.6938L133.323 31.5081ZM80.1526 69.0244C79.7418 69.1117 79.3433 68.8529 79.256 68.4421L78.898 66.7577C78.8776 66.6618 78.7457 66.6469 78.7054 66.7271L77.5762 68.9565C77.3937 69.3102 76.9535 69.461 76.5998 69.2785C76.2325 69.0989 76.0954 68.6558 76.2749 68.2884L77.5199 65.8626C77.568 65.7522 77.487 65.6406 77.3774 65.6639L75.3233 66.1004C74.9399 66.1819 74.5443 65.9368 74.4599 65.5397C74.3755 65.1425 74.6372 64.7577 75.0206 64.6762L78.0334 64.036C78.184 64.004 78.2811 63.8545 78.249 63.7039L78.1617 63.2931C78.1297 63.1424 77.9803 63.0454 77.8296 63.0774L76.1453 63.4353C75.3921 63.5954 74.6449 63.1101 74.4848 62.357L73.8795 59.5086C73.7194 58.7554 74.2047 58.0082 74.9579 57.8481L80.3397 56.7044C81.0929 56.5443 81.8401 57.0296 82.0001 57.7828L82.6055 60.6312C82.7655 61.3844 82.2803 62.1316 81.5271 62.2916L79.8564 62.6467C79.7057 62.6787 79.6087 62.8281 79.6407 62.9788L79.728 63.3896C79.76 63.5402 79.9095 63.6373 80.0601 63.6053L83.0591 62.9679C83.4563 62.8835 83.8382 63.1316 83.9226 63.5287C84.007 63.9258 83.7589 64.3077 83.3618 64.3921L81.4172 64.8054C81.3077 64.8287 81.2654 64.9665 81.3542 65.0478L83.4781 66.7576C83.7915 67.0202 83.8464 67.4809 83.5975 67.7914C83.335 68.1048 82.8851 68.1432 82.5746 67.8943L80.5035 66.2304C80.4313 66.1599 80.3304 66.2243 80.3508 66.3201L80.7349 68.1278C80.8223 68.5386 80.5634 68.9371 80.1526 69.0244ZM70.8168 63.0792L72.4318 58.0844C72.5537 57.715 72.9657 57.4986 73.338 57.6342C73.7211 57.7531 73.9346 58.1515 73.8019 58.5375L73.1719 60.4891C73.108 60.6601 73.1048 60.8468 73.1426 61.0249L74.9207 69.392C75.0051 69.7891 74.7571 70.171 74.36 70.2554C73.9628 70.3398 73.5809 70.0918 73.4965 69.6947L72.2422 63.7925C72.2248 63.7103 72.1065 63.6925 72.0497 63.7618C71.8684 63.9864 71.5592 64.0808 71.2807 63.9825C70.8976 63.8635 70.6842 63.4652 70.8168 63.0792ZM75.8724 61.7472C75.9044 61.8978 76.0538 61.9949 76.2045 61.9629L80.8742 60.9705C81.0248 60.9385 81.1219 60.789 81.0899 60.6384L80.6126 58.3926C80.5806 58.2419 80.4311 58.1449 80.2805 58.1769L75.6108 59.1693C75.4601 59.2013 75.3631 59.3507 75.3951 59.5014L75.8724 61.7472ZM94.5514 65.7927C94.2056 65.5799 94.1095 65.128 94.336 64.7793L95.7458 62.5905C95.8134 62.5045 95.7324 62.3929 95.6229 62.4162L94.7054 62.6112C93.9522 62.7713 93.205 62.286 93.0449 61.5328L92.6259 59.5608C92.4658 58.8077 92.9511 58.0605 93.7043 57.9004L95.0737 57.6094C95.1969 57.5832 95.2861 57.464 95.257 57.3271C95.2308 57.2039 95.098 57.1176 94.9747 57.1438L94.468 57.2515C94.112 57.3271 93.7496 57.1036 93.671 56.7338C93.5954 56.3778 93.8326 56.0125 94.1887 55.9368L97.2562 55.2849C97.6259 55.2063 97.9775 55.4465 98.0532 55.8025C98.1317 56.1723 97.9053 56.521 97.5355 56.5996L96.8782 56.7393C96.7413 56.7684 96.6687 56.8983 96.6949 57.0215C96.724 57.1585 96.8402 57.234 96.9772 57.2049L98.4424 56.8935C99.1956 56.7334 99.9428 57.2187 100.103 57.9719L100.522 59.9438C100.682 60.697 100.197 61.4442 99.4436 61.6043L98.3343 61.84C98.2385 61.8604 98.2099 61.9952 98.2929 62.0492L100.435 63.4403C100.767 63.656 100.866 64.1216 100.65 64.4537C100.424 64.8024 99.9719 64.8984 99.6232 64.6719L97.4148 63.2377C97.2956 63.1485 97.1176 63.1863 97.0313 63.3192L95.5647 65.5774C95.3383 65.926 94.8864 66.0221 94.5514 65.7927ZM89.5088 66.3777L87.4338 56.6137C87.2738 55.8606 87.759 55.1134 88.5122 54.9533L90.3335 54.5662C91.0183 54.4207 91.6372 54.9762 91.5549 55.6664L91.2874 58.3138C91.2675 58.4898 91.2917 58.6707 91.3569 58.8429L92.749 62.4974C92.9953 63.1177 92.6138 63.8143 91.9564 63.954L91.395 64.0733C91.0115 64.1548 90.6296 63.9067 90.5482 63.5233C90.4667 63.1399 90.7147 62.758 91.0981 62.6765L91.1255 62.6706C91.2077 62.6532 91.2479 62.5731 91.2168 62.4938L90.1537 59.7141C89.9103 59.1074 89.8283 58.4522 89.892 57.8089L90.0479 56.3874C90.0628 56.2554 89.9378 56.1389 89.8009 56.168L89.1162 56.3135C88.9655 56.3455 88.8685 56.4949 88.9005 56.6456L90.9056 66.0809C90.9871 66.4643 90.7391 66.8462 90.3556 66.9277C89.9722 67.0092 89.5903 66.7611 89.5088 66.3777ZM91.8098 57.0005C91.5209 56.7184 91.5236 56.2599 91.8057 55.9709L94.2504 53.5335C94.7333 53.0444 95.4591 52.8902 96.0854 53.1435L99.5114 54.4478C99.8866 54.5971 100.076 55.0149 99.9264 55.3902C99.7908 55.7625 99.3593 55.9544 98.9869 55.8188L95.6656 54.5352C95.5112 54.4821 95.3331 54.52 95.2 54.6341L92.8287 57.013C92.5437 57.2883 92.0851 57.2856 91.8098 57.0005ZM94.4109 60.9563C94.4429 61.1069 94.5924 61.2039 94.743 61.1719L95.7427 60.9595C95.8933 60.9275 95.9904 60.778 95.9584 60.6274L95.6557 59.2032C95.6237 59.0526 95.4742 58.9555 95.3236 58.9875L94.3239 59.2C94.1733 59.232 94.0762 59.3814 94.1083 59.5321L94.4109 60.9563ZM97.3963 60.3218C97.4283 60.4725 97.5777 60.5695 97.7283 60.5375L98.8239 60.3047C98.9745 60.2727 99.0716 60.1232 99.0396 59.9726L98.7369 58.5484C98.7049 58.3978 98.5554 58.3007 98.4048 58.3327L97.3093 58.5655C97.1586 58.5976 97.0616 58.747 97.0936 58.8976L97.3963 60.3218ZM110.883 62.2934C110.13 62.4535 109.382 61.9682 109.222 61.215L108.809 59.2705C108.786 59.1609 108.651 59.1323 108.57 59.2212L107.325 60.7738C107.052 61.1038 106.574 61.148 106.261 60.8854C105.934 60.6257 105.876 60.1514 106.149 59.8213L109.007 56.2944C109.061 56.2113 108.996 56.1105 108.9 56.1309L105.847 56.7799C105.449 56.8643 105.068 56.6162 104.983 56.2191C104.899 55.822 105.147 55.4401 105.544 55.3557L108.776 54.6688C108.926 54.6368 109.023 54.4874 108.991 54.3368L108.828 53.5699C108.796 53.4193 108.647 53.3222 108.496 53.3542L106.114 53.8606C105.716 53.945 105.335 53.697 105.25 53.2998C105.166 52.9027 105.414 52.5208 105.811 52.4364L108.194 51.93C108.344 51.898 108.441 51.7486 108.409 51.5979L108.27 50.9406C108.182 50.5298 108.441 50.1313 108.852 50.044C109.263 49.9567 109.661 50.2155 109.749 50.6263L109.888 51.2836C109.92 51.4343 110.07 51.5313 110.22 51.4993L111.138 51.3043C111.535 51.2199 111.917 51.4679 112.001 51.8651C112.086 52.2622 111.838 52.6441 111.441 52.7285L110.523 52.9235C110.372 52.9555 110.275 53.1049 110.307 53.2556L110.517 54.2416C110.523 54.269 110.556 54.2905 110.583 54.2847C110.611 54.2789 110.649 54.2565 110.673 54.2369L114.174 49.9004C114.434 49.5733 114.911 49.5291 115.238 49.7888C115.566 50.0485 115.61 50.5257 115.35 50.8529L113.161 53.5508C113.107 53.6338 113.172 53.7347 113.254 53.7172L116.444 53.0391C116.842 52.9547 117.224 53.2028 117.308 53.5999C117.392 53.997 117.144 54.3789 116.747 54.4633L111.804 55.5139C111.626 55.5517 111.459 55.6444 111.348 55.7967L111.029 56.1795C110.975 56.2625 111.039 56.3633 111.135 56.3429L115.148 55.4902C115.901 55.3302 116.648 55.8155 116.808 56.5686L117.425 59.4718C117.585 60.225 117.1 60.9722 116.347 61.1322L110.883 62.2934ZM110.643 60.6268C110.675 60.7775 110.824 60.8745 110.975 60.8425L115.672 59.8443C115.823 59.8123 115.92 59.6629 115.888 59.5122L115.841 59.2931C115.809 59.1425 115.66 59.0454 115.509 59.0774L110.812 60.0756C110.662 60.1077 110.564 60.2571 110.596 60.4077L110.643 60.6268ZM110.189 58.4905C110.221 58.6412 110.37 58.7382 110.521 58.7062L115.218 57.708C115.369 57.676 115.466 57.5266 115.434 57.3759L115.387 57.1568C115.355 57.0062 115.206 56.9091 115.055 56.9411L110.358 57.9393C110.208 57.9714 110.11 58.1208 110.142 58.2714L110.189 58.4905ZM128.821 58.4096C128.424 58.494 128.028 58.2489 127.941 57.8381C127.857 57.441 128.116 57.0425 128.513 56.9581L128.581 56.9435C128.663 56.926 128.731 56.8401 128.714 56.758L127.657 51.787C127.573 51.3898 127.818 50.9942 128.229 50.9069C128.626 50.8225 129.024 51.0813 129.109 51.4785L130.139 56.3262C130.174 56.4905 130.32 56.5739 130.471 56.5419L130.8 56.4721C130.95 56.44 131.05 56.3043 131.015 56.14L129.336 48.2384C129.304 48.0878 129.155 47.9907 129.004 48.0227L126.799 48.4913C126.388 48.5786 126.007 48.3306 125.919 47.9197C125.835 47.5226 126.08 47.127 126.491 47.0397L132.544 45.7534C132.954 45.6661 133.339 45.9278 133.424 46.3249C133.511 46.7358 133.263 47.1177 132.852 47.205L131.003 47.5978C130.853 47.6299 130.756 47.7793 130.788 47.9299L131.367 50.6551C131.399 50.8057 131.548 50.9028 131.699 50.8708L133.096 50.5739C133.507 50.4866 133.905 50.7454 133.992 51.1562C134.08 51.5671 133.821 51.9656 133.41 52.0529L132.013 52.3497C131.863 52.3817 131.766 52.5312 131.798 52.6818L132.467 55.8315C132.502 55.9958 132.648 56.0792 132.799 56.0472L134.73 55.6368C135.127 55.5524 135.526 55.8112 135.61 56.2084C135.697 56.6192 135.436 57.004 135.038 57.0884L128.821 58.4096ZM121.554 50.6795C121.469 50.2824 121.728 49.8839 122.125 49.7995L125.467 49.0894C125.864 49.005 126.262 49.2638 126.347 49.661C126.434 50.0718 126.172 50.4566 125.775 50.541L122.434 51.2511C122.036 51.3355 121.641 51.0904 121.554 50.6795ZM123.402 58.2303L123.198 57.2717C123.038 56.5186 123.523 55.7714 124.276 55.6113L125.865 55.2737C126.618 55.1136 127.365 55.5989 127.525 56.3521L127.729 57.3107C127.889 58.0639 127.404 58.8111 126.651 58.9711L125.062 59.3087C124.309 59.4688 123.562 58.9835 123.402 58.2303ZM122.715 54.5976C122.628 54.1868 122.89 53.802 123.287 53.7176L125.998 53.1413C126.396 53.0569 126.791 53.3021 126.878 53.7129C126.963 54.11 126.704 54.5085 126.307 54.5929L123.595 55.1692C123.198 55.2536 122.8 54.9947 122.715 54.5976ZM122.291 52.5983C122.206 52.2011 122.465 51.8026 122.862 51.7182L125.574 51.142C125.971 51.0576 126.369 51.3164 126.454 51.7135C126.541 52.1244 126.279 52.5092 125.882 52.5936L123.171 53.1698C122.773 53.2542 122.378 53.0091 122.291 52.5983ZM121.447 48.6269C121.362 48.2298 121.621 47.8313 122.018 47.7469L124.73 47.1707C125.127 47.0863 125.525 47.3451 125.61 47.7422C125.694 48.1394 125.435 48.5379 125.038 48.6223L122.327 49.1985C121.929 49.2829 121.531 49.0241 121.447 48.6269ZM124.762 57.6264C124.794 57.777 124.943 57.8741 125.094 57.8421L126.025 57.6442C126.176 57.6122 126.273 57.4627 126.241 57.3121L126.165 56.956C126.133 56.8054 125.984 56.7083 125.833 56.7404L124.902 56.9383C124.751 56.9703 124.654 57.1197 124.686 57.2703L124.762 57.6264Z" fill="black"/>
<g filter="url(#filter0_d_48_396)">
<path d="M31.3108 63.8775C30.8402 58.0559 35.4377 53.0717 41.2783 53.0717H118.177C120.97 53.0717 123.635 54.2395 125.529 56.2926L139.822 71.7934C143.507 75.7891 148.659 78.1131 154.093 78.2307L206.977 79.3746C212.792 79.5004 217.273 84.544 216.714 90.3338L210.179 157.982C209.684 163.108 205.376 167.02 200.225 167.02H48.8736C43.6632 167.02 39.3259 163.02 38.9061 157.826L31.3108 63.8775Z" fill="#F6DE19" fill-opacity="0.6" shape-rendering="crispEdges"/>
</g>
<g filter="url(#filter1_f_48_396)">
<path d="M50.0325 74.7957C49.5669 68.977 54.1633 63.998 60.0006 63.998H118.454C121.264 63.998 123.945 65.1807 125.84 67.2565L135.516 77.8583C139.203 81.8977 144.384 84.251 149.851 84.3705L188.258 85.2098C194.069 85.3368 198.548 90.3736 197.994 96.1593L193.128 147.045C192.638 152.176 188.328 156.094 183.174 156.094H65.7699C60.5564 156.094 56.2176 152.088 55.8018 146.891L50.0325 74.7957Z" fill="#F9FFC4" fill-opacity="0.8"/>
</g>
<path d="M168.212 154.096C167.618 154.096 167.106 153.604 167.106 152.99C167.106 152.375 167.618 151.884 168.212 151.884H169.871C170.076 151.884 170.22 151.679 170.138 151.495L169.789 150.573C169.564 149.999 169.851 149.365 170.424 149.139C170.998 148.914 171.633 149.201 171.858 149.774L172.513 151.495C172.595 151.74 172.821 151.884 173.066 151.884H174.398C174.623 151.884 174.807 151.699 174.807 151.474V148.975C174.807 148.75 174.623 148.566 174.398 148.566H169.708C169.093 148.566 168.602 148.074 168.602 147.46C168.602 146.845 169.093 146.354 169.708 146.354H174.398C174.623 146.354 174.807 146.169 174.807 145.944V144.244C174.807 144.019 174.623 143.835 174.398 143.835H172.186C171.571 143.835 171.08 143.343 171.08 142.729C171.08 142.114 171.571 141.623 172.186 141.623H179.682C180.296 141.623 180.788 142.114 180.788 142.729C180.788 143.343 180.296 143.835 179.682 143.835H177.47C177.245 143.835 177.06 144.019 177.06 144.244V145.944C177.06 146.169 177.245 146.354 177.47 146.354H182.16C182.775 146.354 183.266 146.845 183.266 147.46C183.266 148.074 182.775 148.566 182.16 148.566H177.47C177.245 148.566 177.06 148.75 177.06 148.975V151.474C177.06 151.699 177.245 151.884 177.47 151.884H178.801C179.047 151.884 179.272 151.74 179.354 151.495L180.01 149.774C180.235 149.201 180.87 148.914 181.443 149.139C182.017 149.365 182.303 149.999 182.078 150.573L181.73 151.495C181.648 151.679 181.791 151.884 181.996 151.884H183.635C184.249 151.884 184.741 152.375 184.741 152.99C184.741 153.604 184.249 154.096 183.635 154.096H168.212ZM166.492 143.609C166.144 143.118 166.246 142.421 166.738 142.073L174.275 136.584C175.258 135.867 176.61 135.867 177.593 136.584L185.13 142.073C185.621 142.421 185.724 143.118 185.376 143.609C185.007 144.101 184.311 144.203 183.819 143.855L176.262 138.366C176.077 138.223 175.79 138.223 175.606 138.366L168.049 143.855C167.557 144.203 166.861 144.101 166.492 143.609Z" fill="white"/>
<path d="M149.247 154.3C148.694 154.055 148.468 153.42 148.694 152.887L150.865 148.013C150.947 147.828 150.824 147.624 150.639 147.583C149.718 147.378 149.042 146.559 149.042 145.596V141.909C149.042 140.783 149.964 139.861 151.09 139.861H154.121C154.367 139.861 154.592 139.718 154.695 139.493L155.821 136.912C156.067 136.379 156.702 136.134 157.234 136.379C157.767 136.625 158.013 137.24 157.767 137.793L157.03 139.493C156.948 139.656 157.07 139.861 157.255 139.861H157.316C158.443 139.861 159.364 140.783 159.364 141.909V145.596C159.364 146.722 158.443 147.644 157.316 147.644H156.64C156.415 147.644 156.231 147.828 156.231 148.054V151.597C156.231 151.822 156.415 152.007 156.64 152.007H158.709C159.282 152.007 159.754 152.478 159.754 153.051C159.754 153.625 159.282 154.096 158.709 154.096H156.149C155.022 154.096 154.101 153.174 154.101 152.048V148.013C154.101 147.808 153.937 147.644 153.732 147.644C153.507 147.644 153.302 147.767 153.22 147.972L150.639 153.747C150.414 154.3 149.779 154.546 149.247 154.3ZM141.3 143.855C141.3 143.261 141.771 142.79 142.365 142.79H143.901C144.126 142.79 144.311 142.606 144.311 142.38V139.82C144.311 139.636 144.126 139.493 143.942 139.554L143.102 139.841C142.529 140.025 141.914 139.697 141.751 139.144C141.566 138.571 141.873 137.977 142.426 137.793L147.424 136.175C147.977 135.99 148.591 136.297 148.776 136.85C148.96 137.424 148.653 138.038 148.079 138.223L146.871 138.612C146.646 138.673 146.482 138.899 146.482 139.144V142.421C146.482 142.626 146.666 142.79 146.871 142.79H147.67C148.264 142.79 148.735 143.261 148.735 143.855C148.735 144.449 148.264 144.92 147.67 144.92H146.707C146.584 144.92 146.482 145.022 146.482 145.145C146.482 145.289 146.543 145.432 146.646 145.534L148.612 147.726C149.021 148.177 148.98 148.852 148.55 149.242C148.1 149.631 147.424 149.59 147.035 149.16L146.707 148.791C146.625 148.709 146.482 148.75 146.482 148.873V153.317C146.482 153.911 146.011 154.403 145.396 154.403C144.802 154.403 144.311 153.911 144.311 153.317V149.221C144.311 149.119 144.188 149.098 144.147 149.18L143.307 151.146C143.061 151.679 142.447 151.925 141.894 151.699C141.361 151.454 141.116 150.839 141.361 150.286L143.532 145.289C143.594 145.104 143.471 144.92 143.287 144.92H142.365C141.771 144.92 141.3 144.449 141.3 143.855ZM150.414 137.731C150.168 137.199 150.414 136.564 150.947 136.318C151.5 136.072 152.114 136.318 152.36 136.85L152.892 138.038C153.138 138.591 152.892 139.206 152.339 139.452C151.807 139.697 151.192 139.452 150.947 138.919L150.414 137.731ZM151.213 145.186C151.213 145.412 151.397 145.596 151.622 145.596H156.784C157.009 145.596 157.193 145.412 157.193 145.186V142.319C157.193 142.094 157.009 141.909 156.784 141.909H151.622C151.397 141.909 151.213 142.094 151.213 142.319V145.186Z" fill="white"/>
<path d="M123.623 148.054C122.845 148.054 122.189 147.398 122.189 146.62C122.189 145.842 122.845 145.186 123.623 145.186C124.401 145.186 125.057 145.842 125.057 146.62C125.057 147.398 124.401 148.054 123.623 148.054Z" fill="white"/>
<path d="M90.3821 154.096C89.7881 154.096 89.2761 153.604 89.2761 152.99C89.2761 152.375 89.7881 151.884 90.3821 151.884H92.0411C92.2459 151.884 92.3892 151.679 92.3073 151.495L91.9591 150.573C91.7338 149.999 92.0206 149.365 92.594 149.139C93.1675 148.914 93.8024 149.201 94.0277 149.774L94.6831 151.495C94.7651 151.74 94.9904 151.884 95.2361 151.884H96.5674C96.7927 151.884 96.977 151.699 96.977 151.474V148.975C96.977 148.75 96.7927 148.566 96.5674 148.566H91.8772C91.2628 148.566 90.7712 148.074 90.7712 147.46C90.7712 146.845 91.2628 146.354 91.8772 146.354H96.5674C96.7927 146.354 96.977 146.169 96.977 145.944V144.244C96.977 144.019 96.7927 143.835 96.5674 143.835H94.3554C93.741 143.835 93.2494 143.343 93.2494 142.729C93.2494 142.114 93.741 141.623 94.3554 141.623H101.852C102.466 141.623 102.958 142.114 102.958 142.729C102.958 143.343 102.466 143.835 101.852 143.835H99.6396C99.4143 143.835 99.23 144.019 99.23 144.244V145.944C99.23 146.169 99.4143 146.354 99.6396 146.354H104.33C104.944 146.354 105.436 146.845 105.436 147.46C105.436 148.074 104.944 148.566 104.33 148.566H99.6396C99.4143 148.566 99.23 148.75 99.23 148.975V151.474C99.23 151.699 99.4143 151.884 99.6396 151.884H100.971C101.217 151.884 101.442 151.74 101.524 151.495L102.179 149.774C102.405 149.201 103.039 148.914 103.613 149.139C104.186 149.365 104.473 149.999 104.248 150.573L103.9 151.495C103.818 151.679 103.961 151.884 104.166 151.884H105.804C106.419 151.884 106.91 152.375 106.91 152.99C106.91 153.604 106.419 154.096 105.804 154.096H90.3821ZM88.6617 143.609C88.3135 143.118 88.4159 142.421 88.9074 142.073L96.4445 136.584C97.4276 135.867 98.7794 135.867 99.7625 136.584L107.3 142.073C107.791 142.421 107.894 143.118 107.545 143.609C107.177 144.101 106.48 144.203 105.989 143.855L98.4312 138.366C98.2469 138.223 97.9601 138.223 97.7758 138.366L90.2182 143.855C89.7267 144.203 89.0303 144.101 88.6617 143.609Z" fill="white"/>
<path d="M78.0729 153.113C77.4994 152.887 77.2127 152.232 77.4175 151.638C77.8066 150.389 78.0114 148.996 77.6223 147.808C77.5608 147.624 77.3151 147.583 77.1717 147.726C76.4548 148.422 75.6561 149.037 74.7549 149.569C74.2429 149.877 73.5875 149.651 73.3212 149.119C73.0345 148.586 73.2598 147.931 73.7718 147.624C74.4887 147.173 75.1031 146.702 75.6151 146.21C75.7585 146.088 75.7175 145.842 75.5127 145.76C74.161 145.309 72.6044 145.391 71.2526 145.842C71.0068 145.924 70.8635 146.149 70.8635 146.395V149.426C70.8635 152.191 68.6925 153.932 66.501 152.928C65.5179 152.478 64.9034 151.351 64.9034 149.999C64.9034 147.828 66.3781 145.944 68.2624 144.777C68.4672 144.633 68.6105 144.408 68.6105 144.162V141.664C68.6105 141.438 68.4262 141.254 68.2009 141.274L66.501 141.377C65.8865 141.418 65.354 140.926 65.3131 140.312C65.2926 139.677 65.7637 139.165 66.3781 139.124L68.2009 139.021C68.4262 139.001 68.6105 138.817 68.6105 138.591V137.711C68.6105 137.096 69.1226 136.584 69.737 136.584C70.3514 136.584 70.8635 137.096 70.8635 137.711V138.509C70.8635 138.714 71.0478 138.878 71.2526 138.858L78.9126 138.469C79.527 138.428 80.0595 138.919 80.1005 139.534C80.121 140.148 79.6499 140.68 79.0355 140.721L71.2731 141.111C71.0478 141.131 70.8635 141.315 70.8635 141.561V143.2C70.8635 143.404 71.0683 143.548 71.2526 143.486C73.055 143.077 75.1236 143.036 76.9259 143.917C77.1307 144.019 77.397 143.957 77.4994 143.753C77.7452 143.302 77.95 142.872 78.0933 142.483C78.3186 141.93 78.9331 141.623 79.5065 141.807C80.0595 141.991 80.3872 142.606 80.1619 143.159C79.9367 143.753 79.609 144.469 79.1584 145.227C79.0355 145.432 79.056 145.698 79.1789 145.903C80.4077 147.746 80.2029 150.389 79.5065 152.478C79.3017 153.072 78.6463 153.358 78.0729 153.113ZM67.1564 149.999C67.1564 150.552 67.3612 150.839 67.4226 150.88C68.2214 151.228 68.6105 150.286 68.6105 149.426V147.706C68.6105 147.562 68.4262 147.48 68.3033 147.583C67.7299 148.177 67.1564 149.078 67.1564 149.999Z" fill="white"/>
<defs>
<filter id="filter0_d_48_396" x="27.2777" y="53.0717" width="193.484" height="121.949" filterUnits="userSpaceOnUse" color-interpolation-filters="sRGB">
<feFlood flood-opacity="0" result="BackgroundImageFix"/>
<feColorMatrix in="SourceAlpha" type="matrix" values="0 0 0 0 0 0 0 0 0 0 0 0 0 0 0 0 0 0 127 0" result="hardAlpha"/>
<feOffset dy="4"/>
<feGaussianBlur stdDeviation="2"/>
<feComposite in2="hardAlpha" operator="out"/>
<feColorMatrix type="matrix" values="0 0 0 0 0 0 0 0 0 0 0 0 0 0 0 0 0 0 0.25 0"/>
<feBlend mode="normal" in2="BackgroundImageFix" result="effect1_dropShadow_48_396"/>
<feBlend mode="normal" in="SourceGraphic" in2="effect1_dropShadow_48_396" result="shape"/>
</filter>
<filter id="filter1_f_48_396" x="0" y="13.998" width="248.041" height="192.096" filterUnits="userSpaceOnUse" color-interpolation-filters="sRGB">
<feFlood flood-opacity="0" result="BackgroundImageFix"/>
<feBlend mode="normal" in="SourceGraphic" in2="BackgroundImageFix" result="shape"/>
<feGaussianBlur stdDeviation="25" result="effect1_foregroundBlur_48_396"/>
</filter>
</defs>
</svg>
