<svg width="249" height="207" viewBox="0 0 249 207" fill="none" xmlns="http://www.w3.org/2000/svg">
<rect x="38.2418" y="21.8529" width="173.264" height="145.168" rx="10" fill="#63CEFF"/>
<rect x="106.548" y="36.1219" width="97.8477" height="115.286" rx="5" transform="rotate(7.87578 106.548 36.1219)" fill="#B5B5B5"/>
<rect x="106.028" y="35.6761" width="97.8477" height="115.286" rx="5" transform="rotate(7.87578 106.028 35.6761)" fill="#B5B5B5"/>
<rect x="106.172" y="36.0588" width="97.8477" height="115.286" rx="5" transform="rotate(7.87578 106.172 36.0588)" fill="#F5F5F5"/>
<rect x="132.046" y="46.9729" width="43.5955" height="3.87516" rx="1.93758" transform="rotate(7.87578 132.046 46.9729)" fill="#D9D9D9"/>
<rect x="110.551" y="50.3571" width="85.7378" height="3.87516" rx="1.93758" transform="rotate(7.87578 110.551 50.3571)" fill="#D9D9D9"/>
<rect x="103.117" y="104.097" width="85.7378" height="3.87516" rx="1.93758" transform="rotate(7.87578 103.117 104.097)" fill="#D9D9D9"/>
<rect x="107.962" y="69.0699" width="85.7378" height="3.87516" rx="1.93758" transform="rotate(7.87578 107.962 69.0699)" fill="#D9D9D9"/>
<rect x="109.688" y="56.5947" width="85.7378" height="3.87516" rx="1.93758" transform="rotate(7.87578 109.688 56.5947)" fill="#D9D9D9"/>
<rect x="102.254" y="110.335" width="85.7378" height="3.87516" rx="1.93758" transform="rotate(7.87578 102.254 110.335)" fill="#D9D9D9"/>
<rect x="107.1" y="75.3073" width="64.4245" height="3.87516" rx="1.93758" transform="rotate(7.87578 107.1 75.3073)" fill="#D9D9D9"/>
<rect x="108.825" y="62.8323" width="43.5955" height="3.87516" rx="1.93758" transform="rotate(7.87578 108.825 62.8323)" fill="#D9D9D9"/>
<rect x="101.391" y="116.573" width="43.5955" height="3.87516" rx="1.93758" transform="rotate(7.87578 101.391 116.573)" fill="#D9D9D9"/>
<rect x="141.41" y="134.823" width="43.5955" height="3.87516" rx="1.93758" transform="rotate(7.87578 141.41 134.823)" fill="#D9D9D9"/>
<rect x="140.547" y="141.06" width="43.5955" height="3.87516" rx="1.93758" transform="rotate(7.87578 140.547 141.06)" fill="#D9D9D9"/>
<rect x="160.317" y="150.152" width="22.7665" height="3.87516" rx="1.93758" transform="rotate(7.87578 160.317 150.152)" fill="#D9D9D9"/>
<rect x="105.374" y="87.7832" width="43.5955" height="3.87516" rx="1.93758" transform="rotate(7.87578 105.374 87.7832)" fill="#D9D9D9"/>
<rect x="106.237" y="81.5453" width="85.7378" height="3.87516" rx="1.93758" transform="rotate(7.87578 106.237 81.5453)" fill="#D9D9D9"/>
<rect x="74.6497" y="36.1576" width="97.8477" height="115.286" rx="5" transform="rotate(-2.59781 74.6497 36.1576)" fill="#B5B5B5"/>
<rect x="74.0573" y="35.8137" width="97.8477" height="115.286" rx="5" transform="rotate(-2.59781 74.0573 35.8137)" fill="#B5B5B5"/>
<rect x="74.2684" y="36.1638" width="97.8477" height="115.286" rx="5" transform="rotate(-2.59781 74.2684 36.1638)" fill="#F5F5F5"/>
<rect x="101.696" y="42.1927" width="43.5955" height="3.87516" rx="1.93758" transform="rotate(-2.59781 101.696 42.1927)" fill="#D9D9D9"/>
<rect x="81.1736" y="49.4277" width="85.7378" height="3.87516" rx="1.93758" transform="rotate(-2.59781 81.1736 49.4277)" fill="#D9D9D9"/>
<rect x="83.6327" y="103.624" width="85.7378" height="3.87516" rx="1.93758" transform="rotate(-2.59781 83.6327 103.624)" fill="#D9D9D9"/>
<rect x="82.0299" y="68.2998" width="85.7378" height="3.87516" rx="1.93758" transform="rotate(-2.59781 82.0299 68.2998)" fill="#D9D9D9"/>
<rect x="81.459" y="55.7185" width="85.7378" height="3.87516" rx="1.93758" transform="rotate(-2.59781 81.459 55.7185)" fill="#D9D9D9"/>
<rect x="83.9181" y="109.915" width="85.7378" height="3.87516" rx="1.93758" transform="rotate(-2.59781 83.9181 109.915)" fill="#D9D9D9"/>
<rect x="82.3153" y="74.5898" width="64.4245" height="3.87516" rx="1.93758" transform="rotate(-2.59781 82.3153 74.5898)" fill="#D9D9D9"/>
<rect x="81.7445" y="62.0092" width="43.5955" height="3.87516" rx="1.93758" transform="rotate(-2.59781 81.7445 62.0092)" fill="#D9D9D9"/>
<rect x="84.2035" y="116.205" width="43.5955" height="3.87516" rx="1.93758" transform="rotate(-2.59781 84.2035 116.205)" fill="#D9D9D9"/>
<rect x="126.873" y="126.876" width="43.5955" height="3.87516" rx="1.93758" transform="rotate(-2.59781 126.873 126.876)" fill="#D9D9D9"/>
<rect x="127.159" y="133.167" width="43.5955" height="3.87516" rx="1.93758" transform="rotate(-2.59781 127.159 133.167)" fill="#D9D9D9"/>
<rect x="148.252" y="138.514" width="22.7665" height="3.87516" rx="1.93758" transform="rotate(-2.59781 148.252 138.514)" fill="#D9D9D9"/>
<rect x="82.8861" y="87.1714" width="43.5955" height="3.87516" rx="1.93758" transform="rotate(-2.59781 82.8861 87.1714)" fill="#D9D9D9"/>
<rect x="82.6007" y="80.8807" width="85.7378" height="3.87516" rx="1.93758" transform="rotate(-2.59781 82.6007 80.8807)" fill="#D9D9D9"/>
<path d="M49.8561 43.2197C49.3522 40.6845 50.9989 38.2208 53.5341 37.7169L140.324 20.4674C142.859 19.9635 145.323 21.6102 145.827 24.1454L166.476 128.039C166.979 130.574 165.333 133.038 162.797 133.542L76.0078 150.791C73.4726 151.295 71.0089 149.648 70.505 147.113L49.8561 43.2197Z" fill="#B5B5B5"/>
<path d="M49.2186 42.969C48.7147 40.4337 50.3615 37.9701 52.8967 37.4662L139.686 20.2166C142.222 19.7128 144.685 21.3595 145.189 23.8947L165.838 127.788C166.342 130.323 164.695 132.787 162.16 133.291L75.3703 150.54C72.8351 151.044 70.3714 149.398 69.8676 146.862L49.2186 42.969Z" fill="#B5B5B5"/>
<path d="M49.4799 43.2833C48.976 40.7481 50.6227 38.2844 53.1579 37.7805L139.948 20.531C142.483 20.0271 144.947 21.6738 145.45 24.209L166.099 128.102C166.603 130.638 164.956 133.101 162.421 133.605L75.6316 150.855C73.0963 151.359 70.6327 149.712 70.1288 147.177L49.4799 43.2833Z" fill="#F5F5F5"/>
<path d="M76.9673 42.4318C76.7587 41.3822 77.4404 40.3623 78.49 40.1537L117.448 32.4106C118.498 32.202 119.518 32.8838 119.726 33.9333C119.935 34.9829 119.253 36.0029 118.204 36.2115L79.2454 43.9545C78.1959 44.1631 77.1759 43.4813 76.9673 42.4318Z" fill="#D9D9D9"/>
<path d="M57.7655 52.6688C57.5569 51.6193 58.2387 50.5993 59.2882 50.3907L139.58 34.4326C140.63 34.224 141.65 34.9057 141.859 35.9553C142.067 37.0048 141.385 38.0248 140.336 38.2334L60.0436 54.1915C58.9941 54.4001 57.9741 53.7184 57.7655 52.6688Z" fill="#D9D9D9"/>
<path d="M68.3413 105.88C68.1327 104.83 68.8145 103.811 69.864 103.602L150.156 87.6437C151.206 87.4351 152.226 88.1169 152.434 89.1664C152.643 90.216 151.961 91.236 150.912 91.4446L70.6195 107.403C69.5699 107.611 68.5499 106.93 68.3413 105.88Z" fill="#D9D9D9"/>
<path d="M61.4483 71.1976C61.2397 70.1481 61.9214 69.1281 62.971 68.9195L143.263 52.9614C144.313 52.7528 145.333 53.4345 145.541 54.4841C145.75 55.5336 145.068 56.5536 144.019 56.7622L63.7264 72.7203C62.6768 72.9289 61.6569 72.2472 61.4483 71.1976Z" fill="#D9D9D9"/>
<path d="M58.9931 58.8452C58.7845 57.7957 59.4662 56.7757 60.5158 56.5671L140.808 40.609C141.857 40.4003 142.877 41.0821 143.086 42.1316C143.295 43.1812 142.613 44.2012 141.563 44.4098L61.2712 60.3679C60.2216 60.5765 59.2017 59.8948 58.9931 58.8452Z" fill="#D9D9D9"/>
<path d="M69.5689 112.056C69.3603 111.007 70.042 109.987 71.0916 109.778L151.384 93.82C152.433 93.6114 153.453 94.2931 153.662 95.3427C153.87 96.3923 153.189 97.4122 152.139 97.6208L71.847 113.579C70.7974 113.788 69.7775 113.106 69.5689 112.056Z" fill="#D9D9D9"/>
<path d="M62.6757 77.3736C62.4671 76.324 63.1488 75.304 64.1984 75.0954L123.586 63.2921C124.636 63.0835 125.656 63.7652 125.864 64.8148C126.073 65.8643 125.391 66.8843 124.341 67.0929L64.9538 78.8962C63.9042 79.1049 62.8843 78.4231 62.6757 77.3736Z" fill="#D9D9D9"/>
<path d="M60.2207 65.0214C60.0121 63.9718 60.6939 62.9519 61.7434 62.7433L100.702 55.0002C101.751 54.7916 102.771 55.4734 102.98 56.5229C103.188 57.5725 102.507 58.5925 101.457 58.8011L62.4988 66.5441C61.4493 66.7527 60.4293 66.0709 60.2207 65.0214Z" fill="#D9D9D9"/>
<path d="M70.7964 118.233C70.5878 117.183 71.2695 116.163 72.3191 115.955L111.277 108.212C112.327 108.003 113.347 108.685 113.556 109.734C113.764 110.784 113.082 111.804 112.033 112.012L73.0745 119.755C72.025 119.964 71.005 119.282 70.7964 118.233Z" fill="#D9D9D9"/>
<path d="M114.585 122.37C114.377 121.32 115.058 120.3 116.108 120.092L155.066 112.349C156.116 112.14 157.136 112.822 157.344 113.872C157.553 114.921 156.871 115.941 155.822 116.15L116.863 123.893C115.814 124.101 114.794 123.42 114.585 122.37Z" fill="#D9D9D9"/>
<path d="M115.813 128.546C115.604 127.497 116.286 126.477 117.336 126.268L156.294 118.525C157.343 118.316 158.363 118.998 158.572 120.048C158.781 121.097 158.099 122.117 157.049 122.326L118.091 130.069C117.041 130.277 116.021 129.596 115.813 128.546Z" fill="#D9D9D9"/>
<path d="M137.47 130.663C137.261 129.613 137.943 128.593 138.992 128.384L157.521 124.702C158.571 124.493 159.591 125.175 159.8 126.225C160.008 127.274 159.326 128.294 158.277 128.503L139.748 132.185C138.698 132.394 137.678 131.712 137.47 130.663Z" fill="#D9D9D9"/>
<path d="M65.1306 89.7265C64.922 88.6769 65.6038 87.6569 66.6533 87.4483L105.612 79.7053C106.661 79.4967 107.681 80.1785 107.89 81.228C108.098 82.2776 107.417 83.2975 106.367 83.5061L67.4088 91.2492C66.3592 91.4578 65.3392 90.776 65.1306 89.7265Z" fill="#D9D9D9"/>
<path d="M63.9032 83.5503C63.6946 82.5007 64.3764 81.4808 65.4259 81.2722L145.718 65.314C146.768 65.1054 147.788 65.7872 147.996 66.8367C148.205 67.8863 147.523 68.9062 146.474 69.1148L66.1813 85.073C65.1318 85.2816 64.1118 84.5999 63.9032 83.5503Z" fill="#D9D9D9"/>
<path d="M121.212 35.4568C120.96 35.5065 120.721 35.3463 120.672 35.0942C120.622 34.8422 120.782 34.6033 121.034 34.5536L124.626 33.8455C124.7 33.8311 124.742 33.7682 124.727 33.6947C124.713 33.6212 124.648 33.5685 124.574 33.583L121.497 34.1896C121.245 34.2393 121.006 34.0791 120.956 33.827C120.909 33.5854 121.067 33.336 121.319 33.2864L124.396 32.6797C124.47 32.6653 124.512 32.6024 124.497 32.5289C124.483 32.4554 124.42 32.4132 124.347 32.4277L121.311 33.026C121.059 33.0757 120.82 32.9155 120.771 32.6634C120.721 32.4113 120.881 32.1725 121.133 32.1228L124.168 31.5244C124.242 31.51 124.284 31.4471 124.27 31.3736C124.255 31.3001 124.19 31.2474 124.117 31.2619L120.588 31.9575C120.336 32.0072 120.097 31.847 120.047 31.5949C120 31.3534 120.158 31.104 120.41 31.0543L123.939 30.3586C124.012 30.3442 124.054 30.2813 124.04 30.2078C124.025 30.1342 123.963 30.0921 123.889 30.1066L121.106 30.6552C120.854 30.7049 120.615 30.5447 120.565 30.2926C120.515 30.0406 120.676 29.8017 120.928 29.752L123.721 29.2013C123.784 29.1889 123.827 29.126 123.814 29.063C123.754 28.7584 123.957 28.4566 124.261 28.3966C124.566 28.3366 124.867 28.5389 124.928 28.8435C124.94 28.9065 125.003 28.9487 125.066 28.9363L127.324 28.4912C127.86 28.3856 128.375 28.7313 128.481 29.2669L128.493 29.33C128.508 29.4035 128.57 29.4456 128.644 29.4311L128.833 29.3939C129.085 29.3442 129.326 29.5149 129.374 29.7565C129.423 30.0085 129.263 30.2474 129.011 30.2971L128.822 30.3344C128.748 30.3489 128.708 30.4222 128.723 30.4958L128.735 30.5588C128.841 31.0944 128.495 31.6099 127.959 31.7155L125.712 32.1585C125.638 32.173 125.596 32.2359 125.611 32.3094C125.625 32.3829 125.688 32.4251 125.762 32.4106L128.839 31.804C129.091 31.7543 129.332 31.925 129.38 32.1666C129.429 32.4187 129.269 32.6575 129.017 32.7072L125.94 33.3138C125.866 33.3283 125.826 33.4017 125.841 33.4752C125.855 33.5487 125.918 33.5909 125.991 33.5764L129.583 32.8684C129.835 32.8187 130.074 32.9789 130.124 33.2309C130.174 33.483 130.013 33.7219 129.761 33.7716L121.212 35.4568ZM122.021 37.4577L121.853 36.607C121.74 36.0293 122.109 35.4656 122.697 35.3497L128.358 34.2338C128.935 34.1199 129.501 34.4994 129.615 35.077L129.783 35.9277C129.897 36.5054 129.517 37.0712 128.939 37.185L123.278 38.3009C122.69 38.4169 122.135 38.0353 122.021 37.4577ZM123.113 37.3516C123.124 37.4041 123.176 37.4483 123.239 37.4359L128.637 36.3717C128.7 36.3593 128.742 36.2964 128.732 36.2439C128.72 36.1809 128.657 36.1388 128.594 36.1512L123.195 37.2153C123.132 37.2277 123.101 37.2885 123.113 37.3516ZM122.904 36.2908C122.916 36.3538 122.967 36.3875 123.03 36.3751L128.428 35.311C128.491 35.2985 128.535 35.2462 128.523 35.1832C128.513 35.1306 128.45 35.0885 128.387 35.1009L122.988 36.165C122.925 36.1775 122.894 36.2383 122.904 36.2908ZM125.383 31.1541C125.397 31.2276 125.46 31.2698 125.534 31.2553L127.529 30.8619C127.603 30.8475 127.645 30.7846 127.631 30.7111C127.616 30.6375 127.551 30.5849 127.478 30.5994L125.482 30.9927C125.409 31.0072 125.368 31.0806 125.383 31.1541ZM125.153 29.9883C125.168 30.0618 125.231 30.104 125.304 30.0895L127.3 29.6961C127.373 29.6816 127.415 29.6188 127.401 29.5453C127.386 29.4717 127.323 29.4296 127.25 29.4441L125.254 29.8374C125.181 29.8519 125.139 29.9148 125.153 29.9883Z" fill="black"/>
<path d="M116.882 39.6714C116.573 39.7104 116.293 39.5039 116.254 39.1952L115.424 33.4343C115.411 33.3167 115.298 33.2408 115.183 33.2635L112.63 33.7666C112.515 33.7894 112.416 33.8962 112.42 34.0264L112.409 35.0215C112.404 35.328 112.147 35.575 111.84 35.5699C111.534 35.5649 111.287 35.3081 111.292 35.0016L111.347 31.5755C111.35 31.2585 111.599 31.0241 111.903 31.0186C112.21 31.0236 112.457 31.2805 112.452 31.587L112.439 32.4078C112.441 32.5275 112.543 32.6054 112.648 32.5847L115.274 32.0671C115.852 31.9533 116.399 32.3474 116.479 32.9207L117.358 39.0429C117.395 39.3411 117.191 39.6324 116.882 39.6714ZM108.092 40.5204L108.121 38.9544C108.12 38.6709 108.36 38.4491 108.633 38.4498C108.918 38.459 109.149 38.6864 109.139 38.9719L109.12 40.5359C109.111 40.8214 108.884 41.0517 108.598 41.0425C108.315 41.0438 108.093 40.8038 108.092 40.5204ZM107.117 34.0243L107.935 31.9754C108.053 31.6902 108.375 31.5505 108.658 31.6583C108.943 31.7767 109.083 32.0983 108.964 32.3835L108.199 34.3128C108.146 34.4323 108.192 34.5542 108.303 34.6196L108.655 34.8011C108.752 34.8476 108.874 34.8017 108.918 34.6948L109.717 32.7152C109.834 32.4195 110.157 32.2902 110.44 32.3981C110.726 32.5164 110.865 32.838 110.747 33.1232L109.36 36.6044C109.322 36.6882 109.395 36.7829 109.49 36.7643L110.214 36.6214C110.33 36.5986 110.395 36.4876 110.352 36.3762L110.208 35.979C110.11 35.7037 110.245 35.3934 110.531 35.2934C110.804 35.185 111.106 35.3328 111.215 35.606L111.785 37.1737C111.883 37.449 111.748 37.7593 111.473 37.8572C111.29 37.926 111.097 37.8877 110.954 37.7739C110.852 37.696 110.73 37.6327 110.604 37.6575L110.51 37.6761C110.394 37.6989 110.318 37.8121 110.341 37.9276L110.817 40.3432C110.877 40.6478 110.675 40.9495 110.37 41.0096C110.066 41.0696 109.764 40.8673 109.704 40.5627L109.228 38.147C109.205 38.0315 109.092 37.9556 108.976 37.9784L108.535 38.0654C108.084 38.1544 107.711 37.7041 107.889 37.2763L108.358 36.1145C108.402 36.0076 108.354 35.8752 108.245 35.8203L107.66 35.5101C107.126 35.2336 106.888 34.5821 107.117 34.0243ZM110.807 38.8505C110.69 38.5899 110.817 38.2921 111.077 38.1753C111.34 38.0689 111.636 38.1852 111.752 38.4459L112.245 39.6145C112.362 39.8751 112.235 40.1729 111.974 40.2897C111.711 40.3961 111.414 40.2693 111.299 40.0191L110.807 38.8505ZM112.374 36.0102C112.539 35.7377 112.892 35.6463 113.175 35.8087L114.883 36.8359C115.155 37.0004 115.247 37.3533 115.082 37.6258C114.918 37.8983 114.565 37.9897 114.292 37.8252L112.574 36.8001C112.301 36.6356 112.21 36.2826 112.374 36.0102Z" fill="black"/>
<path d="M97.484 43.3863C97.2546 43.6061 96.8935 43.6009 96.6863 43.3799C96.4665 43.1504 96.4717 42.7894 96.6906 42.5716L98.2399 41.0769C98.2862 41.0351 98.2381 40.9573 98.1856 40.9676L95.4444 41.508C95.1398 41.568 94.8507 41.3741 94.7906 41.0695C94.7306 40.7649 94.9245 40.4757 95.2291 40.4157L98.6845 39.7346C98.7685 39.718 98.8275 39.63 98.811 39.546L98.7737 39.3569C98.7116 39.0418 98.914 38.7401 99.2291 38.678C99.5441 38.6159 99.8459 38.8182 99.908 39.1333L99.9453 39.3224C99.9618 39.4064 100.05 39.4654 100.134 39.4488L103.589 38.7677C103.894 38.7077 104.183 38.9016 104.243 39.2062C104.303 39.5108 104.109 39.8 103.805 39.86L101.063 40.4004C101.011 40.4107 100.996 40.5009 101.055 40.5221L103.055 41.317C103.34 41.4354 103.482 41.7675 103.377 42.0611C103.258 42.3463 102.926 42.4881 102.63 42.3718L99.9293 41.2895C99.8098 41.2366 99.6628 41.2656 99.5722 41.3598L97.484 43.3863ZM94.4046 39.4435C94.3152 39.1556 94.4714 38.8411 94.7613 38.7622L95.9422 38.3875C96.0557 38.3543 96.1316 38.2411 96.1067 38.1151L96.0363 37.758C96.0136 37.6425 95.9004 37.5666 95.7849 37.5893L94.9131 37.7612C94.6086 37.8212 94.3299 37.6252 94.2719 37.3311C94.214 37.037 94.3974 36.7499 94.702 36.6899L95.5737 36.5181C95.6892 36.4953 95.7651 36.3821 95.7423 36.2666L95.7361 36.2351C95.7134 36.1196 95.6002 36.0437 95.4847 36.0664L94.4029 36.2797C94.1088 36.3377 93.8196 36.1437 93.7617 35.8496C93.7037 35.5556 93.8976 35.2664 94.1917 35.2084L95.2735 34.9952C95.389 34.9724 95.4649 34.8592 95.4421 34.7437L95.4256 34.6597C95.3655 34.3551 95.5679 34.0534 95.8725 33.9933C96.1771 33.9333 96.4788 34.1357 96.5389 34.4402L96.5554 34.5243C96.5782 34.6398 96.6914 34.7157 96.8069 34.6929L97.8887 34.4797C98.1828 34.4217 98.4719 34.6156 98.5299 34.9097C98.5879 35.2038 98.3939 35.493 98.0998 35.5509L97.0181 35.7642C96.9025 35.787 96.8266 35.9001 96.8494 36.0156L96.8556 36.0471C96.8784 36.1627 96.9916 36.2386 97.1071 36.2158L97.9893 36.0419C98.2834 35.9839 98.5726 36.1779 98.6305 36.4719C98.6885 36.766 98.4946 37.0552 98.2005 37.1132L97.3183 37.2871C97.2027 37.3098 97.1268 37.423 97.1496 37.5385L97.1972 37.7801C97.22 37.8956 97.3311 37.961 97.4446 37.9277L98.4826 37.6031C98.7704 37.5136 99.087 37.6804 99.1659 37.9703C99.2554 38.2582 99.0971 38.5621 98.8093 38.6516L95.0859 39.8002C94.7981 39.8896 94.4941 39.7314 94.4046 39.4435ZM98.5268 34.5066C98.4668 34.202 98.6692 33.9003 98.9737 33.8402L101.988 33.2461C102.555 33.1343 103.102 33.5284 103.182 34.1017L103.681 37.5713C103.732 37.8885 103.507 38.1839 103.188 38.225C102.871 38.2766 102.575 38.0511 102.524 37.734L102.081 34.6025C102.058 34.487 101.955 34.409 101.84 34.4318L101.241 34.5498C101.115 34.5747 101.027 34.6794 101.018 34.8011L100.806 37.8762C100.792 38.1952 100.512 38.4359 100.193 38.4224C99.8723 38.3984 99.6316 38.1185 99.6556 37.7974L99.8417 35.033C99.8525 34.9218 99.7603 34.8417 99.6553 34.8624L99.1932 34.9535C98.8886 35.0136 98.5869 34.8112 98.5268 34.5066Z" fill="black"/>
<path d="M83.1831 46.3359C82.8554 46.3896 82.5601 46.1642 82.5169 45.8344L81.4438 38.3429C81.3594 37.7486 81.7514 37.1912 82.3396 37.0753L88.6727 35.8269C89.2504 35.713 89.8162 36.0925 89.93 36.6701L91.3979 44.1165C91.4621 44.4421 91.2492 44.7459 90.9341 44.808C90.6085 44.8722 90.3068 44.6699 90.2426 44.3443L89.9445 42.8319C89.9217 42.7163 89.8085 42.6405 89.693 42.6632L87.4244 43.1104C87.3089 43.1332 87.233 43.2463 87.2558 43.3619L87.4731 44.4647C87.5353 44.7797 87.3244 45.0941 87.0094 45.1562C86.6838 45.2204 86.38 45.0075 86.3178 44.6924L86.1005 43.5896C86.0777 43.4741 85.9645 43.3982 85.849 43.421L83.6329 43.8578C83.5174 43.8806 83.4415 43.9937 83.4538 44.1113L83.6741 45.6718C83.7257 45.9889 83.5023 46.2948 83.1831 46.3359ZM83.2314 42.5404C83.2437 42.658 83.3568 42.7339 83.4724 42.7111L85.6254 42.2867C85.7409 42.2639 85.8168 42.1507 85.7941 42.0352L85.5456 40.7749C85.5228 40.6594 85.4097 40.5835 85.2942 40.6062L83.2251 41.0141C83.1096 41.0369 83.0337 41.15 83.046 41.2676L83.2314 42.5404ZM82.8236 39.6967C82.8359 39.8143 82.949 39.8902 83.0645 39.8674L85.0706 39.4719C85.1861 39.4492 85.262 39.336 85.2392 39.2205L84.9887 37.9497C84.9659 37.8341 84.8528 37.7582 84.7372 37.781L82.8152 38.1599C82.6997 38.1826 82.6238 38.2958 82.6361 38.4134L82.8236 39.6967ZM86.9494 41.8075C86.9721 41.923 87.0853 41.9989 87.2008 41.9761L89.4694 41.5289C89.5849 41.5062 89.6608 41.393 89.638 41.2775L89.3896 40.0171C89.3668 39.9016 89.2537 39.8257 89.1382 39.8485L86.8696 40.2957C86.754 40.3185 86.6781 40.4316 86.7009 40.5472L86.9494 41.8075ZM86.3945 38.9927C86.4173 39.1083 86.5304 39.1842 86.646 39.1614L88.9146 38.7142C89.0301 38.6914 89.106 38.5783 89.0832 38.4627L88.8327 37.1919C88.8099 37.0764 88.6968 37.0005 88.5812 37.0233L86.3126 37.4705C86.1971 37.4932 86.1212 37.6064 86.144 37.7219L86.3945 38.9927Z" fill="black"/>
<path d="M70.0549 48.8696C69.7483 48.9192 69.4655 48.7022 69.4159 48.3955L68.5242 42.1557C68.4397 41.5614 68.8318 41.004 69.4199 40.8881L75.7215 39.6459C76.2992 39.532 76.865 39.9115 76.9789 40.4891L77.0865 41.0353C77.2024 41.6234 76.8209 42.1787 76.2433 42.2926L70.0782 43.5078C69.9626 43.5306 69.8868 43.6438 69.899 43.7614L70.5396 48.2286C70.5891 48.5352 70.3742 48.8285 70.0549 48.8696ZM67.6116 40.4044C67.5557 40.1208 67.7391 39.8337 68.0332 39.7758L76.4144 38.1236C76.7084 38.0657 76.9871 38.2617 77.043 38.5453C77.101 38.8393 76.9155 39.1159 76.6214 39.1739L68.2402 40.826C67.9461 40.884 67.6695 40.6985 67.6116 40.4044ZM70.3163 46.2104L70.8795 43.7536C70.9432 43.4683 71.2335 43.2801 71.5188 43.3439C71.6678 43.38 71.7976 43.4853 71.8666 43.6136C71.9188 43.7124 72.0214 43.7903 72.137 43.7676L73.7649 43.4467C73.8909 43.4218 73.992 43.3255 74.0217 43.1997L74.0408 43.1304C74.1046 42.8451 74.3948 42.6569 74.6822 42.7312C74.8312 42.7673 74.959 42.8621 75.0279 42.9904C75.0906 43.0871 75.1828 43.1672 75.2983 43.1444L77.0417 42.8007C77.2938 42.751 77.5348 42.9218 77.5824 43.1633C77.6321 43.4154 77.4718 43.6543 77.2198 43.704L75.3188 44.0787C75.2348 44.0953 75.1862 44.1812 75.2028 44.2652C75.2194 44.3492 75.2948 44.3998 75.3788 44.3833L77.0803 44.0479C77.3323 43.9982 77.5712 44.1584 77.6209 44.4105C77.6706 44.6625 77.5104 44.9014 77.2583 44.9511L75.5569 45.2865C75.4729 45.3031 75.4223 45.3785 75.4388 45.4625C75.4554 45.5466 75.5329 45.6076 75.6169 45.5911L77.3184 45.2557C77.5704 45.206 77.8093 45.3662 77.859 45.6183C77.9066 45.8598 77.7485 46.1092 77.4964 46.1589L75.795 46.4943C75.7109 46.5109 75.6603 46.5863 75.6769 46.6703C75.6935 46.7544 75.7689 46.805 75.8529 46.7884L77.7539 46.4137C78.006 46.364 78.2469 46.5347 78.2946 46.7763C78.3443 47.0283 78.184 47.2672 77.932 47.3169L72.7541 48.3376C72.166 48.4535 71.6128 48.0825 71.4968 47.4943L71.3581 46.7906C71.3416 46.7066 71.2408 46.6938 71.1861 46.7482C71.0535 46.8507 70.8876 46.8943 70.7155 46.8519C70.4302 46.7881 70.2525 46.4958 70.3163 46.2104ZM69.6868 42.2975C69.7096 42.413 69.8123 42.491 69.9278 42.4682L75.7673 41.3171C75.8828 41.2944 75.9587 41.1812 75.936 41.0657L75.9028 40.8976C75.8801 40.7821 75.7669 40.7062 75.6514 40.729L69.8434 41.8739C69.7278 41.8966 69.6519 42.0098 69.6642 42.1274L69.6868 42.2975ZM72.5891 47.279C72.6057 47.363 72.6811 47.4136 72.7651 47.3971L74.4561 47.0637C74.5401 47.0472 74.6012 46.9697 74.5846 46.8857C74.5681 46.8016 74.4821 46.7531 74.3981 46.7697L72.7072 47.103C72.6231 47.1196 72.5725 47.195 72.5891 47.279ZM72.351 46.0712C72.3676 46.1552 72.4451 46.2163 72.5291 46.1998L74.2201 45.8664C74.3041 45.8499 74.3631 45.7619 74.3465 45.6778C74.33 45.5938 74.244 45.5453 74.16 45.5619L72.4691 45.8952C72.3851 45.9117 72.3345 45.9872 72.351 46.0712ZM72.115 44.8739C72.1316 44.9579 72.207 45.0085 72.291 44.9919L73.982 44.6586C74.066 44.6421 74.1271 44.5646 74.1105 44.4805C74.094 44.3965 74.0059 44.3375 73.9219 44.354L72.231 44.6874C72.147 44.7039 72.0984 44.7899 72.115 44.8739Z" fill="black"/>
<g filter="url(#filter0_d_48_399)">
<path d="M31.3107 63.8775C30.8401 58.0559 35.4376 53.0717 41.2782 53.0717H118.177C120.97 53.0717 123.635 54.2395 125.528 56.2926L139.822 71.7934C143.507 75.7891 148.659 78.1131 154.093 78.2307L206.977 79.3746C212.792 79.5004 217.273 84.544 216.714 90.3338L210.179 157.982C209.684 163.108 205.376 167.02 200.225 167.02H48.8734C43.6631 167.02 39.3258 163.02 38.9059 157.826L31.3107 63.8775Z" fill="#2799CE" fill-opacity="0.6" shape-rendering="crispEdges"/>
</g>
<g filter="url(#filter1_f_48_399)">
<path d="M50.0325 74.7957C49.5669 68.977 54.1633 63.998 60.0006 63.998H118.454C121.264 63.998 123.945 65.1807 125.84 67.2565L135.516 77.8583C139.203 81.8977 144.384 84.251 149.851 84.3705L188.258 85.2098C194.069 85.3368 198.548 90.3736 197.994 96.1593L193.128 147.045C192.638 152.176 188.328 156.094 183.174 156.094H65.7699C60.5564 156.094 56.2176 152.088 55.8018 146.891L50.0325 74.7957Z" fill="#C4ECFF" fill-opacity="0.8"/>
</g>
<path d="M169.016 154.444C168.381 154.423 167.91 153.891 167.951 153.256L168.709 138.796C168.77 137.649 169.712 136.748 170.859 136.748H183.209C184.336 136.748 185.258 137.67 185.258 138.796V153.317C185.258 153.952 184.746 154.444 184.131 154.444C183.496 154.444 183.005 153.952 183.005 153.317V150.368C183.005 150.143 182.82 149.958 182.595 149.958H178.171C177.946 149.958 177.761 150.143 177.761 150.368V152.519C177.761 153.133 177.249 153.645 176.635 153.645C176 153.645 175.509 153.133 175.509 152.519V150.368C175.509 150.143 175.324 149.958 175.099 149.958H170.777C170.552 149.958 170.368 150.143 170.347 150.368L170.183 153.379C170.163 153.993 169.63 154.485 169.016 154.444ZM170.511 147.337C170.491 147.562 170.675 147.746 170.9 147.746H175.099C175.324 147.746 175.509 147.562 175.509 147.337V144.879C175.509 144.654 175.324 144.469 175.099 144.469H171.064C170.839 144.469 170.654 144.654 170.634 144.879L170.511 147.337ZM170.798 141.848C170.777 142.073 170.962 142.257 171.187 142.257H175.099C175.324 142.257 175.509 142.073 175.509 141.848V139.37C175.509 139.144 175.324 138.96 175.099 138.96H171.351C171.126 138.96 170.941 139.144 170.921 139.37L170.798 141.848ZM177.761 147.337C177.761 147.562 177.946 147.746 178.171 147.746H182.595C182.82 147.746 183.005 147.562 183.005 147.337V144.879C183.005 144.654 182.82 144.469 182.595 144.469H178.171C177.946 144.469 177.761 144.654 177.761 144.879V147.337ZM177.761 141.848C177.761 142.073 177.946 142.257 178.171 142.257H182.595C182.82 142.257 183.005 142.073 183.005 141.848V139.37C183.005 139.144 182.82 138.96 182.595 138.96H178.171C177.946 138.96 177.761 139.144 177.761 139.37V141.848Z" fill="white"/>
<path d="M143.435 154.341C142.841 154.321 142.39 153.809 142.411 153.215L143.046 141.172C143.107 140.025 144.049 139.124 145.196 139.124H157.485C158.612 139.124 159.533 140.046 159.533 141.172V142.237C159.533 143.384 158.612 144.285 157.485 144.285H145.463C145.237 144.285 145.053 144.47 145.033 144.695L144.582 153.317C144.561 153.911 144.049 154.382 143.435 154.341ZM141.981 137.547C141.981 136.994 142.431 136.523 143.005 136.523H159.349C159.922 136.523 160.373 136.994 160.373 137.547C160.373 138.12 159.922 138.571 159.349 138.571H143.005C142.431 138.571 141.981 138.12 141.981 137.547ZM144.91 149.446L146.876 145.043C147.101 144.531 147.716 144.285 148.228 144.511C148.494 144.633 148.699 144.879 148.781 145.145C148.842 145.35 149.006 145.535 149.231 145.535H152.406C152.652 145.535 152.877 145.391 152.979 145.166L153.041 145.043C153.266 144.531 153.88 144.285 154.392 144.531C154.659 144.654 154.864 144.879 154.945 145.145C155.027 145.35 155.171 145.535 155.396 145.535H158.796C159.287 145.535 159.677 145.944 159.677 146.415C159.677 146.907 159.287 147.296 158.796 147.296H155.089C154.925 147.296 154.802 147.439 154.802 147.603C154.802 147.767 154.925 147.89 155.089 147.89H158.407C158.898 147.89 159.287 148.279 159.287 148.771C159.287 149.262 158.898 149.651 158.407 149.651H155.089C154.925 149.651 154.802 149.774 154.802 149.938C154.802 150.102 154.925 150.245 155.089 150.245H158.407C158.898 150.245 159.287 150.634 159.287 151.126C159.287 151.597 158.898 152.007 158.407 152.007H155.089C154.925 152.007 154.802 152.13 154.802 152.293C154.802 152.457 154.925 152.58 155.089 152.58H158.796C159.287 152.58 159.677 152.99 159.677 153.461C159.677 153.952 159.287 154.341 158.796 154.341H148.699C147.552 154.341 146.651 153.44 146.651 152.293V150.921C146.651 150.757 146.466 150.696 146.343 150.778C146.057 150.921 145.729 150.942 145.422 150.798C144.91 150.573 144.684 149.959 144.91 149.446ZM145.176 141.868C145.176 142.094 145.34 142.278 145.565 142.278H156.953C157.178 142.278 157.362 142.094 157.362 141.868V141.541C157.362 141.315 157.178 141.131 156.953 141.131H145.626C145.401 141.131 145.217 141.315 145.196 141.541L145.176 141.868ZM148.781 152.293C148.781 152.457 148.903 152.58 149.067 152.58H152.365C152.529 152.58 152.672 152.457 152.672 152.293C152.672 152.13 152.529 152.007 152.365 152.007H149.067C148.903 152.007 148.781 152.13 148.781 152.293ZM148.781 149.938C148.781 150.102 148.903 150.245 149.067 150.245H152.365C152.529 150.245 152.672 150.102 152.672 149.938C152.672 149.774 152.529 149.651 152.365 149.651H149.067C148.903 149.651 148.781 149.774 148.781 149.938ZM148.781 147.603C148.781 147.767 148.903 147.89 149.067 147.89H152.365C152.529 147.89 152.672 147.767 152.672 147.603C152.672 147.439 152.529 147.296 152.365 147.296H149.067C148.903 147.296 148.781 147.439 148.781 147.603Z" fill="white"/>
<path d="M124.263 148.054C123.485 148.054 122.829 147.398 122.829 146.62C122.829 145.842 123.485 145.186 124.263 145.186C125.041 145.186 125.697 145.842 125.697 146.62C125.697 147.398 125.041 148.054 124.263 148.054Z" fill="white"/>
<path d="M98.7434 154.505C98.1495 154.505 97.6579 154.014 97.6579 153.42V152.805C97.6579 152.621 97.5145 152.478 97.3302 152.478H92.0665C91.5135 152.478 91.0629 152.027 91.0629 151.474C91.0629 150.921 91.5135 150.471 92.0665 150.471H97.3712C97.535 150.471 97.6579 150.348 97.6579 150.184C97.6579 150.02 97.535 149.897 97.3712 149.897H90.5304C89.9774 149.897 89.5269 149.446 89.5269 148.893C89.5269 148.34 89.9774 147.89 90.5304 147.89H97.3712C97.535 147.89 97.6579 147.767 97.6579 147.603C97.6579 147.439 97.535 147.316 97.3712 147.316H92.0665C91.5135 147.316 91.0629 146.866 91.0629 146.313C91.0629 145.76 91.5135 145.309 92.0665 145.309H97.3712C97.535 145.309 97.6579 145.186 97.6579 145.002C97.6579 144.838 97.535 144.715 97.3712 144.715H93.3773C92.2509 144.715 91.3292 143.794 91.3292 142.667V141.52C91.3292 140.394 92.2509 139.472 93.3773 139.472H97.4121C97.5555 139.472 97.6579 139.37 97.6579 139.226C97.6579 139.083 97.5555 138.981 97.4121 138.981H91.2678C90.7148 138.981 90.2642 138.53 90.2642 137.977C90.2642 137.424 90.7148 136.973 91.2678 136.973H97.4736C97.576 136.973 97.6579 136.891 97.6579 136.789C97.6579 136.277 98.0675 135.867 98.5796 135.867H98.9073C99.4193 135.867 99.8289 136.277 99.8289 136.789C99.8289 136.891 99.9108 136.973 100.013 136.973H106.219C106.772 136.973 107.223 137.424 107.223 137.977C107.223 138.53 106.772 138.981 106.219 138.981H100.075C99.9313 138.981 99.8289 139.083 99.8289 139.226C99.8289 139.37 99.9313 139.472 100.075 139.472H104.109C105.236 139.472 106.158 140.394 106.158 141.52V142.667C106.158 143.794 105.236 144.715 104.109 144.715H100.136C99.9518 144.715 99.8289 144.838 99.8289 145.002C99.8289 145.186 99.9518 145.309 100.136 145.309H104.437C105.564 145.309 106.485 146.231 106.485 147.357V147.644C106.485 147.788 106.588 147.89 106.731 147.89H106.956C107.509 147.89 107.96 148.34 107.96 148.893C107.96 149.446 107.509 149.897 106.956 149.897H106.731C106.588 149.897 106.485 149.999 106.485 150.143V150.43C106.485 151.556 105.564 152.478 104.437 152.478H100.177C99.9723 152.478 99.8289 152.621 99.8289 152.805V153.42C99.8289 154.014 99.3374 154.505 98.7434 154.505ZM93.5002 142.339C93.5002 142.565 93.6845 142.749 93.9098 142.749H97.2483C97.4736 142.749 97.6579 142.565 97.6579 142.339V141.848C97.6579 141.623 97.4736 141.438 97.2483 141.438H93.9098C93.6845 141.438 93.5002 141.623 93.5002 141.848V142.339ZM99.8289 150.184C99.8289 150.348 99.9518 150.471 100.116 150.471H104.028C104.191 150.471 104.314 150.348 104.314 150.184C104.314 150.02 104.191 149.897 104.028 149.897H100.116C99.9518 149.897 99.8289 150.02 99.8289 150.184ZM99.8289 147.603C99.8289 147.767 99.9518 147.89 100.116 147.89H104.028C104.191 147.89 104.314 147.767 104.314 147.603C104.314 147.439 104.191 147.316 104.028 147.316H100.116C99.9518 147.316 99.8289 147.439 99.8289 147.603ZM99.8289 142.339C99.8289 142.565 100.013 142.749 100.239 142.749H103.577C103.802 142.749 103.987 142.565 103.987 142.339V141.848C103.987 141.623 103.802 141.438 103.577 141.438H100.239C100.013 141.438 99.8289 141.623 99.8289 141.848V142.339Z" fill="white"/>
<path d="M71.278 153.87C70.6635 153.87 70.172 153.379 70.172 152.764C70.172 152.15 70.6635 151.658 71.278 151.658H74.2477C74.473 151.658 74.6574 151.474 74.6574 151.249V145.186C74.6574 144.961 74.473 144.777 74.2477 144.777H70.0696C69.4551 144.777 68.9636 144.285 68.9636 143.671C68.9636 143.056 69.4551 142.565 70.0696 142.565H74.2477C74.473 142.565 74.6574 142.38 74.6574 142.155V137.281C74.6574 136.666 75.1489 136.175 75.7634 136.175C76.3778 136.175 76.8693 136.666 76.8693 137.281V142.155C76.8693 142.38 77.0537 142.565 77.279 142.565H81.4571C82.0716 142.565 82.5631 143.056 82.5631 143.671C82.5631 144.285 82.0716 144.777 81.4571 144.777H77.279C77.0537 144.777 76.8693 144.961 76.8693 145.186V151.249C76.8693 151.474 77.0537 151.658 77.279 151.658H80.2487C80.8632 151.658 81.3547 152.15 81.3547 152.764C81.3547 153.379 80.8632 153.87 80.2487 153.87H71.278ZM63.9457 142.811L68.9841 136.584C69.3732 136.113 70.0491 136.031 70.5202 136.42C70.9912 136.789 71.0732 137.485 70.684 137.957L68.472 140.701C68.2877 140.906 68.2058 141.172 68.2058 141.438V153.297C68.2058 153.911 67.7142 154.403 67.0998 154.403C66.4854 154.403 65.9938 153.911 65.9938 153.297V144.039C65.9938 143.937 65.8709 143.896 65.83 143.978L65.6456 144.183C65.2565 144.654 64.5806 144.736 64.1095 144.347C63.6385 143.958 63.5566 143.282 63.9457 142.811Z" fill="white"/>
<defs>
<filter id="filter0_d_48_399" x="27.2776" y="53.0717" width="193.484" height="121.949" filterUnits="userSpaceOnUse" color-interpolation-filters="sRGB">
<feFlood flood-opacity="0" result="BackgroundImageFix"/>
<feColorMatrix in="SourceAlpha" type="matrix" values="0 0 0 0 0 0 0 0 0 0 0 0 0 0 0 0 0 0 127 0" result="hardAlpha"/>
<feOffset dy="4"/>
<feGaussianBlur stdDeviation="2"/>
<feComposite in2="hardAlpha" operator="out"/>
<feColorMatrix type="matrix" values="0 0 0 0 0 0 0 0 0 0 0 0 0 0 0 0 0 0 0.25 0"/>
<feBlend mode="normal" in2="BackgroundImageFix" result="effect1_dropShadow_48_399"/>
<feBlend mode="normal" in="SourceGraphic" in2="effect1_dropShadow_48_399" result="shape"/>
</filter>
<filter id="filter1_f_48_399" x="0" y="13.998" width="248.041" height="192.096" filterUnits="userSpaceOnUse" color-interpolation-filters="sRGB">
<feFlood flood-opacity="0" result="BackgroundImageFix"/>
<feBlend mode="normal" in="SourceGraphic" in2="BackgroundImageFix" result="shape"/>
<feGaussianBlur stdDeviation="25" result="effect1_foregroundBlur_48_399"/>
</filter>
</defs>
</svg>
